<?xml version="1.0" encoding="utf-8"?>
<!-- Generator: Adobe Illustrator 27.5.0, SVG Export Plug-In . SVG Version: 6.00 Build 0)  -->
<svg version="1.1" xmlns="http://www.w3.org/2000/svg" xmlns:xlink="http://www.w3.org/1999/xlink" x="0px" y="0px"
	 viewBox="0 0 500 500" style="enable-background:new 0 0 500 500;" xml:space="preserve">
<g id="Background_Simple">
	<g>
		<path style="fill:#92E3A9;" d="M473.218,196.681c0,0-11.867-89.003-75.158-129.549c-63.291-40.546-105.761-20.999-138.45,8.9
			c-32.689,29.899-83.07,52.413-125.594,29.668s-81.092,0-99.882,44.502c-18.79,44.502,52.413,101.859,52.413,128.56
			s-43.513,73.18-43.513,108.782s38.568,82.081,110.76,72.192c72.192-9.889,117.682-65.269,144.383-59.336
			c26.701,5.934,61.313,51.424,117.682,24.723C472.229,398.422,485.085,280.74,473.218,196.681z"/>
		<path style="opacity:0.7;fill:#FFFFFF;" d="M473.218,196.681c0,0-11.867-89.003-75.158-129.549
			c-63.291-40.546-105.761-20.999-138.45,8.9c-32.689,29.899-83.07,52.413-125.594,29.668s-81.092,0-99.882,44.502
			c-18.79,44.502,52.413,101.859,52.413,128.56s-43.513,73.18-43.513,108.782s38.568,82.081,110.76,72.192
			c72.192-9.889,117.682-65.269,144.383-59.336c26.701,5.934,61.313,51.424,117.682,24.723
			C472.229,398.422,485.085,280.74,473.218,196.681z"/>
	</g>
</g>
<g id="Furniture">
	<g style="opacity:0.3;">
		<g>
			
				<rect x="346.853" y="290.982" transform="matrix(-1 -1.224647e-16 1.224647e-16 -1 821.2005 586.7705)" style="fill:none;stroke:#000000;stroke-linecap:round;stroke-linejoin:round;stroke-miterlimit:10;" width="127.495" height="4.806"/>
			
				<rect x="352.766" y="295.926" transform="matrix(-1 -1.224647e-16 1.224647e-16 -1 821.2005 721.6692)" style="fill:none;stroke:#000000;stroke-linecap:round;stroke-linejoin:round;stroke-miterlimit:10;" width="115.668" height="129.818"/>
			<g>
				
					<rect x="356.927" y="301.965" transform="matrix(-1 -1.224647e-16 1.224647e-16 -1 821.3349 632.0983)" style="fill:none;stroke:#000000;stroke-linecap:round;stroke-linejoin:round;stroke-miterlimit:10;" width="107.481" height="28.167"/>
				
					<rect x="405.479" y="313.455" transform="matrix(-1 -1.224647e-16 1.224647e-16 -1 821.7054 632.0982)" style="fill:#263238;stroke:#000000;stroke-linecap:round;stroke-linejoin:round;stroke-miterlimit:10;" width="10.748" height="5.189"/>
			</g>
			<g>
				
					<rect x="356.927" y="337.545" transform="matrix(-1 -1.224647e-16 1.224647e-16 -1 821.3349 703.2584)" style="fill:none;stroke:#000000;stroke-linecap:round;stroke-linejoin:round;stroke-miterlimit:10;" width="107.481" height="28.168"/>
				
					<rect x="405.479" y="349.035" transform="matrix(-1 -1.224647e-16 1.224647e-16 -1 821.7054 703.2584)" style="fill:#263238;stroke:#000000;stroke-linecap:round;stroke-linejoin:round;stroke-miterlimit:10;" width="10.748" height="5.189"/>
			</g>
			<g>
				
					<rect x="356.927" y="373.29" transform="matrix(-1 -1.224647e-16 1.224647e-16 -1 821.3349 774.7478)" style="fill:none;stroke:#000000;stroke-linecap:round;stroke-linejoin:round;stroke-miterlimit:10;" width="107.481" height="28.168"/>
				
					<rect x="405.479" y="384.78" transform="matrix(-1 -1.224647e-16 1.224647e-16 -1 821.7054 774.7478)" style="fill:#263238;stroke:#000000;stroke-linecap:round;stroke-linejoin:round;stroke-miterlimit:10;" width="10.748" height="5.189"/>
			</g>
		</g>
	</g>
</g>
<g id="Picture">
	<path style="opacity:0.3;fill:none;stroke:#000000;stroke-miterlimit:10;" d="M124.821,240.044H36.394V99.267h109.484v140.777
		h-15.306 M141.908,104.372H40.365v130.567h101.543V104.372z M141.518,175.044c-13.125-22.148-52.089-14.766-75.058-30.351
		c-2.141-1.453-4.051-2.981-5.753-4.557 M47.183,104.908c0,0-2.67,17.503,10.661,32.325 M57.847,234.926
		c0-17.637,39.785-42.246,31.171-56.191c-7.424-12.019-21.931-7.819-33.135-1.902 M52.786,178.557
		c-7.054,4.115-12.165,8.382-12.165,8.382 M93.531,104.908c0,0,14.765,22.968,48.398,16.816 M96.476,122.781
		c-2.271-4.287-6.779-7.208-11.968-7.208c-7.475,0-13.535,6.06-13.535,13.535c0,7.475,6.06,13.535,13.535,13.535
		c7.475,0,13.535-6.06,13.535-13.535c0-0.555-0.034-1.103-0.098-1.641 M125.317,141.002c-3.511,0-6.357,2.846-6.357,6.357
		c0,3.511,2.846,6.357,6.357,6.357c3.511,0,6.357-2.846,6.357-6.357C131.675,143.848,128.828,141.002,125.317,141.002z
		 M141.559,195.19c-2.841-2.287-6.168-3.994-9.802-4.942 M126.626,189.443c-0.501-0.029-1.006-0.043-1.514-0.043
		c-14.497,0-26.25,11.752-26.25,26.25c0,7.668,3.288,14.568,8.531,19.367"/>
</g>
<g id="Window_1_">
	<path style="opacity:0.3;fill:none;stroke:#000000;stroke-miterlimit:10;" d="M270.607,176.266h-55.38v-91.97h55.38V176.266z
		 M334.887,84.296h-55.38v91.97h55.38V84.296z M270.607,188.133h-55.38v91.97h55.38V188.133z M334.887,188.133h-55.38v91.97h55.38
		V188.133z M398.918,84.296h-55.38v91.97h55.38V84.296z M463.198,84.296h-55.38v91.97h55.38V84.296z M398.918,188.133h-55.38v91.97
		h55.38V188.133z M463.198,188.133h-55.38v91.97h55.38V188.133z"/>
</g>
<g id="Plants">
	<g style="opacity:0.3;">
		<path style="fill:none;stroke:#000000;stroke-linecap:round;stroke-linejoin:round;stroke-miterlimit:10;" d="M39.867,313.084
			c2.25,0.983,7.755,0.859,7.759,0.859c0.057-0.001-1.183-3.603-1.287-3.822c-1.208-2.526-5.027-6.698-8.135-6.278
			c-2.239,0.303-3.484,2.543-2.978,4.651C35.742,310.647,37.95,312.246,39.867,313.084z"/>
		<path style="fill:none;stroke:#000000;stroke-linecap:round;stroke-linejoin:round;stroke-miterlimit:10;" d="M95.544,314.294
			c0.048,0.031,1.001-3.658,1.035-3.898c0.386-2.774-0.498-8.36-3.322-9.724c-2.034-0.983-4.308,0.199-5.05,2.236
			c-0.757,2.08,0.203,4.633,1.339,6.389C90.88,311.359,95.54,314.292,95.544,314.294z"/>
		<path style="fill:none;stroke:#000000;stroke-linecap:round;stroke-linejoin:round;stroke-miterlimit:10;" d="M111.973,294.347
			c-3.118-0.335-6.823,3.937-7.963,6.496c-0.098,0.221-1.241,3.856-1.183,3.855c0,0,0.053-0.001,0.066-0.001
			c-0.59,0.67-1.215,1.395-1.882,2.201c-1.219,1.498-2.584,3.202-3.944,5.157c-1.364,1.95-2.791,4.107-4.089,6.515
			c-1.304,2.411-2.553,5.015-3.493,7.863c-0.011,0.032-0.018,0.067-0.028,0.099c0.016-0.918-0.025-3.488-0.05-3.685
			c-0.36-2.777-2.688-7.932-5.771-8.502c-2.222-0.41-4.103,1.33-4.281,3.491c-0.18,2.206,1.419,4.415,2.979,5.808
			c1.759,1.571,6.642,3.093,7.031,3.213c-0.87,2.721-1.542,5.584-2.063,8.519c-0.299,1.678-0.549,3.377-0.777,5.083
			c-0.011-0.795-0.028-1.505-0.041-1.604c-0.36-2.777-2.688-7.932-5.771-8.502c-2.222-0.41-4.103,1.33-4.28,3.49
			c-0.181,2.206,1.419,4.415,2.979,5.808c1.583,1.414,5.72,2.795,6.819,3.146c-0.081,0.656-0.169,1.31-0.247,1.966
			c-0.376,3.147-0.738,6.289-1.187,9.36c-0.158,1.083-0.353,2.143-0.544,3.204c-0.011-0.706-0.026-1.3-0.038-1.39
			c-0.36-2.777-2.688-7.932-5.772-8.502c-2.222-0.411-4.103,1.33-4.28,3.491c-0.181,2.206,1.419,4.415,2.979,5.808
			c1.51,1.349,5.318,2.658,6.623,3.081c-0.229,1.081-0.456,2.164-0.727,3.201c-0.201,0.704-0.345,1.396-0.586,2.092
			c-0.224,0.694-0.446,1.381-0.665,2.061c-0.471,1.295-0.949,2.634-1.441,3.886c-0.335,0.873-0.671,1.699-1.006,2.532
			c0.17-1.075,0.457-3.188,0.461-3.367c0.043-1.86-0.618-4.884-1.932-7.01c0.008-0.275-0.008-0.549-0.052-0.821
			c-0.344-2.14-2.354-3.73-4.538-3.148c-3.031,0.807-4.953,6.126-5.096,8.923c-0.009,0.165,0.1,1.965,0.186,3.1
			c-0.152-0.659-0.293-1.301-0.459-1.978c-0.318-1.34-0.674-2.668-1.052-4.099c-0.207-0.684-0.416-1.375-0.627-2.073
			c-0.194-0.697-0.489-1.408-0.732-2.12c-0.6-1.639-1.286-3.27-2.015-4.898c1.173-0.281,5.324-1.339,6.991-2.618
			c1.659-1.273,3.419-3.356,3.403-5.57c-0.016-2.167-1.762-4.044-4.008-3.8c-3.118,0.339-5.823,5.305-6.389,8.048
			c-0.035,0.171-0.22,2.184-0.3,3.293c-0.446-0.976-0.885-1.951-1.368-2.923c-1.394-2.806-2.891-5.604-4.373-8.401
			c-0.455-0.857-0.896-1.715-1.343-2.574c0.418-0.095,5.38-1.247,7.247-2.679c1.659-1.273,3.419-3.357,3.404-5.57
			c-0.016-2.168-1.762-4.043-4.008-3.799c-3.118,0.339-5.823,5.306-6.389,8.048c-0.042,0.207-0.304,3.104-0.335,3.845
			c-0.982-1.89-1.943-3.783-2.814-5.688c-1.206-2.626-2.245-5.27-3.061-7.905c0.195-0.044,5.378-1.222,7.291-2.689
			c1.659-1.273,3.419-3.356,3.404-5.57c-0.016-2.168-1.762-4.044-4.008-3.8c-3.118,0.339-5.823,5.305-6.389,8.048
			c-0.037,0.18-0.239,2.389-0.31,3.441c-0.098,0.011-0.08,0.009-0.178,0.019c-0.841-2.834-1.299-5.685-1.595-8.375
			c-0.175-1.557-0.255-3.056-0.3-4.516c0.988-0.12,5.496-0.721,7.363-1.851c1.789-1.083,3.767-2.96,3.995-5.162
			c0.222-2.156-1.308-4.213-3.567-4.217c-3.136-0.006-6.37,4.634-7.234,7.297c-0.047,0.145-0.361,1.67-0.575,2.784
			c-0.01-0.659-0.033-1.339-0.03-1.97c0.004-2.372,0.154-4.543,0.303-6.465c0.093-1.092,0.199-2.078,0.308-2.999
			c0.908-0.624,4.535-3.184,5.65-5.014c1.089-1.786,1.979-4.363,1.166-6.423c-0.796-2.016-3.102-3.136-5.109-2.099
			c-2.786,1.44-3.519,7.048-3.058,9.811c0.04,0.239,1.092,3.9,1.14,3.868c0,0,0.044-0.03,0.055-0.038
			c-0.123,0.884-0.243,1.834-0.355,2.874c-0.191,1.922-0.389,4.097-0.444,6.477c-0.062,2.379-0.062,4.965,0.183,7.689
			c0.243,2.731,0.637,5.592,1.424,8.486c0.009,0.033,0.023,0.066,0.031,0.098c-0.493-0.775-1.945-2.896-2.075-3.046
			c-1.833-2.118-6.618-5.132-9.504-3.907c-2.08,0.883-2.689,3.373-1.645,5.273c1.066,1.94,3.619,2.899,5.689,3.201
			c2.334,0.34,7.247-1.084,7.637-1.199c0.775,2.75,1.794,5.509,2.979,8.244c0.675,1.564,1.405,3.12,2.156,4.669
			c-0.448-0.656-0.854-1.24-0.919-1.315c-1.833-2.118-6.618-5.133-9.504-3.907c-2.08,0.883-2.689,3.373-1.644,5.272
			c1.066,1.94,3.619,2.9,5.689,3.201c2.1,0.306,6.313-0.824,7.424-1.138c0.294,0.591,0.582,1.185,0.878,1.775
			c1.423,2.832,2.854,5.653,4.174,8.462c0.466,0.99,0.888,1.982,1.314,2.973c-0.399-0.583-0.739-1.07-0.799-1.139
			c-1.832-2.118-6.617-5.133-9.504-3.907c-2.08,0.883-2.689,3.373-1.644,5.273c1.067,1.94,3.619,2.899,5.689,3.201
			c2.004,0.292,5.902-0.716,7.223-1.083c0.405,1.028,0.814,2.056,1.16,3.071c0.221,0.698,0.482,1.355,0.665,2.068
			c0.196,0.702,0.39,1.398,0.582,2.087c0.321,1.34,0.661,2.72,0.942,4.036c0.202,0.913,0.378,1.787,0.558,2.667
			c-0.452-0.991-1.378-2.911-1.473-3.063c-1.49-2.371-5.763-6.076-8.802-5.302c-2.189,0.558-3.169,2.926-2.424,4.962
			c0.76,2.079,3.138,3.414,5.138,4.026c2.202,0.673,7.078,0.058,7.687-0.023c0.292,1.457,0.563,2.877,0.796,4.22
			c0.52,2.946,0.912,5.587,1.211,7.826H56.599l4.873,40.706h22.739l4.873-40.706H76.522c0.814-1.809,1.708-3.865,2.639-6.143
			c0.574-1.396,1.16-2.898,1.747-4.446c0.59,0.124,5.417,1.104,7.666,0.596c2.04-0.461,4.511-1.615,5.424-3.632
			c0.894-1.975,0.094-4.41-2.048-5.129c-2.973-0.999-7.51,2.377-9.173,4.631c-0.098,0.133-1.001,1.694-1.555,2.688
			c0.237-0.634,0.473-1.247,0.709-1.902c0.475-1.293,0.91-2.598,1.384-4c0.205-0.685,0.412-1.377,0.62-2.076
			c0.222-0.688,0.369-1.444,0.559-2.172c0.404-1.697,0.731-3.437,1.022-5.197c1.133,0.413,5.179,1.82,7.275,1.673
			c2.086-0.147,4.703-0.913,5.911-2.768c1.183-1.817,0.761-4.345-1.247-5.38c-2.787-1.438-7.784,1.212-9.769,3.188
			c-0.124,0.123-1.389,1.7-2.067,2.581c0.166-1.06,0.338-2.116,0.471-3.193c0.386-3.109,0.68-6.269,0.987-9.419
			c0.093-0.965,0.199-1.925,0.3-2.887c0.401,0.151,5.175,1.928,7.522,1.763c2.086-0.146,4.703-0.913,5.912-2.768
			c1.183-1.816,0.761-4.345-1.247-5.38c-2.787-1.438-7.784,1.212-9.768,3.188c-0.15,0.149-1.966,2.421-2.4,3.022
			c0.224-2.118,0.467-4.227,0.79-6.296c0.443-2.856,1.035-5.634,1.808-8.282c0.187,0.071,5.16,1.948,7.564,1.779
			c2.087-0.146,4.704-0.913,5.912-2.768c1.183-1.816,0.761-4.344-1.247-5.38c-2.787-1.438-7.784,1.213-9.768,3.188
			c-0.13,0.13-1.516,1.859-2.156,2.697c-0.088-0.045-0.072-0.037-0.159-0.083c0.862-2.827,2.053-5.457,3.289-7.864
			c0.714-1.396,1.473-2.689,2.241-3.932c0.89,0.445,4.982,2.431,7.163,2.518c2.09,0.083,4.775-0.391,6.18-2.102
			c1.375-1.676,1.233-4.235-0.649-5.485c-2.612-1.735-7.87,0.351-10.059,2.096c-0.119,0.095-1.223,1.194-2.016,2.006
			c0.355-0.555,0.711-1.135,1.062-1.66c1.312-1.976,2.635-3.704,3.819-5.225c0.68-0.86,1.312-1.623,1.911-2.332
			c1.102-0.02,5.539-0.154,7.479-1.065c1.893-0.889,4.058-2.548,4.516-4.714C115.524,296.795,114.219,294.589,111.973,294.347z
			 M77.45,378.118c-1.128,2.598-2.201,4.902-3.148,6.866H71.01c-0.358-2.318-0.824-5.075-1.439-8.168
			c-0.291-1.48-0.631-3.057-0.995-4.672c0.366-0.146,2.446-0.987,4.288-2.016c1.605,1.738,5.718,3.773,6.251,4.031
			C78.554,375.535,77.996,376.869,77.45,378.118z"/>
	</g>
</g>
<g id="Floor">
	<g>
		
			<line style="fill:none;stroke:#263238;stroke-linecap:round;stroke-linejoin:round;stroke-miterlimit:10;" x1="41.793" y1="425.743" x2="31.105" y2="425.743"/>
		
			<line style="fill:none;stroke:#263238;stroke-linecap:round;stroke-linejoin:round;stroke-miterlimit:10;" x1="487" y1="425.743" x2="51.104" y2="425.743"/>
	</g>
</g>
<g id="Device">
	<g>
		<polygon style="opacity:0.2;" points="82.106,465.53 8,460.353 152.445,433.988 254.407,433.988 		"/>
		<g>
			<g>
				<path style="fill:#263238;stroke:#263238;stroke-miterlimit:10;" d="M248.908,79.601L100.646,50.579V49.41h-7.839
					c-4.957-0.739-9.411,3.101-9.411,8.112v398.121c0,5.011,4.615,9.363,9.693,9.623l4.922,0.547l2.635-0.151l148.262-30.19
					c4.018-0.599,6.993-4.049,6.993-8.112V87.713C255.9,83.65,252.926,80.2,248.908,79.601z"/>
				<path style="fill:#FFFFFF;stroke:#263238;stroke-miterlimit:10;" d="M256.747,435.472l-156.101,30.19
					c-4.956,0.739-9.411-3.101-9.411-8.112V57.523c0-5.011,4.454-8.851,9.411-8.112l156.101,30.19
					c4.018,0.599,6.993,4.049,6.993,8.112V427.36C263.74,431.423,260.765,434.874,256.747,435.472z"/>
			</g>
			<polygon style="fill:#263238;" points="255.985,400.135 102.487,423.514 102.487,74.555 255.985,97.934 			"/>
			<g>
				<path style="fill:#92E3A9;stroke:#263238;stroke-miterlimit:10;" d="M255.985,400.135l-153.497,23.379V337.51
					c21.554-2.059,52.613-12.589,82.436-50.183c44.355-55.913,21.888-144.211,71.062-152.325V400.135z M131.766,134.764
					c-11.499-1.177-20.996,8.162-20.996,20.883c0,12.72,9.497,23.619,20.996,24.331c11.267,0.697,20.235-8.686,20.235-20.945
					C152.001,146.773,143.033,135.917,131.766,134.764z M104.66,74.886c4.449,13.933,15.433,35.316,41.516,44.617
					c33.955,12.108,49.858-16.542,73.514-27.097L104.66,74.886z"/>
				<path style="opacity:0.3;" d="M255.985,400.135l-153.497,23.379V337.51c21.554-2.059,52.613-12.589,82.436-50.183
					c44.355-55.913,21.888-144.211,71.062-152.325V400.135z M131.766,134.764c-11.499-1.177-20.996,8.162-20.996,20.883
					c0,12.72,9.497,23.619,20.996,24.331c11.267,0.697,20.235-8.686,20.235-20.945C152.001,146.773,143.033,135.917,131.766,134.764
					z M104.66,74.886c4.449,13.933,15.433,35.316,41.516,44.617c33.955,12.108,49.858-16.542,73.514-27.097L104.66,74.886z"/>
				<path style="fill:#263238;stroke:#263238;stroke-miterlimit:10;" d="M247.934,317.97c0,11.186-7.461,20.919-16.821,21.754
					c-9.535,0.85-17.396-7.827-17.396-19.396c0-11.569,7.861-21.33,17.396-21.794C240.473,298.079,247.934,306.784,247.934,317.97z"
					/>
			</g>
			<polygon style="fill:none;stroke:#263238;stroke-miterlimit:10;" points="255.985,400.135 102.487,423.514 102.487,74.555 
				255.985,97.934 			"/>
			<g>
				<g>
					<g>
						<g>
							<g>
								<path style="fill-rule:evenodd;clip-rule:evenodd;fill:#999999;stroke:#263238;stroke-miterlimit:10;" d="M182.254,240.792
									l-19.928-0.148c-2.55-0.019-4.626-2.059-4.626-4.557v-23.164c0-2.498,2.076-4.448,4.626-4.356l19.928,0.716
									c2.45,0.088,4.427,2.132,4.427,4.566v22.57C186.681,238.852,184.703,240.811,182.254,240.792z"/>
							</g>
						</g>
						<polygon style="fill-rule:evenodd;clip-rule:evenodd;fill:#FFFFFF;" points="181.519,224.559 165.326,213.858 
							165.326,234.543 						"/>
					</g>
					
						<line style="fill-rule:evenodd;clip-rule:evenodd;fill:none;stroke:#D4D4D4;stroke-miterlimit:10;" x1="161.253" y1="251.272" x2="181.883" y2="251.231"/>
				</g>
				<g>
					<g>
						<g>
							<g>
								<path style="fill-rule:evenodd;clip-rule:evenodd;fill:#999999;stroke:#263238;stroke-miterlimit:10;" d="M217.393,241.054
									l-18.671-0.139c-2.388-0.018-4.331-1.991-4.331-4.408v-22.412c0-2.417,1.943-4.306,4.331-4.22l18.671,0.671
									c2.297,0.083,4.151,2.06,4.151,4.416v21.856C221.544,239.175,219.689,241.071,217.393,241.054z"/>
							</g>
						</g>
						<path style="fill-rule:evenodd;clip-rule:evenodd;fill:#FFFFFF;" d="M219.78,217.563c0-2.427-1.72-4.453-3.85-4.524
							c-1.42-0.048-2.662,0.788-3.337,2.071c-0.676-1.327-1.924-2.248-3.358-2.296c-2.165-0.073-3.926,1.863-3.926,4.323
							c0,0.797,0.188,1.549,0.512,2.206c0.189,0.532,1.21,2.539,6.605,7.039c0,0,0.064,0.107,0.097,0.081
							c0.033,0.027,0.097-0.077,0.097-0.077c1.51-1.196,3.022-2.396,4.379-3.797C218.277,221.269,219.78,219.694,219.78,217.563z"/>
						<path style="fill-rule:evenodd;clip-rule:evenodd;fill:none;stroke:#FFFFFF;stroke-miterlimit:10;" d="M196.25,232.002
							c0,0,2.461,0.498,4.299-0.851c1.832-1.345,0.815-4.803,3.253-4.523c2.964,0.34,1.513,6.894,2.947,8.977
							c0.453,0.658,1.269,1.074,1.936,0.741c0.766-0.383,0.961-1.626,1.071-2.464c0.122-0.929,0.143-1.882,0.37-2.784
							c0.508-2.016,1.983-0.797,2.915,0.246c0.583,0.653,1.363,1.018,2.173,1.03l5.155,0.08"/>
					</g>
					
						<line style="fill-rule:evenodd;clip-rule:evenodd;fill:none;stroke:#D4D4D4;stroke-miterlimit:10;" x1="197.653" y1="251.2" x2="216.983" y2="251.161"/>
				</g>
				<g>
					<g>
						<g>
							<g>
								<path style="fill-rule:evenodd;clip-rule:evenodd;fill:#999999;stroke:#263238;stroke-miterlimit:10;" d="M250.743,241.303
									l-17.517-0.13c-2.239-0.017-4.061-1.927-4.061-4.267v-21.7c0-2.34,1.822-4.171,4.061-4.091l17.517,0.629
									c2.156,0.077,3.897,1.991,3.897,4.275v21.178C254.64,239.48,252.899,241.319,250.743,241.303z"/>
							</g>
						</g>
						<g>
							<path style="fill-rule:evenodd;clip-rule:evenodd;fill:none;stroke:#FFFFFF;stroke-miterlimit:10;" d="M242.445,220.629
								v-2.113c0-0.9-0.624-1.65-1.395-1.673l-8.409-0.258v3.778v11.1v3.778l19.178,0.251v-14.608L242.445,220.629z"/>
							
								<line style="fill-rule:evenodd;clip-rule:evenodd;fill:none;stroke:#FFFFFF;stroke-miterlimit:10;" x1="234.157" y1="222.347" x2="251.245" y2="222.78"/>
						</g>
					</g>
					
						<line style="fill-rule:evenodd;clip-rule:evenodd;fill:none;stroke:#D4D4D4;stroke-miterlimit:10;" x1="232.924" y1="251.13" x2="251.035" y2="251.094"/>
				</g>
				<g>
					<g>
						<g>
							<path style="fill-rule:evenodd;clip-rule:evenodd;fill:#999999;stroke:#263238;stroke-miterlimit:10;" d="M281.374,241.531
								l-16.49-0.123c-2.106-0.016-3.82-1.868-3.82-4.137v-21.047c0-2.269,1.714-4.047,3.82-3.972l16.49,0.592
								c2.031,0.073,3.671,1.929,3.671,4.145v20.555C285.045,239.762,283.405,241.546,281.374,241.531z"/>
						</g>
						<path style="fill-rule:evenodd;clip-rule:evenodd;fill:#FFFFFF;" d="M281.394,220.829l-16.296-0.456
							c-0.376-0.011-0.681,0.346-0.681,0.796v11.408c0,0.45,0.305,0.82,0.681,0.825l16.296,0.249
							c0.364,0.006,0.659-0.348,0.659-0.791v-11.211C282.052,221.206,281.758,220.839,281.394,220.829z M281.609,223.264
							l-5.142,3.73l4.584,4.199c0.264,0.242,0.32,0.695,0.124,1.013c-0.116,0.189-0.296,0.288-0.479,0.285
							c-0.123-0.002-0.247-0.05-0.353-0.148l-4.977-4.55l-1.858,1.348l-2.188-1.51l-5.155,4.478
							c-0.109,0.096-0.237,0.14-0.363,0.138c-0.188-0.003-0.373-0.109-0.494-0.306c-0.201-0.329-0.144-0.788,0.129-1.024l4.717-4.09
							l-5.356-3.695c-0.296-0.205-0.403-0.654-0.238-1.004c0.164-0.35,0.538-0.47,0.835-0.263l8.082,5.588l7.507-5.434
							c0.279-0.203,0.646-0.088,0.818,0.257C281.974,222.619,281.888,223.061,281.609,223.264z"/>
					</g>
					
						<line style="fill-rule:evenodd;clip-rule:evenodd;fill:none;stroke:#D4D4D4;stroke-miterlimit:10;" x1="264.6" y1="251.067" x2="281.649" y2="251.033"/>
				</g>
			</g>
			<g>
				<path style="fill-rule:evenodd;clip-rule:evenodd;fill:#D4D4D4;" d="M180.378,335.732c0-0.921-0.655-1.615-1.464-1.551
					c-0.81,0.064-1.468,0.865-1.468,1.788c0,0.923,0.658,1.618,1.468,1.551C179.723,337.453,180.378,336.653,180.378,335.732z"/>
				<path style="fill-rule:evenodd;clip-rule:evenodd;fill:#FFFFFF;" d="M189.27,335.014c0-1.501-1.059-2.635-2.369-2.532
					c-1.313,0.103-2.379,1.408-2.379,2.916c0,1.508,1.066,2.641,2.379,2.531C188.211,337.82,189.27,336.515,189.27,335.014z"/>
				<path style="fill-rule:evenodd;clip-rule:evenodd;fill:#D4D4D4;" d="M196.192,334.456c0-0.907-0.636-1.592-1.421-1.53
					c-0.786,0.062-1.425,0.85-1.425,1.76s0.639,1.594,1.425,1.53C195.556,336.15,196.192,335.363,196.192,334.456z"/>
				<path style="fill-rule:evenodd;clip-rule:evenodd;fill:#D4D4D4;" d="M203.926,333.831c0-0.9-0.626-1.581-1.4-1.52
					c-0.775,0.061-1.404,0.843-1.404,1.746c0,0.903,0.629,1.583,1.404,1.519C203.299,335.513,203.926,334.732,203.926,333.831z"/>
			</g>
			<g>
				<path style="opacity:0.1;fill-rule:evenodd;clip-rule:evenodd;fill:#FFFFFF;" d="M182.609,356.258
					c0.888,0.802,1.376,1.948,1.376,3.226v21.516c0,2.527-1.975,4.839-4.402,5.154l-18.087,2.345
					c-0.199,0.025-0.395,0.038-0.589,0.038c-1.011,0-1.951-0.345-2.693-0.998c-0.905-0.795-1.404-1.945-1.404-3.235v-22.055
					c0-2.591,2.057-4.908,4.586-5.163l18.087-1.829C180.651,355.136,181.764,355.493,182.609,356.258z M141.223,359.128
					l-19.435,1.966c-2.703,0.273-4.902,2.676-4.902,5.355v22.872c0,1.304,0.512,2.471,1.441,3.288
					c0.796,0.699,1.811,1.068,2.909,1.068c0.215,0,0.433-0.014,0.653-0.042l19.435-2.52c2.591-0.337,4.699-2.735,4.699-5.345
					v-22.293c0-1.29-0.501-2.455-1.412-3.278C143.702,359.378,142.498,358.994,141.223,359.128z M214.932,355.184
					c-2.273-2.054-5.179-3.021-8.17-2.716c-7.077,0.715-12.834,8.129-12.834,16.526c0,4.49,1.665,8.527,4.569,11.078
					c1.982,1.742,4.418,2.664,6.974,2.664c0.46,0,0.925-0.03,1.391-0.09c6.907-0.896,12.527-8.293,12.527-16.49
					C219.39,361.744,217.765,357.745,214.932,355.184z"/>
				<path style="opacity:0.1;fill:#FFFFFF;" d="M240.413,263.684c-1.487-1.468-3.439-2.243-5.457-2.237l-109.638,1.393
					c-5.472,0.07-9.923,4.501-9.923,9.88c0,2.572,1.013,4.973,2.853,6.759c1.817,1.765,4.217,2.727,6.787,2.727
					c0.1,0,0.201-0.002,0.302-0.004L234.974,279c4.426-0.13,8.027-4.138,8.027-8.937
					C243.001,267.633,242.057,265.308,240.413,263.684z"/>
				<path style="opacity:0.1;fill:#FFFFFF;" d="M147.173,213.848v22.571c0,1.291-0.504,2.502-1.418,3.409
					c-0.91,0.904-2.12,1.4-3.411,1.4c-0.013,0-0.025,0-0.038,0l-19.928-0.148c-2.789-0.021-5.058-2.26-5.058-4.993v-23.164
					c0-1.307,0.515-2.523,1.451-3.425c0.964-0.93,2.25-1.424,3.626-1.366l19.928,0.716
					C144.998,208.944,147.173,211.187,147.173,213.848z M121.309,250.837l0.002,0.871l20.629-0.041l-0.002-0.871L121.309,250.837z
					 M177.465,210.11l-18.671-0.671c-1.266-0.048-2.462,0.409-3.365,1.28c-0.914,0.882-1.417,2.08-1.417,3.375v22.412
					c0,2.651,2.137,4.824,4.763,4.843l18.671,0.139c0.012,0,0.023,0,0.035,0c1.192,0,2.317-0.465,3.17-1.312
					c0.893-0.886,1.385-2.079,1.385-3.36v-21.856C182.036,212.377,179.985,210.201,177.465,210.11z M157.708,250.764l0.002,0.871
					l19.331-0.039l-0.002-0.871L157.708,250.764z M210.815,211.309l-17.517-0.63c-1.166-0.049-2.282,0.384-3.128,1.2
					c-0.892,0.861-1.384,2.042-1.384,3.326v21.7c0,2.574,2.016,4.684,4.493,4.703l17.517,0.131h0c0.01,0,0.02,0,0.03,0
					c1.104,0,2.152-0.436,2.953-1.232c0.872-0.865,1.353-2.041,1.353-3.31v-21.178C215.132,213.507,213.196,211.394,210.815,211.309
					z M192.98,250.694l0.002,0.871l18.111-0.036l-0.002-0.871L192.98,250.694z M241.446,212.41l-16.49-0.592
					c-1.088-0.035-2.124,0.362-2.919,1.129c-0.86,0.829-1.352,2.024-1.352,3.278v21.047c0,2.504,1.908,4.556,4.252,4.573
					l16.49,0.123c0.01,0,0.02,0,0.029,0c1.026,0,2.005-0.41,2.758-1.158c0.84-0.834,1.322-2.023,1.322-3.263V216.99
					C245.537,214.546,243.701,212.491,241.446,212.41z M224.655,250.631l0.002,0.871l17.049-0.034l-0.002-0.871L224.655,250.631z"/>
				<path style="opacity:0.1;fill:#FFFFFF;" d="M180.863,120.794v0.989c0,4.013-1.677,7.024-4.74,7.907
					c3.215,1.464,4.74,4.773,4.74,8.787v3.141c0,5.933-2.237,10.092-7.717,9.594c-5.536-0.503-7.83-5.138-7.83-11.157v-2.36
					l2.293,0.236v2.473c0,4.475,1.506,7.972,5.485,8.343c3.949,0.368,5.43-2.758,5.43-7.422v-3.148c0-4.256-1.838-6.906-5.326-7.465
					l-2.425-0.267v-2.466l2.528,0.284c3.232,0.129,5.224-2.328,5.224-6.234v-1.457c0-4.663-1.48-8.116-5.43-8.619
					c-3.979-0.507-5.485,2.599-5.485,7.075v1.649l-2.293-0.272v-1.475c0-6.019,2.293-10.147,7.83-9.429
					C178.625,110.209,180.863,114.862,180.863,120.794z M187.417,128.576c1.202-2.058,3.049-2.767,5.634-2.466
					c4.788,0.557,6.701,5.008,6.701,10.551v6.856c0,5.771-2.208,9.913-7.495,9.432c-5.291-0.481-7.553-5.091-7.553-10.945v-2.202
					l2.212,0.227v2.314c0,4.337,1.503,7.774,5.291,8.128c3.811,0.355,5.288-2.771,5.288-7.065v-6.757
					c0-4.295-1.477-7.727-5.288-8.161c-2.539-0.29-4.289,1.129-4.99,4.056v0.694l-2.161-0.236l0.906-21.551l13.055,1.69v2.459
					l-10.949-1.391L187.417,128.576z M204.734,119.341c-0.106,0-0.213-0.006-0.321-0.02c-1.596-0.199-2.894-1.854-2.894-3.69
					c0-0.984,0.373-1.876,1.023-2.447c0.55-0.484,1.252-0.701,1.981-0.603c1.588,0.207,2.88,1.861,2.88,3.689
					c0,0.98-0.371,1.87-1.018,2.442C205.919,119.123,205.342,119.341,204.734,119.341z M204.185,113.43
					c-0.395,0-0.761,0.139-1.068,0.409c-0.462,0.406-0.727,1.059-0.727,1.792c0,1.412,0.956,2.68,2.131,2.826
					c0.479,0.059,0.925-0.078,1.287-0.398c0.46-0.406,0.724-1.058,0.724-1.789c0-1.405-0.952-2.673-2.121-2.825
					C204.334,113.435,204.259,113.43,204.185,113.43z M168.258,181.133c0.218-0.102,0.311-0.361,0.208-0.579
					c-0.654-1.389-0.999-2.941-0.999-4.488c0-2.63,0.991-5.057,2.72-6.659c1.445-1.339,3.297-1.993,5.214-1.85
					c0.337,0.026,0.688,0.08,1.043,0.161c0.116,0.025,0.239,0.004,0.339-0.063c0.099-0.066,0.167-0.171,0.187-0.289
					c0.174-1.017,0.502-1.97,0.971-2.833c0.115-0.211,0.037-0.476-0.174-0.591c-0.212-0.115-0.477-0.037-0.591,0.174
					c-0.447,0.822-0.776,1.716-0.98,2.663c-0.246-0.043-0.49-0.073-0.728-0.092c-2.159-0.167-4.247,0.573-5.873,2.08
					c-1.906,1.766-2.999,4.426-2.999,7.297c0,1.674,0.374,3.355,1.082,4.859c0.074,0.158,0.23,0.25,0.394,0.25
					C168.135,181.175,168.198,181.162,168.258,181.133z M196.49,174.416c0.163-0.176,0.152-0.452-0.024-0.615
					c-0.995-0.92-2.159-1.511-3.392-1.726c0.093-0.578,0.14-1.167,0.14-1.757c0-5.38-3.827-10.076-8.532-10.468
					c-2.653-0.227-5.134,0.936-6.806,3.175c-0.144,0.193-0.105,0.466,0.088,0.609c0.193,0.145,0.466,0.104,0.609-0.088
					c1.488-1.993,3.686-3.023,6.036-2.829c4.264,0.356,7.733,4.662,7.733,9.6c0,0.688-0.069,1.374-0.206,2.039
					c-0.025,0.121,0.003,0.247,0.076,0.346c0.074,0.099,0.186,0.163,0.309,0.175c1.214,0.117,2.373,0.657,3.353,1.562
					c0.084,0.077,0.19,0.116,0.296,0.116C196.287,174.556,196.404,174.509,196.49,174.416z M194.281,187.38
					c2.882-0.78,4.895-3.734,4.895-7.181c0-1.666-0.451-3.283-1.304-4.676c-0.125-0.205-0.393-0.269-0.599-0.144
					c-0.205,0.126-0.27,0.394-0.144,0.599c0.769,1.256,1.176,2.715,1.176,4.221c0,3.028-1.717,5.616-4.185,6.322l-20.634-1.214
					c-1.67-0.589-3.186-1.805-4.272-3.429c-0.134-0.201-0.406-0.254-0.604-0.12c-0.2,0.133-0.254,0.404-0.12,0.604
					c1.204,1.799,2.897,3.145,4.768,3.788c0.037,0.013,0.077,0.021,0.116,0.023l20.767,1.222c0.008,0,0.017,0.001,0.025,0.001
					C194.205,187.395,194.243,187.39,194.281,187.38z"/>
			</g>
			<g>
				<path style="fill-rule:evenodd;clip-rule:evenodd;fill:#D4D4D4;stroke:#263238;stroke-miterlimit:10;" d="M277.139,278.564
					l-109.638,3.201c-5.223,0.152-9.493-3.897-9.493-9.046v0c0-5.149,4.27-9.378,9.493-9.444l109.638-1.393
					c4.214-0.053,7.604,3.61,7.604,8.182l0,0C284.743,274.636,281.353,278.441,277.139,278.564z"/>
				<g>
					<path style="fill:#263238;" d="M276.497,271.689L276.497,271.689c-0.586,0.013-1.061-0.551-1.061-1.26v-4.072
						c0-0.709,0.476-1.292,1.061-1.301l0,0c0.585-0.009,1.059,0.557,1.059,1.265v4.064
						C277.556,271.091,277.082,271.676,276.497,271.689z"/>
					<g>
						<g>
							<path style="fill:#263238;" d="M276.505,272.612c-1.035,0.024-1.878-0.976-1.878-2.229v-1.912
								c0-0.13,0.087-0.237,0.195-0.239c0.107-0.002,0.195,0.102,0.195,0.231v1.912c0,0.994,0.669,1.787,1.489,1.768
								c0.819-0.019,1.485-0.84,1.485-1.831v-1.906c0-0.129,0.087-0.236,0.193-0.238c0.107-0.002,0.193,0.101,0.193,0.231v1.905
								C278.377,271.552,277.538,272.588,276.505,272.612z"/>
						</g>
						<g>
							<path style="fill:#263238;" d="M276.505,275.052c-0.107,0.003-0.194-0.1-0.194-0.23v-2.441c0-0.13,0.087-0.237,0.194-0.239
								c0.107-0.003,0.194,0.101,0.194,0.23v2.44C276.699,274.943,276.612,275.05,276.505,275.052z"/>
						</g>
						<g>
							<path style="fill:#263238;" d="M277.796,275.144l-2.586,0.067c-0.107,0.003-0.195-0.1-0.195-0.23
								c0-0.13,0.087-0.237,0.195-0.24l2.586-0.066c0.107-0.003,0.193,0.1,0.193,0.229
								C277.99,275.034,277.903,275.142,277.796,275.144z"/>
						</g>
					</g>
				</g>
				<path style="fill:#FFFFFF;" d="M170.438,272.008c0-1.737-1.287-3.122-2.878-3.093c-1.596,0.028-2.893,1.466-2.893,3.212
					s1.297,3.13,2.893,3.093C169.151,275.183,170.438,273.745,170.438,272.008z"/>
			</g>
			<g>
				<path style="fill:none;stroke:#FFFFFF;stroke-linecap:round;stroke-linejoin:round;stroke-miterlimit:10;" d="M192.994,401.151
					c0-1.957-1.375-3.351-3.077-3.113c-1.707,0.239-3.095,2.03-3.095,3.998c0,1.969,1.388,3.361,3.095,3.11
					C191.619,404.897,192.994,403.109,192.994,401.151z"/>
				<polygon style="fill:none;stroke:#FFFFFF;stroke-linecap:round;stroke-linejoin:round;stroke-miterlimit:10;" points="
					156.595,405.579 163.471,409.03 163.471,400.163 				"/>
				<polygon style="fill:none;stroke:#FFFFFF;stroke-linecap:round;stroke-linejoin:round;stroke-miterlimit:10;" points="
					220.955,400.589 215.433,401.4 215.433,394.848 220.955,394.072 				"/>
			</g>
			<g>
				<g>
					<path style="fill:#FFFFFF;" d="M220.111,120.794v0.989c0,4.013-1.677,7.024-4.74,7.907c3.215,1.464,4.74,4.773,4.74,8.787
						v3.141c0,5.933-2.237,10.092-7.717,9.594c-5.536-0.503-7.83-5.138-7.83-11.157v-2.36l2.293,0.236v2.473
						c0,4.475,1.506,7.972,5.485,8.343c3.95,0.368,5.43-2.758,5.43-7.422v-3.148c0-4.256-1.838-6.906-5.326-7.465l-2.425-0.267
						v-2.466l2.528,0.284c3.232,0.129,5.224-2.328,5.224-6.234v-1.457c0-4.663-1.48-8.116-5.43-8.619
						c-3.979-0.507-5.485,2.599-5.485,7.075v1.649l-2.293-0.272v-1.475c0-6.019,2.293-10.147,7.83-9.429
						C217.874,110.209,220.111,114.862,220.111,120.794z"/>
					<path style="fill:#FFFFFF;" d="M226.665,128.576c1.202-2.058,3.049-2.767,5.634-2.466c4.788,0.557,6.701,5.008,6.701,10.551
						v6.856c0,5.771-2.208,9.913-7.495,9.432c-5.291-0.481-7.553-5.091-7.553-10.945v-2.202l2.212,0.227v2.314
						c0,4.337,1.503,7.774,5.291,8.128c3.811,0.355,5.288-2.771,5.288-7.065v-6.757c0-4.295-1.477-7.727-5.288-8.161
						c-2.539-0.29-4.289,1.129-4.99,4.056v0.694l-2.16-0.236l0.906-21.551l13.055,1.69v2.459l-10.949-1.391L226.665,128.576z"/>
				</g>
				<path style="fill-rule:evenodd;clip-rule:evenodd;fill:none;stroke:#FFFFFF;stroke-miterlimit:10;" d="M246.216,116.27
					c0,1.619-1.118,2.792-2.501,2.62c-1.386-0.173-2.512-1.632-2.512-3.258c0-1.627,1.126-2.799,2.512-2.618
					C245.098,113.193,246.216,114.651,246.216,116.27z"/>
				<g>
					<path style="fill:none;stroke:#FFFFFF;stroke-linecap:round;stroke-linejoin:round;stroke-miterlimit:10;" d="M216.807,164.326
						c-0.483,0.887-0.833,1.887-1.018,2.968c-0.362-0.082-0.73-0.142-1.105-0.17c-4.625-0.353-8.403,3.65-8.403,8.943
						c0,1.67,0.378,3.265,1.041,4.673"/>
					<path style="fill:none;stroke:#FFFFFF;stroke-linecap:round;stroke-linejoin:round;stroke-miterlimit:10;" d="M235.418,174.12
						c-1.012-0.935-2.256-1.546-3.606-1.676c0.139-0.678,0.215-1.389,0.215-2.127c0-5.167-3.626-9.658-8.133-10.034
						c-2.586-0.216-4.904,0.969-6.421,3.002"/>
					<path style="fill:none;stroke:#FFFFFF;stroke-linecap:round;stroke-linejoin:round;stroke-miterlimit:10;" d="M208.1,182.119
						c1.136,1.699,2.727,2.992,4.548,3.618l20.766,1.222c2.645-0.716,4.574-3.418,4.574-6.761c0-1.635-0.461-3.176-1.24-4.448"/>
				</g>
			</g>
			<g>
				<g>
					<path style="fill-rule:evenodd;clip-rule:evenodd;fill:#999999;stroke:#263238;stroke-miterlimit:10;" d="M219.906,385.721
						l-18.087,2.345c-2.312,0.3-4.194-1.384-4.194-3.762V362.25c0-2.378,1.882-4.496,4.194-4.73l18.087-1.83
						c2.225-0.225,4.023,1.474,4.023,3.794v21.516C223.929,383.319,222.132,385.433,219.906,385.721z"/>
					<path style="fill-rule:evenodd;clip-rule:evenodd;fill:#FFFFFF;" d="M210.875,361.758c-4.717,0.5-8.571,4.683-8.571,9.34
						c0,2.783,1.386,5.079,3.507,6.357l-0.388,3.952l3.498-2.914c0.629,0.069,1.281,0.074,1.954-0.008
						c4.676-0.569,8.436-4.742,8.436-9.324C219.311,364.578,215.551,361.262,210.875,361.758z"/>
				</g>
				<g>
					<g>
						<path style="fill-rule:evenodd;clip-rule:evenodd;fill:#999999;stroke:#263238;stroke-miterlimit:10;" d="M181.646,390.682
							l-19.436,2.52c-2.486,0.322-4.51-1.414-4.51-3.881v-22.873c0-2.466,2.024-4.67,4.51-4.922l19.436-1.966
							c2.39-0.242,4.319,1.512,4.319,3.915v22.293C185.965,388.173,184.036,390.372,181.646,390.682z"/>
					</g>
					<g>
						<path style="fill-rule:evenodd;clip-rule:evenodd;fill:#FFFFFF;" d="M176.453,370.864c0,3.547-1.983,6.653-4.438,6.94
							c-2.467,0.288-4.475-2.376-4.475-5.951c0-3.575,2.008-6.685,4.475-6.944C174.47,364.65,176.453,367.317,176.453,370.864z"/>
						<path style="fill-rule:evenodd;clip-rule:evenodd;fill:#FFFFFF;" d="M171.565,388.159c3.434-0.433,6.508-2.43,8.659-5.267
							c-1.831-2.256-4.803-3.517-8.184-3.116c-3.667,0.435-6.896,2.715-8.725,5.788C165.483,387.545,168.386,388.56,171.565,388.159
							z"/>
					</g>
				</g>
				<path style="fill-rule:evenodd;clip-rule:evenodd;fill:#999999;stroke:#263238;stroke-miterlimit:10;" d="M259.333,366.156
					c0-7.999-5.403-13.937-12.148-13.255c-6.835,0.691-12.442,7.9-12.442,16.092s5.608,14.107,12.442,13.221
					C253.93,381.34,259.333,374.155,259.333,366.156z"/>
				<path style="fill-rule:evenodd;clip-rule:evenodd;fill:#FFFFFF;" d="M251.558,367.053c0-2.879-1.953-4.998-4.373-4.731
					c-2.431,0.268-4.41,2.841-4.41,5.745c0,2.904,1.979,5.02,4.41,4.727C249.605,372.502,251.558,369.932,251.558,367.053z"/>
			</g>
		</g>
	</g>
</g>
<g id="Character">
	<g>
		<ellipse style="opacity:0.2;" cx="344.1" cy="456.525" rx="49.941" ry="11.373"/>
		<g>
			<g>
				<path style="fill:#FFFFFF;stroke:#263238;stroke-miterlimit:10;" d="M337.951,438.505c0,0-2.398,4.796-7.194,8.392
					c-4.796,3.597-5.995,6.594-5.995,9.192c0,2.598,2.997,4.596,6.994,4.596c3.996,0,8.592-0.799,10.99-3.597
					c2.398-2.797,2.598-4.196,5.795-6.994c3.197-2.798,4.996-0.999,4.996-6.594s-13.987-5.395-13.987-5.395L337.951,438.505z"/>
				<path style="fill:#263238;stroke:#263238;stroke-miterlimit:10;" d="M343.049,452.34c-1.688,3.135-4.582,6.753-11.093,6.029
					c-3.982-0.442-6.064-2.236-7.086-3.564c-0.072,0.439-0.107,0.867-0.107,1.284c0,2.598,2.997,4.596,6.994,4.596
					c3.996,0,8.592-0.799,10.99-3.597c2.398-2.797,2.598-4.196,5.795-6.994c3.197-2.798,4.996-0.999,4.996-6.594
					c0-0.062-0.011-0.119-0.014-0.18c-0.909,0.732-2.061,1.589-3.48,2.507C345.943,448.481,344.737,449.204,343.049,452.34z"/>
			</g>
			<g>
				<path style="fill:#FFFFFF;stroke:#263238;stroke-miterlimit:10;" d="M365.527,443.301c0,0,0.045,0.278,0.118,0.75
					c0.302,1.961,1.081,7.263,1.081,9.84c0,3.197-0.999,7.993,4.196,10.99c5.195,2.997,10.191,0.799,12.589-0.799
					c2.398-1.599,4.196-4.196,2.798-7.593c-1.399-3.397-4.596-13.388-4.596-14.787C381.712,440.303,367.125,441.902,365.527,443.301
					z"/>
				<path style="fill:#263238;stroke:#263238;stroke-miterlimit:10;" d="M384.706,452.081c0.039,0.736,0.065,1.474,0.065,2.188
					c0,4.582,1.688,7.235-5.306,8.682c-6.994,1.447-9.888-0.965-11.094-3.859c-0.598-1.436-1.196-3.523-1.647-5.264
					c0,0.02,0.001,0.043,0.001,0.063c0,3.197-0.999,7.993,4.196,10.99c5.195,2.997,10.191,0.799,12.589-0.799
					c2.398-1.599,4.196-4.196,2.798-7.593C385.89,455.474,385.311,453.869,384.706,452.081z"/>
			</g>
			<g>
				<g>
					<path style="fill:#263238;stroke:#263238;stroke-miterlimit:10;" d="M326.695,304.292c0,0-2.664,28.508-0.533,43.428
						c2.132,14.92,5.595,27.975,5.595,27.975s0.533,19.449,3.464,30.373c2.931,10.924,2.131,21.048,2.131,22.913
						s0.266,4.796,0.266,4.796s1.332-0.533,6.394,0c5.062,0.533,12.522,5.595,12.522,5.595s1.598-7.46,1.066-10.124
						c-0.533-2.664-2.131-5.062-2.131-7.993s1.066-21.048,0.533-26.11c-0.533-5.062-1.599-14.92-1.599-16.518
						c0-1.599-1.599-20.782-1.599-23.979c0-3.197,1.599-17.051,1.599-17.051h2.398c0,0,0.266,19.716,1.332,27.176
						c1.066,7.46,0.799,16.518,1.599,19.183c0.799,2.664,1.332,9.325,1.332,9.325s-0.267,7.46,0.533,14.654
						c0.799,7.193,1.332,16.518,1.599,17.318c0.266,0.799-1.599,2.931-1.599,4.796c0,1.865,3.197,7.993,3.197,7.993
						s6.927-3.197,11.19-3.197c4.263,0,6.661,1.332,6.661,1.332s2.398-4.263,3.197-6.394c0.799-2.132-2.131-7.726-2.131-7.726
						s2.398-19.716,2.398-23.979c0-4.263-1.332-10.657-1.332-15.986c0-5.329-1.599-11.989-1.865-14.387
						c-0.266-2.398-0.266-6.394-0.266-7.194c0-0.799,1.332-21.847,1.865-29.307c0.533-7.46-0.799-26.643-0.799-26.643v-2.398
						l-56.749-3.197L326.695,304.292z"/>
					<path style="fill:#878787;stroke:#263238;stroke-miterlimit:10;" d="M378.409,371.459c0,0-1.511,0.189-2.644,0.755
						c-1.133,0.567-0.567,0.567-3.022,0.567s-3.777,0-4.344,0c-0.567,0-2.455,0-3.211,0.378c-0.755,0.378-3.21,0.378-3.21,0.378
						s-1.322,0.378-1.322-1.322c0-1.7-1.322-0.944,0-1.7c1.322-0.755,2.455-1.322,2.455-1.322s0.378-0.567,1.322-0.567
						c0.944,0,2.266-0.189,2.266-0.189l3.588-0.756l2.455,0.944l0.944,0.944c0,0,0.378,0.189,1.133,0.189
						c0.755,0,2.644,0.755,2.644,0.755L378.409,371.459z"/>
					<path style="fill:none;stroke:#949494;stroke-miterlimit:10;" d="M351.206,312.551l-0.533,6.128c0,0-3.197,2.664-2.398,4.263
						s4.529,3.996,4.529,3.996"/>
					<path style="fill:none;stroke:#949494;stroke-miterlimit:10;" d="M345.611,317.613c0,0,13.854,1.332,18.384,0"/>
					<path style="fill:#878787;stroke:#263238;stroke-miterlimit:10;" d="M374.254,374.858h-1.133c0,0-0.566,0-1.322,0
						c-0.755,0-2.455,0.189-2.455,0.189h-2.077c0,0-0.378,0-0.944,0s-1.322,0-1.322,0l-1.7,0.189l-1.133,0.755l0.378,1.511
						c0,0,1.322-0.189,1.889-0.189c0.566,0,1.889,0.378,1.889,0.378s-0.378,0.755,0.567,0.944c0.944,0.189,3.966,1.322,3.966,1.322
						c1.511-0.378,2.455-0.944,2.455-0.944s0.189,0.755,1.322,0c1.133-0.756,0.944-1.133,1.7-1.133c0.755,0,0.755-0.566,1.322-0.944
						c0.567-0.378,1.133,0.755,0.944-1.133c-0.189-1.889-0.944-2.077-0.944-2.077L374.254,374.858z"/>
					<path style="fill:#878787;stroke:#263238;stroke-miterlimit:10;" d="M345.171,374.669c0,0-0.378-0.189-1.133,0
						c-0.755,0.189-3.966,0.567-5.099,0.567c-1.133,0-3.399,0-3.399,0h-1.133c0,0,0.944,1.7,1.7,1.7s4.344,0.189,5.477-0.189
						c1.133-0.378,1.7-0.566,2.644-0.755c0.944-0.189,2.644-0.567,2.644-0.567s1.322,0.189,1.888-0.378
						C349.326,374.481,346.304,374.669,345.171,374.669z"/>
					<path style="fill:#878787;stroke:#263238;stroke-miterlimit:10;" d="M350.27,377.125c-1.874-0.234-3.588,0-4.344,0
						s-2.077,0.378-3.211,0c-1.133-0.378-5.288,2.455-4.344,2.455c0.944,0,0.944-0.189,1.889,0c0.944,0.189,0.567,0.189,2.833,0.189
						s2.644,0,5.099,0.189c2.455,0.189,3.588,0.189,3.588,0.189S353.292,377.502,350.27,377.125z"/>
				</g>
			</g>
			<g>
				<path style="fill:#878787;stroke:#263238;stroke-miterlimit:10;" d="M332.926,307.615c0,0,11.849,2.135,18.681,2.455
					c6.832,0.32,17.827,0.747,26.367-0.107l-0.427-4.91l-43.767-2.775L332.926,307.615z"/>
				
					<rect x="349.579" y="305.48" transform="matrix(0.9979 0.0641 -0.0641 0.9979 20.462 -22.0214)" style="fill:#FFFFFF;stroke:#263238;stroke-miterlimit:10;" width="7.579" height="4.697"/>
			</g>
			<path style="fill:#FFFFFF;stroke:#263238;stroke-miterlimit:10;" d="M360.265,215.305c0,0-22.114,6.661-22.913,6.927
				c-0.799,0.266-8.259,80.728-8.259,80.728s6.128,1.865,24.778,3.197c18.65,1.332,27.708-0.799,27.708-0.799l0.267-85.257
				C381.845,220.1,369.59,215.038,360.265,215.305z"/>
			<g>
				<path style="fill:#FFFFFF;stroke:#263238;stroke-miterlimit:10;" d="M334.688,319.745l-0.799,3.996c0,0-6.661,0-14.121-4.796
					c-7.46-4.796-7.46-4.796-7.46-4.796l1.332-6.128c0,0,10.924,5.861,13.588,6.927
					C329.892,316.014,334.688,319.745,334.688,319.745z"/>
				<path style="fill:#92E3A9;stroke:#263238;stroke-miterlimit:10;" d="M344.812,252.338l-10.124,67.406
					c0,0-5.328-1.332-11.989-3.73c-6.661-2.398-10.124-5.329-10.124-7.726c0-2.398,7.726-27.709,7.726-27.709
					s-12.522-13.854-11.989-16.519c0.533-2.664,13.321-29.041,14.92-32.238s2.398-9.325,8.526-11.456
					c6.128-2.132,21.314-3.197,21.314-3.197L344.812,252.338z"/>
				<path style="fill:#FFFFFF;stroke:#263238;stroke-miterlimit:10;" d="M373.053,317.879l0.267,8.259
					c0,0,15.719-1.066,20.781-2.398c5.062-1.332,9.325-2.664,9.591-3.464c0.266-0.799-0.799-6.128-0.799-6.128
					S377.05,317.613,373.053,317.879z"/>
				<path style="fill:#92E3A9;stroke:#263238;stroke-miterlimit:10;" d="M375.717,241.415l-3.73,24.778c0,0,0,36.501,0.533,42.362
					c0.533,5.861,0,10.657,1.332,11.989c1.332,1.332,26.909-4.263,28.508-4.796c1.599-0.533,2.398-3.197,2.131-5.328
					s-2.931-32.504-2.931-32.504s16.785-2.398,16.785-6.394c0-3.996-11.19-26.643-11.989-32.238
					c-0.799-5.595-2.131-14.92-4.529-15.719c-2.398-0.799-24.778-3.73-24.778-3.73L375.717,241.415z"/>
				<line style="fill:none;stroke:#263238;stroke-miterlimit:10;" x1="330.825" y1="245.313" x2="331.757" y2="242.214"/>
				<line style="fill:none;stroke:#263238;stroke-miterlimit:10;" x1="321.1" y1="277.649" x2="330.04" y2="247.923"/>
			</g>
			<line style="fill:none;stroke:#263238;stroke-miterlimit:10;" x1="391.84" y1="257.172" x2="398.098" y2="278.448"/>
			<line style="fill:none;stroke:#263238;stroke-miterlimit:10;" x1="388.772" y1="246.743" x2="391.245" y2="255.149"/>
			<path style="fill:#FFFFFF;stroke:#263238;stroke-miterlimit:10;" d="M353.337,221.699l-9.325,36.501
				c0,0-4.796-23.979-2.664-30.906c2.131-6.927,9.858-14.92,14.387-16.518c4.529-1.599,17.318-2.664,23.979,3.464
				c6.661,6.128,4.796,17.851,1.599,25.577c-3.197,7.726-8.792,21.314-8.792,21.314s1.599-39.964,1.599-41.03
				c0-1.066-6.128-5.329-10.923-5.329C358.4,214.772,353.337,221.699,353.337,221.699z"/>
			<g>
				<path style="fill:#FFFFFF;stroke:#263238;stroke-miterlimit:10;" d="M357.534,205.713c0,0-1.599,10.391-2.598,12.988
					c-0.999,2.598-3.397,6.994,2.997,9.192c6.394,2.198,13.188-2.798,14.987-5.795c1.798-2.997,1.399-17.185,1.399-17.185
					S368.524,210.509,357.534,205.713z"/>
				<path style="fill:#263238;stroke:#263238;stroke-miterlimit:10;" d="M374.319,204.914c0,0-5.795,5.595-16.785,0.799
					c0,0-0.16,1.041-0.411,2.545l0.151,0.243c0,0,0.386,5.338,4.719,7.122c3.527,1.452,9.25-4.865,12.357-8.777
					C374.34,205.663,374.319,204.914,374.319,204.914z"/>
			</g>
			<g>
				<path style="fill:#263238;stroke:#263238;stroke-miterlimit:10;" d="M354.324,180.372c0,0-1.186-5.831-2.185-8.429
					c-0.999-2.598,1.199-5.195,2.398-5.595c1.199-0.4,1.998-0.4,1.998-0.4s-1.998-4.196,2.198-7.793
					c4.196-3.597,10.59-4.596,9.991-2.798c-0.599,1.798-0.599,1.798-0.599,1.798s8.792-2.198,9.791,0.2
					c0.999,2.398-1.998,3.397-1.998,3.397s7.793-0.999,12.988,4.596c5.195,5.595,0.599,17.584-0.999,19.782
					c-1.599,2.198-3.597,6.394-3.597,6.394s-1.998,1.798-3.797,0.6c-1.798-1.199-2.198-11.989-5.995-15.786
					s-11.989-5.395-13.987-2.997c-1.998,2.398-1.998,7.393-3.397,7.993C355.735,181.934,354.324,180.372,354.324,180.372z"/>
				<g>
					<path style="fill:#FFFFFF;stroke:#263238;stroke-linecap:round;stroke-miterlimit:10;" d="M356.881,171.914
						c0,0-1.574,5.508-2.557,8.458c-0.984,2.951-2.164,10.032-1.377,14.163c0.787,4.131,2.557,11.605,4.327,13.966
						c1.77,2.36,6.295,4.131,10.032,2.557c3.737-1.574,11.999-8.458,12.589-10.229c0.59-1.77,1.18-3.344,1.18-3.344
						s4.918-1.574,5.704-3.147c0.787-1.574,2.557-4.327,0.197-5.901c-2.361-1.574-4.328,0.787-4.328,0.787s-0.787,0.787-1.377-2.164
						c-0.59-2.951-0.787-3.737-0.787-5.311c0-1.574-1.77-2.951-1.77-4.327c0-1.377,0.983-4.131,1.18-4.721
						c0.197-0.59-6.885-4.131-13.966-4.524S356.881,170.537,356.881,171.914z"/>
					<path style="fill:none;stroke:#263238;stroke-linecap:round;stroke-miterlimit:10;" d="M361.995,191.978
						c0,0-0.393,2.754,3.344,2.754"/>
					<path style="fill:none;stroke:#263238;stroke-linecap:round;stroke-miterlimit:10;" d="M358.454,196.502
						c0,0,5.901,3.344,12.589,0.984"/>
					<path style="fill:none;stroke:#263238;stroke-linecap:round;stroke-miterlimit:10;" d="M363.569,178.995
						c0,0-4.721-1.18-6.885,0.59"/>
					<path style="fill:none;stroke:#263238;stroke-linecap:round;stroke-miterlimit:10;" d="M369.667,179.782
						c0,0,5.311-0.787,8.262,2.361"/>
					<path style="fill:#263238;" d="M360.618,183.716c0,0.869-0.396,1.574-0.885,1.574c-0.489,0-0.885-0.704-0.885-1.574
						c0-0.869,0.396-1.574,0.885-1.574C360.222,182.143,360.618,182.847,360.618,183.716z"/>
					<path style="fill:#263238;" d="M372.814,186.077c0,0.869-0.396,1.574-0.885,1.574c-0.489,0-0.885-0.705-0.885-1.574
						c0-0.869,0.396-1.574,0.885-1.574C372.417,184.503,372.814,185.208,372.814,186.077z"/>
					<path style="fill:none;stroke:#263238;stroke-linecap:round;stroke-miterlimit:10;" d="M364.552,182.929
						c0,0-0.983,3.934-1.77,5.114c-0.787,1.18-5.108,0.279-7.665-0.311c-2.557-0.59-1.457-5.281-1.211-5.946
						C355.007,178.813,364.504,182.336,364.552,182.929z"/>
					<path style="fill:none;stroke:#263238;stroke-linecap:round;stroke-miterlimit:10;" d="M367.835,183.378
						c0,0-0.18,4.051,0.237,5.407s4.816,1.725,7.435,1.89c2.619,0.164,2.904-4.645,2.858-5.353
						C378.158,182.158,368.05,182.823,367.835,183.378z"/>
					<path style="fill:none;stroke:#263238;stroke-linecap:round;stroke-miterlimit:10;" d="M364.552,182.929
						c0,0,1.906-0.162,3.283,0.449"/>
					<path style="fill:none;stroke:#263238;stroke-linecap:round;stroke-miterlimit:10;" d="M364.146,184.099
						c0,0,1.872-0.551,3.524,0.441"/>
					
						<line style="fill:none;stroke:#263238;stroke-linecap:round;stroke-miterlimit:10;" x1="378.365" y1="185.322" x2="383.195" y2="188.724"/>
				</g>
			</g>
			<g>
				<path style="fill:#92E3A9;stroke:#263238;stroke-miterlimit:10;" d="M400.495,273.386c0,0-6.394,12.256-7.727,13.588
					c-1.332,1.332-2.131,2.931-2.131,2.931l7.46,13.055c0,0,11.723-9.591,17.051-14.121c5.329-4.529,6.661-10.124,5.861-13.055
					c-0.799-2.931-5.062-10.124-5.062-10.124"/>
				<path style="fill:#FFFFFF;stroke:#263238;stroke-miterlimit:10;" d="M392.769,286.974c0,0,6.394,8.526,9.059,12.256
					c2.664,3.73,3.197,3.996,1.066,5.595s-5.329,3.197-6.128,3.73c-0.799,0.533-10.124-17.051-10.124-17.051L392.769,286.974z"/>
				<path style="fill:none;stroke:#263238;stroke-miterlimit:10;" d="M399.163,271.521c0,0,4.263-2.131,9.325-1.332"/>
				<path style="fill:none;stroke:#263238;stroke-miterlimit:10;" d="M403.16,272.32c0,0,2.664-1.599,8.526-0.266"/>
				<polygon style="fill:#FFFFFF;stroke:#263238;stroke-miterlimit:10;" points="386.108,289.638 395.167,308.288 391.97,310.686 
					382.645,290.704 				"/>
			</g>
			<g>
				<polygon style="fill:#FFFFFF;stroke:#263238;stroke-miterlimit:10;" points="314.705,295.5 318.435,301.894 324.83,292.569 
					320.833,287.773 				"/>
				<path style="fill:#92E3A9;stroke:#263238;stroke-miterlimit:10;" d="M311.508,265.393c0,0,5.861-0.267,9.059,4.796
					c3.197,5.062,1.332,13.854,1.332,13.854L310.443,295.5c0,0-5.595-2.398-7.194-15.186c-1.599-12.789,7.46-21.581,7.46-21.581"/>
				<path style="fill:#FFFFFF;stroke:#263238;stroke-miterlimit:10;" d="M323.764,284.31l-1.865-2.664c0,0-3.464,0-8.792,4.796
					c-5.328,4.796-5.595,11.19-5.595,11.19l5.329,3.73c0,0,2.931-6.661,6.394-9.591c3.464-2.931,5.595-4.263,5.595-4.263
					L323.764,284.31z"/>
				<polygon style="fill:#FFFFFF;stroke:#263238;stroke-miterlimit:10;" points="325.895,287.507 314.972,305.624 317.902,306.423 
					328.027,289.105 				"/>
			</g>
			<path style="fill:#878787;stroke:#263238;stroke-miterlimit:10;" d="M356.561,443.392c0,0,2.493-7.48,1.108-9.558
				c-1.385-2.078-9.558-3.879-13.852-4.156c-4.294-0.277-6.649-0.138-7.619,0.97c-0.97,1.108-0.554,5.68-0.554,6.926
				s0.277,2.078,1.939,2.078s6.649,0.831,9.835,2.493c3.186,1.662,5.68,2.493,6.649,2.493
				C355.037,444.638,356.561,443.392,356.561,443.392z"/>
			<path style="fill:#878787;stroke:#263238;stroke-miterlimit:10;" d="M360.855,434.408c0,0,3.879-1.524,9.004-2.77
				s10.805,0.693,12.606,1.662c1.801,0.97,3.463,0.693,3.463,2.493c0,1.801-0.277,5.125-1.385,6.511
				c-1.108,1.385-2.216,0.831-5.541,1.108c-3.325,0.277-9.697,1.247-11.636,1.801c-1.939,0.554-2.909-0.277-3.879-2.355
				c-0.97-2.078-1.524-4.294-1.801-4.987C361.409,437.179,360.855,436.348,360.855,434.408z"/>
		</g>
	</g>
</g>
</svg>
