<?xml version="1.0" encoding="utf-8"?>
<!-- Generator: Adobe Illustrator 27.5.0, SVG Export Plug-In . SVG Version: 6.00 Build 0)  -->
<svg version="1.1" xmlns="http://www.w3.org/2000/svg" xmlns:xlink="http://www.w3.org/1999/xlink" x="0px" y="0px"
	 viewBox="0 0 500 500" style="enable-background:new 0 0 500 500;" xml:space="preserve">
<g id="Background_Simple">
	<g>
		<path style="fill:#92E3A9;" d="M438.556,430.126c5.05-3.246,9.626-7.097,13.479-11.761c28.634-34.66,28.335-83.563,26.366-125.704
			c-2.324-49.743-11.125-99.506-36.564-143.382c-24.52-42.291-61.466-78.214-107.713-97.426c-12.76-5.301-26.085-9.29-39.697-11.9
			c-25.141-4.82-51.236-3.811-75.756,3.55c-9.358,2.81-18.485,6.329-27.385,10.299C130.45,80.947,121.999,136.88,98.34,192.814
			c-16.747,39.592-56.136,65.466-72.842,105.115C6.789,342.333,36.772,390.854,75.03,414.682
			c8.755,5.453,18.131,9.951,27.851,13.527c90.915,33.456,193.46,43.718,288.095,19.367
			C406.901,443.478,424.55,439.129,438.556,430.126z"/>
		<path style="opacity:0.7;fill:#FFFFFF;" d="M438.556,430.126c5.05-3.246,9.626-7.097,13.479-11.761
			c28.634-34.66,28.335-83.563,26.366-125.704c-2.324-49.743-11.125-99.506-36.564-143.382
			c-24.52-42.291-61.466-78.214-107.713-97.426c-12.76-5.301-26.085-9.29-39.697-11.9c-25.141-4.82-51.236-3.811-75.756,3.55
			c-9.358,2.81-18.485,6.329-27.385,10.299C130.45,80.947,121.999,136.88,98.34,192.814
			c-16.747,39.592-56.136,65.466-72.842,105.115C6.789,342.333,36.772,390.854,75.03,414.682
			c8.755,5.453,18.131,9.951,27.851,13.527c90.915,33.456,193.46,43.718,288.095,19.367
			C406.901,443.478,424.55,439.129,438.556,430.126z"/>
	</g>
</g>
<g id="Graphics">
	<g>
		<path style="opacity:0.3;fill:none;stroke:#000000;stroke-linecap:round;stroke-linejoin:round;stroke-miterlimit:10;" d="
			M72.919,405.684l2.613-7.273l-6.045-3.296l-4.699,6.136c-1.366-0.316-2.747-0.466-4.12-0.445l-3.293-6.986l-6.605,1.944
			l1.016,7.656c-1.165,0.726-2.245,1.6-3.222,2.606l-7.273-2.613l-3.296,6.045l6.136,4.699c-0.316,1.366-0.466,2.747-0.445,4.12
			l-6.986,3.293l1.944,6.605l7.656-1.015c0.726,1.165,1.6,2.245,2.606,3.222l-2.613,7.273l6.045,3.296l4.699-6.136
			c1.366,0.316,2.747,0.466,4.12,0.445l3.293,6.986l6.605-1.944l-1.015-7.656c1.165-0.726,2.245-1.6,3.222-2.606l7.273,2.613
			l3.296-6.045l-6.136-4.699c0.316-1.366,0.466-2.747,0.445-4.12l6.986-3.293l-1.943-6.605l-7.656,1.015
			c-0.178-0.286-0.366-0.568-0.562-0.843 M52.733,425.223c-2.933-3.336-3.63-8.277-1.38-12.403c2.878-5.279,9.491-7.224,14.77-4.346
			c5.279,2.878,7.224,9.491,4.346,14.77c-2.597,4.763-8.235,6.813-13.19,5.052"/>
		<path style="opacity:0.3;fill:none;stroke:#000000;stroke-linecap:round;stroke-linejoin:round;stroke-miterlimit:10;" d="
			M49.379,388.015l4.045,2.206l3.145-4.106c0.914,0.212,1.838,0.312,2.757,0.298l2.204,4.675l4.42-1.301l-0.679-5.123
			c0.78-0.486,1.502-1.071,2.156-1.744l4.867,1.749l2.206-4.045l-4.106-3.145c0.212-0.914,0.312-1.839,0.298-2.757l4.675-2.204
			l-1.301-4.42l-5.123,0.68c-0.486-0.78-1.071-1.502-1.744-2.156l1.749-4.867l-4.045-2.206l-3.144,4.106
			c-0.914-0.212-1.839-0.312-2.757-0.298l-2.203-4.675l-4.42,1.301l0.679,5.123c-0.78,0.486-1.502,1.071-2.156,1.744l-4.867-1.749
			l-2.206,4.045l4.106,3.145c-0.211,0.914-0.312,1.839-0.298,2.757l-4.675,2.204l1.301,4.42l5.123-0.68
			c0.486,0.78,1.071,1.503,1.744,2.156L49.379,388.015z M61.284,381.855c-1.805,0.549-3.821,0.401-5.608-0.574
			c-3.533-1.926-4.835-6.352-2.908-9.884c1.926-3.533,6.351-4.835,9.884-2.908c3.533,1.926,4.835,6.352,2.908,9.884
			c-0.209,0.383-0.447,0.74-0.71,1.069"/>
	</g>
	<g>
		<path style="opacity:0.3;fill:none;stroke:#000000;stroke-linecap:round;stroke-linejoin:round;stroke-miterlimit:10;" d="
			M321.194,124.943l2.613-7.273l-6.045-3.296l-4.699,6.136c-1.366-0.316-2.747-0.466-4.12-0.445l-3.293-6.986l-6.605,1.944
			l1.015,7.656c-1.165,0.726-2.245,1.6-3.222,2.606l-7.273-2.613l-3.296,6.045l6.136,4.699c-0.316,1.366-0.466,2.747-0.445,4.12
			l-6.986,3.293l1.944,6.605l7.656-1.015c0.726,1.165,1.6,2.245,2.606,3.222l-2.613,7.273l6.045,3.296l4.699-6.136
			c1.366,0.316,2.747,0.466,4.12,0.445l3.293,6.986l6.605-1.944l-1.015-7.656c1.165-0.726,2.245-1.6,3.222-2.606l7.273,2.613
			l3.296-6.045l-6.136-4.699c0.316-1.366,0.466-2.747,0.445-4.12l6.986-3.293l-1.944-6.605l-7.656,1.015
			c-0.178-0.286-0.366-0.568-0.562-0.843 M301.009,144.482c-2.933-3.336-3.63-8.277-1.38-12.403
			c2.878-5.279,9.491-7.224,14.77-4.346c5.279,2.878,7.224,9.491,4.346,14.77c-2.597,4.763-8.235,6.813-13.19,5.053"/>
		<path style="opacity:0.3;fill:none;stroke:#000000;stroke-linecap:round;stroke-linejoin:round;stroke-miterlimit:10;" d="
			M297.654,107.275l4.045,2.206l3.145-4.106c0.914,0.212,1.839,0.312,2.757,0.298l2.204,4.675l4.42-1.301l-0.679-5.123
			c0.78-0.486,1.502-1.071,2.156-1.744l4.867,1.749l2.206-4.045l-4.106-3.145c0.212-0.914,0.312-1.838,0.298-2.757l4.675-2.204
			l-1.301-4.42l-5.123,0.68c-0.486-0.78-1.071-1.502-1.744-2.156l1.749-4.867l-4.045-2.206l-3.144,4.106
			c-0.914-0.212-1.839-0.312-2.757-0.298l-2.203-4.675l-4.42,1.301l0.68,5.123c-0.78,0.486-1.503,1.071-2.156,1.744l-4.867-1.749
			l-2.206,4.045l4.106,3.145c-0.211,0.914-0.312,1.839-0.298,2.757l-4.675,2.204l1.301,4.42l5.123-0.68
			c0.486,0.78,1.071,1.503,1.744,2.156L297.654,107.275z M309.559,101.114c-1.805,0.549-3.821,0.401-5.608-0.574
			c-3.533-1.926-4.835-6.351-2.909-9.884c1.926-3.532,6.351-4.835,9.884-2.908c3.533,1.926,4.835,6.351,2.908,9.884
			c-0.209,0.383-0.447,0.74-0.71,1.069"/>
	</g>
	<g style="opacity:0.3;">
		
			<circle style="fill:none;stroke:#000000;stroke-linecap:round;stroke-linejoin:round;stroke-miterlimit:10;" cx="380.807" cy="115.308" r="3.82"/>
		
			<circle style="fill:none;stroke:#000000;stroke-linecap:round;stroke-linejoin:round;stroke-miterlimit:10;" cx="45.612" cy="180.246" r="3.82"/>
		
			<circle style="fill:none;stroke:#000000;stroke-linecap:round;stroke-linejoin:round;stroke-miterlimit:10;" cx="333.059" cy="377.925" r="3.82"/>
		
			<circle style="fill:none;stroke:#000000;stroke-linecap:round;stroke-linejoin:round;stroke-miterlimit:10;" cx="52.297" cy="346.411" r="3.82"/>
		<g>
			
				<line style="fill:none;stroke:#000000;stroke-linecap:round;stroke-linejoin:round;stroke-miterlimit:10;" x1="311.326" y1="181.924" x2="303.223" y2="190.027"/>
			
				<line style="fill:none;stroke:#000000;stroke-linecap:round;stroke-linejoin:round;stroke-miterlimit:10;" x1="311.326" y1="190.027" x2="303.223" y2="181.924"/>
		</g>
		<g>
			
				<line style="fill:none;stroke:#000000;stroke-linecap:round;stroke-linejoin:round;stroke-miterlimit:10;" x1="282.214" y1="414.937" x2="290.317" y2="423.04"/>
			
				<line style="fill:none;stroke:#000000;stroke-linecap:round;stroke-linejoin:round;stroke-miterlimit:10;" x1="290.317" y1="414.937" x2="282.214" y2="423.04"/>
		</g>
		<g>
			
				<line style="fill:none;stroke:#000000;stroke-linecap:round;stroke-linejoin:round;stroke-miterlimit:10;" x1="27.236" y1="232.538" x2="35.339" y2="240.641"/>
			
				<line style="fill:none;stroke:#000000;stroke-linecap:round;stroke-linejoin:round;stroke-miterlimit:10;" x1="35.339" y1="232.538" x2="27.236" y2="240.641"/>
		</g>
		<g>
			
				<line style="fill:none;stroke:#000000;stroke-linecap:round;stroke-linejoin:round;stroke-miterlimit:10;" x1="326.142" y1="43.453" x2="334.246" y2="51.556"/>
			
				<line style="fill:none;stroke:#000000;stroke-linecap:round;stroke-linejoin:round;stroke-miterlimit:10;" x1="334.246" y1="43.453" x2="326.142" y2="51.556"/>
		</g>
		<g>
			
				<line style="fill:none;stroke:#000000;stroke-linecap:round;stroke-linejoin:round;stroke-miterlimit:10;" x1="129.418" y1="50.138" x2="137.521" y2="58.241"/>
			
				<line style="fill:none;stroke:#000000;stroke-linecap:round;stroke-linejoin:round;stroke-miterlimit:10;" x1="137.521" y1="50.138" x2="129.418" y2="58.241"/>
		</g>
	</g>
</g>
<g id="Floor">
	
		<line style="fill:none;stroke:#263238;stroke-linecap:round;stroke-linejoin:round;stroke-miterlimit:10;" x1="31.184" y1="453.073" x2="469.382" y2="453.073"/>
</g>
<g id="Device">
	<g>
		<path style="fill:#FFFFFF;" d="M70.695,104.866V427.05c0,11.322,9.178,20.5,20.5,20.5H237.5c11.322,0,20.5-9.178,20.5-20.5
			V104.866c0-11.322-9.178-20.5-20.5-20.5H91.195C79.873,84.366,70.695,93.544,70.695,104.866z"/>
		<g>
			<path style="fill:#D6D6D6;" d="M258,103.943c0-4.687-1.651-8.986-4.398-12.357c-9.367,4.539-22.761,14.176-40.111,34.359
				c-37.295,43.384-48.711,148.418-92.856,194.085c-18.899,19.551-36.26,31.564-49.94,38.915v69.029
				c0,10.812,8.765,19.577,19.577,19.577h137.317c0.899-1.113,1.783-2.263,2.647-3.459c10.305-14.268,19.78-26.237,27.765-35.791
				V103.943z"/>
			<path style="fill:#D6D6D6;" d="M70.695,103.943v83.763c15.244-6.802,33.688-19.727,46.895-44.255
				c13.382-24.852,30.604-45.092,44.432-59.085H90.272C79.46,84.366,70.695,93.131,70.695,103.943z"/>
		</g>
		<g>
			<g>
				<g>
					<path style="fill:#263238;" d="M85.167,92.225c0,2.221-2.494,3.021-2.504,4.715v0.116h2.42v0.747h-3.23v-0.632
						c0-2.378,2.494-2.841,2.494-4.915c0-0.757-0.253-1.157-0.863-1.157c-0.6,0-0.863,0.431-0.863,1.083v0.653h-0.768v-0.6
						c0-1.126,0.516-1.874,1.652-1.874C84.652,90.362,85.167,91.099,85.167,92.225z"/>
					<path style="fill:#263238;" d="M89.199,92.215v0.189c0,0.758-0.305,1.295-0.894,1.516c0.62,0.232,0.894,0.789,0.894,1.526
						v0.568c0,1.126-0.526,1.863-1.663,1.863c-1.126,0-1.652-0.737-1.652-1.863v-0.505h0.768v0.558c0,0.663,0.274,1.063,0.863,1.063
						c0.6,0,0.863-0.389,0.863-1.136v-0.568c0-0.726-0.305-1.073-0.927-1.094H87.01v-0.737h0.484
						c0.547-0.021,0.885-0.368,0.885-1.01v-0.337c0-0.757-0.263-1.147-0.863-1.147c-0.589,0-0.863,0.41-0.863,1.073v0.379h-0.768
						v-0.337c0-1.126,0.526-1.853,1.652-1.853C88.673,90.362,89.199,91.089,89.199,92.215z"/>
					<path style="fill:#263238;" d="M90.79,92.772v1.021H90v-1.021H90.79z M90.79,96.782v1.021H90v-1.021H90.79z"/>
					<path style="fill:#263238;" d="M92.453,93.436c0.232-0.4,0.6-0.61,1.095-0.61c0.947,0,1.368,0.694,1.368,1.747v1.442
						c0,1.126-0.536,1.863-1.662,1.863c-1.127,0-1.653-0.737-1.653-1.863v-0.495h0.768v0.547c0,0.663,0.274,1.063,0.863,1.063
						c0.589,0,0.863-0.4,0.863-1.063v-1.431c0-0.663-0.274-1.063-0.863-1.063c-0.452,0-0.758,0.253-0.831,0.79v0.168h-0.768
						l0.2-4.094h2.904v0.737h-2.168L92.453,93.436z"/>
					<path style="fill:#263238;" d="M99.01,92.204v0.137h-0.768v-0.189c0-0.663-0.274-1.052-0.873-1.052
						c-0.621,0-0.895,0.4-0.895,1.189v1.652c0.2-0.505,0.6-0.789,1.189-0.789c0.947,0,1.368,0.684,1.368,1.747v1.116
						c0,1.126-0.559,1.863-1.684,1.863c-1.137,0-1.695-0.737-1.695-1.863v-3.757c0-1.168,0.527-1.894,1.695-1.894
						C98.484,90.362,99.01,91.078,99.01,92.204z M96.474,94.962v1.105c0,0.663,0.274,1.063,0.873,1.063
						c0.589,0,0.873-0.4,0.873-1.063v-1.105c0-0.663-0.284-1.063-0.873-1.063C96.748,93.899,96.474,94.298,96.474,94.962z"/>
				</g>
				<g>
					<rect x="211.929" y="92.528" style="fill:#263238;" width="2.08" height="5.2"/>
					<rect x="214.702" y="91.486" style="fill:#263238;" width="2.08" height="6.242"/>
					<rect x="217.476" y="90.747" style="fill:#263238;" width="2.08" height="6.982"/>
					<rect x="220.249" y="89.46" style="fill:#263238;" width="2.08" height="8.268"/>
					<g>
						<g>
							<path style="fill:#263238;" d="M248.069,97.585h-12.48v-7.627h12.48V97.585z M236.283,96.892h11.094v-6.24h-11.094V96.892z"
								/>
						</g>
						<g>
							<rect x="237.323" y="91.407" style="fill:#263238;" width="6.587" height="4.731"/>
						</g>
						<g>
							<rect x="247.636" y="92.874" style="fill:#263238;" width="1.569" height="1.797"/>
						</g>
					</g>
					<g>
						<path style="fill:#263238;" d="M231.013,95.926c-0.081,0-0.164-0.021-0.239-0.065c-2.54-1.509-4.218-0.108-4.289-0.049
							c-0.194,0.168-0.488,0.147-0.656-0.046c-0.168-0.194-0.15-0.485,0.043-0.655c0.09-0.079,2.237-1.918,5.379-0.051
							c0.221,0.131,0.294,0.418,0.162,0.639C231.326,95.845,231.172,95.926,231.013,95.926z"/>
					</g>
					<g>
						<path style="fill:#263238;" d="M231.953,94.359c-0.081,0-0.164-0.021-0.238-0.066c-3.672-2.184-6.14-0.071-6.166-0.051
							c-0.193,0.171-0.487,0.151-0.657-0.042c-0.17-0.193-0.152-0.488,0.042-0.657c0.03-0.027,3.007-2.577,7.258-0.051
							c0.221,0.131,0.294,0.418,0.162,0.639C232.266,94.279,232.111,94.359,231.953,94.359z"/>
					</g>
					<g>
						<path style="fill:#263238;" d="M232.806,92.545c-0.081,0-0.164-0.021-0.238-0.065c-4.651-2.766-7.743-0.162-7.872-0.049
							c-0.194,0.169-0.489,0.148-0.657-0.045c-0.169-0.193-0.15-0.486,0.043-0.656c0.036-0.033,3.71-3.175,8.964-0.051
							c0.221,0.131,0.294,0.418,0.162,0.639C233.119,92.464,232.964,92.545,232.806,92.545z"/>
					</g>
					<g>
						<path style="fill:#263238;" d="M229.61,96.707c0,0.646-0.523,1.169-1.169,1.169c-0.646,0-1.169-0.524-1.169-1.169
							c0-0.646,0.523-1.169,1.169-1.169C229.087,95.538,229.61,96.062,229.61,96.707z"/>
					</g>
				</g>
			</g>
		</g>
		<path style="fill:#263238;" d="M263.036,97.282v11.155h3.469v31.702h-3.469v7.205h3.469v31.702h-3.469v7.205h3.469v31.702h-3.469
			v216.681c0,11.401-9.243,20.644-20.644,20.644H86.304c-11.401,0-20.644-9.243-20.644-20.644V165.501h-2.477v-31.702h2.477V97.282
			c0-11.401,9.243-20.644,20.644-20.644h156.088C253.793,76.638,263.036,85.881,263.036,97.282z M209.062,84.366l-6.092,9.066
			c-1.828,2.72-4.89,4.352-8.168,4.352h-60.907c-3.278,0-6.34-1.632-8.168-4.352l-6.092-9.066H91.339
			c-11.401,0-20.644,9.243-20.644,20.644v321.897c0,11.401,9.243,20.644,20.644,20.644h146.018c11.401,0,20.644-9.243,20.644-20.644
			V105.01c0-11.401-9.243-20.644-20.644-20.644H209.062z"/>
	</g>
</g>
<g id="Cables">
	<g>
		<g>
			<path style="fill:none;stroke:#263238;stroke-linecap:round;stroke-linejoin:round;stroke-miterlimit:10;" d="M241.798,185.976
				h1.433c2.901,0,5.252,2.352,5.252,5.252v100.345c0,16.31,13.222,29.531,29.531,29.531l0,0c16.31,0,29.531-13.222,29.531-29.531
				v-36.839"/>
			
				<line style="fill:none;stroke:#263238;stroke-width:3;stroke-linecap:round;stroke-linejoin:round;stroke-miterlimit:10;" x1="237.424" y1="185.976" x2="241.798" y2="185.976"/>
		</g>
		<g>
			<path style="fill:none;stroke:#263238;stroke-linecap:round;stroke-linejoin:round;stroke-miterlimit:10;" d="M133.057,247.505
				c1.696,0,3.07,1.374,3.07,3.07v41.1c0,46.444,37.65,84.094,84.094,84.094h0c44.143,0,79.928-35.785,79.928-79.928v-40.88"/>
			
				<line style="fill:none;stroke:#263238;stroke-width:3;stroke-linecap:round;stroke-linejoin:round;stroke-miterlimit:10;" x1="128.233" y1="247.505" x2="133.057" y2="247.505"/>
		</g>
		<g>
			<path style="fill:none;stroke:#263238;stroke-linecap:round;stroke-linejoin:round;stroke-miterlimit:10;" d="M244.364,312.008
				c2.933,0,5.311,2.378,5.311,5.311v48.033c0,18.238,14.785,33.022,33.022,33.022l0,0c18.238,0,33.022-14.785,33.022-33.022
				V256.124"/>
			
				<line style="fill:none;stroke:#263238;stroke-width:3;stroke-linecap:round;stroke-linejoin:round;stroke-miterlimit:10;" x1="238.13" y1="312.008" x2="244.364" y2="312.008"/>
		</g>
	</g>
</g>
<g id="Apps">
	<g>
		<g>
			<path style="fill:#92E3A9;stroke:#263238;stroke-linecap:round;stroke-linejoin:round;stroke-miterlimit:10;" d="M232.68,207.423
				h-32.916c-2.836,0-5.135-2.299-5.135-5.135v-32.916c0-2.836,2.299-5.135,5.135-5.135h32.916c2.836,0,5.135,2.299,5.135,5.135
				v32.916C237.816,205.124,235.517,207.423,232.68,207.423z"/>
			<g>
				<path style="fill:#FFFFFF;stroke:#263238;stroke-linecap:round;stroke-linejoin:round;stroke-miterlimit:10;" d="
					M230.149,184.877v-3.272l-3.302-0.552c-0.276-1.367-0.813-2.638-1.552-3.765l1.962-2.751l-2.313-2.313l-2.745,1.959
					c-1.118-0.737-2.379-1.276-3.736-1.556l-0.561-3.356h-3.271l-0.561,3.356c-1.344,0.278-2.593,0.81-3.703,1.536l-2.804-2
					l-2.313,2.313l1.996,2.799c-0.724,1.101-1.254,2.341-1.537,3.673l-3.413,0.571v3.272l3.391,0.567
					c0.271,1.335,0.795,2.577,1.51,3.684l-2.01,2.817l2.313,2.313l2.786-1.987c1.104,0.736,2.352,1.272,3.691,1.561l0.565,3.379
					h3.271l0.559-3.34c1.359-0.269,2.622-0.796,3.745-1.523l2.764,1.972l2.313-2.313l-1.949-2.733
					c0.749-1.121,1.293-2.39,1.581-3.754L230.149,184.877z M216.266,191.218c-4.429,0-8.02-3.591-8.02-8.02s3.591-8.02,8.02-8.02
					c4.429,0,8.02,3.591,8.02,8.02S220.695,191.218,216.266,191.218z"/>
			</g>
			
				<rect x="202.212" y="200.488" style="fill:#FFFFFF;stroke:#263238;stroke-linecap:round;stroke-linejoin:round;stroke-miterlimit:10;" width="26.972" height="2.211"/>
			
				<rect x="202.212" y="200.488" style="fill:#263238;stroke:#263238;stroke-linecap:round;stroke-linejoin:round;stroke-miterlimit:10;" width="13.486" height="2.211"/>
		</g>
		<g>
			<path style="fill:#FFFFFF;stroke:#263238;stroke-linecap:round;stroke-linejoin:round;stroke-miterlimit:10;" d="M177.466,207.28
				h-32.282c-2.961,0-5.362-2.401-5.362-5.362v-32.282c0-2.961,2.401-5.362,5.362-5.362h32.282c2.961,0,5.362,2.401,5.362,5.362
				v32.282C182.828,204.88,180.427,207.28,177.466,207.28z"/>
			
				<ellipse transform="matrix(0.9736 -0.2283 0.2283 0.9736 -38.1529 41.7372)" style="fill:#263238;stroke:#263238;stroke-linecap:round;stroke-linejoin:round;stroke-miterlimit:10;" cx="161.325" cy="185.777" rx="14.821" ry="14.821"/>
			<polyline style="fill:none;stroke:#FFFFFF;stroke-linecap:round;stroke-linejoin:round;stroke-miterlimit:10;" points="
				156.653,191.845 161.324,185.777 161.324,174.917 			"/>
		</g>
		<g>
			<path style="fill:#FFFFFF;stroke:#263238;stroke-linecap:round;stroke-linejoin:round;stroke-miterlimit:10;" d="M122.568,207.28
				H90.285c-2.961,0-5.362-2.401-5.362-5.362v-32.282c0-2.961,2.401-5.362,5.362-5.362h32.282c2.961,0,5.362,2.401,5.362,5.362
				v32.282C127.93,204.88,125.529,207.28,122.568,207.28z"/>
			<polyline style="fill:none;stroke:#FFFFFF;stroke-linecap:round;stroke-linejoin:round;stroke-miterlimit:10;" points="
				101.755,191.845 106.427,185.777 106.427,174.917 			"/>
			<polygon style="fill:#263238;stroke:#263238;stroke-linecap:round;stroke-linejoin:round;stroke-miterlimit:10;" points="
				118.468,184.805 98.937,173.529 98.937,196.081 			"/>
		</g>
		<g>
			<path style="fill:#FFFFFF;stroke:#263238;stroke-linecap:round;stroke-linejoin:round;stroke-miterlimit:10;" d="M232.68,270.645
				h-32.916c-2.836,0-5.135-2.299-5.135-5.135v-32.916c0-2.836,2.299-5.135,5.135-5.135h32.916c2.836,0,5.135,2.299,5.135,5.135
				v32.916C237.816,268.345,235.517,270.645,232.68,270.645z"/>
			<path style="fill:#263238;stroke:#263238;stroke-linecap:round;stroke-linejoin:round;stroke-miterlimit:10;" d="
				M215.595,236.237c-7.679,0-13.905,4.98-13.905,11.124c0,3.971,2.61,7.447,6.524,9.415l-2.352,5.88l7.434-4.336
				c0.75,0.1,1.515,0.165,2.3,0.165c7.68,0,13.905-4.98,13.905-11.124C229.5,241.217,223.275,236.237,215.595,236.237z"/>
		</g>
		<g>
			<path style="fill:#92E3A9;stroke:#263238;stroke-linecap:round;stroke-linejoin:round;stroke-miterlimit:10;" d="M232.68,333.866
				h-32.916c-2.836,0-5.135-2.299-5.135-5.135v-32.916c0-2.836,2.299-5.135,5.135-5.135h32.916c2.836,0,5.135,2.299,5.135,5.135
				v32.916C237.816,331.567,235.517,333.866,232.68,333.866z"/>
			<g>
				<path style="fill:#FFFFFF;stroke:#263238;stroke-linecap:round;stroke-linejoin:round;stroke-miterlimit:10;" d="
					M230.149,311.321v-3.272l-3.302-0.552c-0.276-1.367-0.813-2.638-1.552-3.765l1.962-2.751l-2.313-2.313l-2.745,1.959
					c-1.118-0.737-2.379-1.276-3.736-1.556l-0.561-3.356h-3.271l-0.561,3.356c-1.344,0.278-2.593,0.81-3.703,1.536l-2.804-2
					l-2.313,2.313l1.996,2.799c-0.724,1.101-1.254,2.341-1.537,3.673l-3.413,0.571v3.272l3.391,0.567
					c0.271,1.335,0.795,2.577,1.51,3.684l-2.01,2.817l2.313,2.313l2.786-1.987c1.104,0.736,2.352,1.272,3.691,1.561l0.565,3.379
					h3.271l0.559-3.34c1.359-0.269,2.622-0.797,3.745-1.523l2.764,1.972l2.313-2.313l-1.949-2.733
					c0.749-1.121,1.293-2.39,1.581-3.754L230.149,311.321z M216.266,317.661c-4.429,0-8.02-3.591-8.02-8.02
					c0-4.429,3.591-8.02,8.02-8.02c4.429,0,8.02,3.591,8.02,8.02C224.286,314.071,220.695,317.661,216.266,317.661z"/>
			</g>
			
				<rect x="202.212" y="326.931" style="fill:#FFFFFF;stroke:#263238;stroke-linecap:round;stroke-linejoin:round;stroke-miterlimit:10;" width="26.972" height="2.211"/>
			
				<rect x="202.212" y="326.931" style="fill:#263238;stroke:#263238;stroke-linecap:round;stroke-linejoin:round;stroke-miterlimit:10;" width="4.462" height="2.211"/>
		</g>
		<g>
			<path style="fill:#92E3A9;stroke:#263238;stroke-linecap:round;stroke-linejoin:round;stroke-miterlimit:10;" d="
				M122.568,270.502H90.285c-2.961,0-5.362-2.401-5.362-5.362v-32.282c0-2.961,2.401-5.362,5.362-5.362h32.282
				c2.961,0,5.362,2.401,5.362,5.362v32.282C127.93,268.101,125.529,270.502,122.568,270.502z"/>
			<g>
				<path style="fill:#FFFFFF;stroke:#263238;stroke-linecap:round;stroke-linejoin:round;stroke-miterlimit:10;" d="
					M120.666,248.099v-3.271l-3.302-0.552c-0.276-1.367-0.813-2.638-1.552-3.765l1.962-2.751l-2.313-2.313l-2.746,1.958
					c-1.118-0.737-2.379-1.276-3.736-1.556l-0.562-3.356h-3.271l-0.561,3.356c-1.343,0.278-2.592,0.81-3.703,1.536l-2.804-2
					l-2.313,2.313l1.997,2.799c-0.725,1.101-1.254,2.341-1.537,3.673l-3.413,0.571v3.271l3.391,0.567
					c0.271,1.335,0.795,2.577,1.51,3.684l-2.009,2.817l2.313,2.313l2.786-1.987c1.104,0.736,2.352,1.272,3.691,1.561l0.565,3.379
					h3.272l0.559-3.34c1.359-0.269,2.622-0.797,3.745-1.523l2.764,1.972l2.313-2.313l-1.949-2.733
					c0.749-1.121,1.293-2.39,1.581-3.754L120.666,248.099z M106.783,254.44c-4.429,0-8.02-3.591-8.02-8.02s3.591-8.02,8.02-8.02
					c4.429,0,8.02,3.591,8.02,8.02S111.212,254.44,106.783,254.44z"/>
			</g>
			<g>
				
					<rect x="92.729" y="263.709" style="fill:#FFFFFF;stroke:#263238;stroke-linecap:round;stroke-linejoin:round;stroke-miterlimit:10;" width="26.972" height="2.211"/>
				
					<rect x="92.729" y="263.709" style="fill:#263238;stroke:#263238;stroke-linecap:round;stroke-linejoin:round;stroke-miterlimit:10;" width="24.376" height="2.211"/>
			</g>
		</g>
		<g>
			<g>
				<path style="fill:#FFFFFF;stroke:#263238;stroke-linecap:round;stroke-linejoin:round;stroke-miterlimit:10;" d="
					M122.568,333.724H90.285c-2.961,0-5.362-2.401-5.362-5.362v-32.282c0-2.961,2.401-5.362,5.362-5.362h32.282
					c2.961,0,5.362,2.401,5.362,5.362v32.282C127.93,331.323,125.529,333.724,122.568,333.724z"/>
				<polyline style="fill:none;stroke:#FFFFFF;stroke-linecap:round;stroke-linejoin:round;stroke-miterlimit:10;" points="
					101.755,318.289 106.427,312.221 106.427,301.361 				"/>
			</g>
			<g>
				
					<rect x="91.933" y="302.921" style="fill:#263238;stroke:#263238;stroke-linecap:round;stroke-linejoin:round;stroke-miterlimit:10;" width="28.987" height="18.6"/>
				<polyline style="fill:none;stroke:#FFFFFF;stroke-linecap:round;stroke-linejoin:round;stroke-miterlimit:10;" points="
					91.933,302.921 106.185,314.999 120.716,303.088 				"/>
				
					<line style="fill:none;stroke:#FFFFFF;stroke-linecap:round;stroke-linejoin:round;stroke-miterlimit:10;" x1="91.933" y1="321.521" x2="102.32" y2="312.1"/>
				
					<line style="fill:none;stroke:#FFFFFF;stroke-linecap:round;stroke-linejoin:round;stroke-miterlimit:10;" x1="120.92" y1="321.521" x2="110.05" y2="312.1"/>
			</g>
		</g>
	</g>
</g>
<g id="Plant">
	<g>
		<g>
			
				<line style="fill:none;stroke:#263238;stroke-width:2;stroke-miterlimit:10;" x1="426.005" y1="307.809" x2="437.463" y2="417.597"/>
			<g>
				<g>
					
						<line style="fill:none;stroke:#263238;stroke-width:2;stroke-miterlimit:10;" x1="435.616" y1="396.586" x2="430.422" y2="391.1"/>
					<path style="fill:#92E3A9;stroke:#263238;stroke-miterlimit:10;" d="M432,392.744c0,0,0.149-2.427-2.067-4.406
						c-1.333-1.191-8.35-4.143-9.016-1.671C420.193,389.355,427.375,394.633,432,392.744z"/>
					
						<line style="fill:none;stroke:#263238;stroke-width:0.5;stroke-miterlimit:10;" x1="432" y1="392.744" x2="425.32" y2="388.581"/>
				</g>
				<g>
					
						<line style="fill:none;stroke:#263238;stroke-width:2;stroke-miterlimit:10;" x1="436.919" y1="409.072" x2="431.725" y2="403.586"/>
					<path style="fill:#92E3A9;stroke:#263238;stroke-miterlimit:10;" d="M433.303,405.23c0,0,0.149-2.427-2.067-4.406
						c-1.333-1.191-8.35-4.143-9.016-1.671C421.496,401.841,428.678,407.119,433.303,405.23z"/>
					
						<line style="fill:none;stroke:#263238;stroke-width:0.5;stroke-miterlimit:10;" x1="433.303" y1="405.23" x2="426.623" y2="401.067"/>
				</g>
				<g>
					
						<line style="fill:none;stroke:#263238;stroke-width:2;stroke-miterlimit:10;" x1="432.437" y1="366.118" x2="427.242" y2="360.632"/>
					<path style="fill:#92E3A9;stroke:#263238;stroke-miterlimit:10;" d="M428.82,362.276c0,0,0.149-2.427-2.067-4.406
						c-1.333-1.191-8.35-4.143-9.016-1.671C417.013,358.886,424.195,364.165,428.82,362.276z"/>
					
						<line style="fill:none;stroke:#263238;stroke-width:0.5;stroke-miterlimit:10;" x1="428.82" y1="362.276" x2="422.141" y2="358.113"/>
				</g>
				<g>
					
						<line style="fill:none;stroke:#263238;stroke-width:2;stroke-miterlimit:10;" x1="433.74" y1="378.604" x2="428.546" y2="373.118"/>
					<path style="fill:#92E3A9;stroke:#263238;stroke-miterlimit:10;" d="M430.124,374.762c0,0,0.149-2.427-2.067-4.406
						c-1.333-1.191-8.35-4.142-9.016-1.671C418.316,371.372,425.498,376.651,430.124,374.762z"/>
					
						<line style="fill:none;stroke:#263238;stroke-width:0.5;stroke-miterlimit:10;" x1="430.124" y1="374.762" x2="423.444" y2="370.599"/>
				</g>
				<g>
					
						<line style="fill:none;stroke:#263238;stroke-width:2;stroke-miterlimit:10;" x1="430.32" y1="345.835" x2="425.126" y2="340.349"/>
					<path style="fill:#92E3A9;stroke:#263238;stroke-miterlimit:10;" d="M426.704,341.993c0,0,0.149-2.427-2.067-4.406
						c-1.333-1.191-8.35-4.143-9.016-1.671C414.896,338.603,422.078,343.882,426.704,341.993z"/>
					
						<line style="fill:none;stroke:#263238;stroke-width:0.5;stroke-miterlimit:10;" x1="426.704" y1="341.993" x2="420.024" y2="337.83"/>
				</g>
				<g>
					
						<line style="fill:none;stroke:#263238;stroke-width:2;stroke-miterlimit:10;" x1="428.194" y1="325.464" x2="423" y2="319.978"/>
					<path style="fill:#92E3A9;stroke:#263238;stroke-miterlimit:10;" d="M424.578,321.621c0,0,0.149-2.427-2.067-4.406
						c-1.333-1.191-8.35-4.143-9.016-1.672C412.77,318.232,419.952,323.511,424.578,321.621z"/>
					
						<line style="fill:none;stroke:#263238;stroke-width:0.5;stroke-miterlimit:10;" x1="424.578" y1="321.621" x2="417.898" y2="317.459"/>
				</g>
				<g>
					
						<line style="fill:none;stroke:#263238;stroke-width:2;stroke-miterlimit:10;" x1="434.743" y1="389.199" x2="438.693" y2="382.758"/>
					<path style="fill:#92E3A9;stroke:#263238;stroke-miterlimit:10;" d="M437.488,384.692c0,0-0.646-2.344,1.113-4.738
						c1.059-1.44,7.315-5.777,8.477-3.497C448.341,378.938,442.404,385.586,437.488,384.692z"/>
					
						<line style="fill:none;stroke:#263238;stroke-width:0.5;stroke-miterlimit:10;" x1="437.488" y1="384.692" x2="443.503" y2="378.943"/>
				</g>
				<g>
					
						<line style="fill:none;stroke:#263238;stroke-width:2;stroke-miterlimit:10;" x1="431.314" y1="356.341" x2="435.264" y2="349.901"/>
					<path style="fill:#92E3A9;stroke:#263238;stroke-miterlimit:10;" d="M434.059,351.835c0,0-0.646-2.344,1.113-4.738
						c1.059-1.44,7.315-5.777,8.477-3.497C444.912,346.081,438.975,352.729,434.059,351.835z"/>
					
						<line style="fill:none;stroke:#263238;stroke-width:0.5;stroke-miterlimit:10;" x1="434.059" y1="351.835" x2="440.074" y2="346.086"/>
				</g>
				<g>
					
						<line style="fill:none;stroke:#263238;stroke-width:2;stroke-miterlimit:10;" x1="429.807" y1="341.902" x2="433.757" y2="335.461"/>
					<path style="fill:#92E3A9;stroke:#263238;stroke-miterlimit:10;" d="M432.552,337.396c0,0-0.647-2.344,1.113-4.738
						c1.059-1.44,7.315-5.777,8.477-3.497C443.405,331.641,437.468,338.289,432.552,337.396z"/>
					
						<line style="fill:none;stroke:#263238;stroke-width:0.5;stroke-miterlimit:10;" x1="432.552" y1="337.396" x2="438.567" y2="331.646"/>
				</g>
				<g>
					
						<line style="fill:none;stroke:#263238;stroke-width:2;stroke-miterlimit:10;" x1="427.598" y1="320.733" x2="431.548" y2="314.293"/>
					<path style="fill:#92E3A9;stroke:#263238;stroke-miterlimit:10;" d="M430.343,316.227c0,0-0.646-2.344,1.113-4.738
						c1.059-1.44,7.315-5.777,8.477-3.497C441.196,310.473,435.259,317.121,430.343,316.227z"/>
					
						<line style="fill:none;stroke:#263238;stroke-width:0.5;stroke-miterlimit:10;" x1="430.343" y1="316.227" x2="436.358" y2="310.478"/>
					<path style="fill:#92E3A9;stroke:#263238;stroke-miterlimit:10;" d="M425.909,307.199c0,0-0.646-2.344,1.113-4.738
						c1.059-1.44,7.315-5.777,8.476-3.497C436.762,301.445,430.825,308.093,425.909,307.199z"/>
					
						<line style="fill:none;stroke:#263238;stroke-width:0.5;stroke-miterlimit:10;" x1="425.909" y1="307.199" x2="431.924" y2="301.45"/>
					<path style="fill:#92E3A9;stroke:#263238;stroke-miterlimit:10;" d="M426.257,307.447c0,0-2.399,0.397-4.595-1.604
						c-1.321-1.204-4.978-7.88-2.589-8.796C421.673,296.05,427.662,302.652,426.257,307.447z"/>
					
						<line style="fill:none;stroke:#263238;stroke-width:0.5;stroke-miterlimit:10;" x1="426.257" y1="307.447" x2="421.171" y2="300.862"/>
				</g>
			</g>
		</g>
		<g>
			
				<line style="fill:none;stroke:#263238;stroke-width:2;stroke-miterlimit:10;" x1="456.225" y1="322.928" x2="444.832" y2="432.723"/>
			<g>
				<g>
					
						<line style="fill:none;stroke:#263238;stroke-width:2;stroke-miterlimit:10;" x1="447.351" y1="411.783" x2="443.398" y2="405.345"/>
					<path style="fill:#92E3A9;stroke:#263238;stroke-miterlimit:10;" d="M444.604,407.278c0,0,0.645-2.344-1.116-4.737
						c-1.06-1.44-7.318-5.773-8.479-3.492C433.747,401.53,439.688,408.174,444.604,407.278z"/>
					
						<line style="fill:none;stroke:#263238;stroke-width:0.5;stroke-miterlimit:10;" x1="444.604" y1="407.278" x2="438.924" y2="401.829"/>
				</g>
				<g>
					
						<line style="fill:none;stroke:#263238;stroke-width:2;stroke-miterlimit:10;" x1="450.513" y1="381.312" x2="446.56" y2="374.874"/>
					<path style="fill:#92E3A9;stroke:#263238;stroke-miterlimit:10;" d="M447.766,376.808c0,0,0.645-2.344-1.116-4.737
						c-1.06-1.44-7.318-5.773-8.479-3.492C436.909,371.06,442.85,377.704,447.766,376.808z"/>
					
						<line style="fill:none;stroke:#263238;stroke-width:0.5;stroke-miterlimit:10;" x1="447.766" y1="376.808" x2="442.086" y2="371.359"/>
				</g>
				<g>
					
						<line style="fill:none;stroke:#263238;stroke-width:2;stroke-miterlimit:10;" x1="449.217" y1="393.799" x2="445.264" y2="387.361"/>
					<path style="fill:#92E3A9;stroke:#263238;stroke-miterlimit:10;" d="M446.47,389.295c0,0,0.645-2.344-1.116-4.737
						c-1.06-1.44-7.318-5.773-8.479-3.492C435.613,383.547,441.554,390.191,446.47,389.295z"/>
					
						<line style="fill:none;stroke:#263238;stroke-width:0.5;stroke-miterlimit:10;" x1="446.47" y1="389.295" x2="440.79" y2="383.846"/>
				</g>
				<g>
					
						<line style="fill:none;stroke:#263238;stroke-width:2;stroke-miterlimit:10;" x1="452.618" y1="361.028" x2="448.664" y2="354.59"/>
					<path style="fill:#92E3A9;stroke:#263238;stroke-miterlimit:10;" d="M449.87,356.524c0,0,0.645-2.344-1.116-4.737
						c-1.059-1.44-7.318-5.773-8.479-3.492C439.014,350.776,444.955,357.42,449.87,356.524z"/>
					
						<line style="fill:none;stroke:#263238;stroke-width:0.5;stroke-miterlimit:10;" x1="449.87" y1="356.524" x2="444.19" y2="351.075"/>
				</g>
				<g>
					
						<line style="fill:none;stroke:#263238;stroke-width:2;stroke-miterlimit:10;" x1="454.732" y1="340.656" x2="450.779" y2="334.218"/>
					<path style="fill:#92E3A9;stroke:#263238;stroke-miterlimit:10;" d="M451.984,336.151c0,0,0.645-2.344-1.116-4.737
						c-1.059-1.44-7.318-5.773-8.479-3.492C441.128,330.403,447.069,337.048,451.984,336.151z"/>
					
						<line style="fill:none;stroke:#263238;stroke-width:0.5;stroke-miterlimit:10;" x1="451.984" y1="336.151" x2="446.304" y2="330.702"/>
				</g>
				<g>
					
						<line style="fill:none;stroke:#263238;stroke-width:2;stroke-miterlimit:10;" x1="448.018" y1="404.374" x2="453.209" y2="398.884"/>
					<path style="fill:#92E3A9;stroke:#263238;stroke-miterlimit:10;" d="M451.632,400.529c0,0-0.15-2.427,2.065-4.407
						c1.333-1.191,8.347-4.147,9.015-1.677C463.437,397.133,456.258,402.416,451.632,400.529z"/>
					
						<line style="fill:none;stroke:#263238;stroke-width:0.5;stroke-miterlimit:10;" x1="451.632" y1="400.529" x2="458.702" y2="396.142"/>
				</g>
				<g>
					
						<line style="fill:none;stroke:#263238;stroke-width:2;stroke-miterlimit:10;" x1="451.428" y1="371.514" x2="456.619" y2="366.025"/>
					<path style="fill:#92E3A9;stroke:#263238;stroke-miterlimit:10;" d="M455.041,367.67c0,0-0.15-2.427,2.065-4.407
						c1.333-1.192,8.348-4.148,9.015-1.677C466.847,364.273,459.668,369.556,455.041,367.67z"/>
					
						<line style="fill:none;stroke:#263238;stroke-width:0.5;stroke-miterlimit:10;" x1="455.041" y1="367.67" x2="462.111" y2="363.282"/>
				</g>
				<g>
					
						<line style="fill:none;stroke:#263238;stroke-width:2;stroke-miterlimit:10;" x1="452.926" y1="357.074" x2="458.117" y2="351.585"/>
					<path style="fill:#92E3A9;stroke:#263238;stroke-miterlimit:10;" d="M456.54,353.229c0,0-0.15-2.427,2.065-4.407
						c1.332-1.191,8.348-4.148,9.015-1.677C468.345,349.833,461.166,355.116,456.54,353.229z"/>
					
						<line style="fill:none;stroke:#263238;stroke-width:0.5;stroke-miterlimit:10;" x1="456.54" y1="353.229" x2="463.61" y2="348.842"/>
				</g>
				<g>
					
						<line style="fill:none;stroke:#263238;stroke-width:2;stroke-miterlimit:10;" x1="455.123" y1="335.904" x2="460.314" y2="330.415"/>
					<path style="fill:#92E3A9;stroke:#263238;stroke-miterlimit:10;" d="M458.737,332.06c0,0-0.15-2.427,2.065-4.407
						c1.333-1.191,8.348-4.147,9.015-1.677C470.542,328.663,463.363,333.946,458.737,332.06z"/>
					
						<line style="fill:none;stroke:#263238;stroke-width:0.5;stroke-miterlimit:10;" x1="458.737" y1="332.06" x2="465.806" y2="327.672"/>
					<path style="fill:#92E3A9;stroke:#263238;stroke-miterlimit:10;" d="M456.257,322.312c0,0-0.15-2.427,2.065-4.407
						c1.332-1.191,8.348-4.147,9.015-1.676C468.062,318.916,460.883,324.199,456.257,322.312z"/>
					
						<line style="fill:none;stroke:#263238;stroke-width:0.5;stroke-miterlimit:10;" x1="456.257" y1="322.312" x2="463.326" y2="317.924"/>
					<path style="fill:#92E3A9;stroke:#263238;stroke-miterlimit:10;" d="M456.546,322.626c0,0-2.429-0.105-4.166-2.516
						c-1.045-1.45-3.249-8.737-0.722-9.141C454.407,310.53,458.908,318.223,456.546,322.626z"/>
					
						<line style="fill:none;stroke:#263238;stroke-width:0.5;stroke-miterlimit:10;" x1="456.546" y1="322.626" x2="452.925" y2="315.135"/>
				</g>
			</g>
		</g>
		
			<line style="fill:none;stroke:#263238;stroke-width:2;stroke-miterlimit:10;" x1="443.169" y1="278.22" x2="443.169" y2="417.062"/>
		<g>
			<g>
				
					<line style="fill:none;stroke:#263238;stroke-width:2;stroke-miterlimit:10;" x1="443.28" y1="396.186" x2="438.683" y2="390.191"/>
				<path style="fill:#92E3A9;stroke:#263238;stroke-miterlimit:10;" d="M440.082,391.989c0,0,0.4-2.398-1.599-4.597
					c-1.202-1.323-7.875-4.987-8.794-2.598C428.69,387.392,435.285,393.388,440.082,391.989z"/>
				
					<line style="fill:none;stroke:#263238;stroke-width:0.5;stroke-miterlimit:10;" x1="440.082" y1="391.989" x2="433.87" y2="387.156"/>
			</g>
			<g>
				
					<line style="fill:none;stroke:#263238;stroke-width:2;stroke-miterlimit:10;" x1="443.28" y1="370.094" x2="438.683" y2="364.098"/>
				<path style="fill:#92E3A9;stroke:#263238;stroke-miterlimit:10;" d="M440.082,365.897c0,0,0.4-2.398-1.599-4.597
					c-1.202-1.323-7.875-4.987-8.794-2.598C428.69,361.3,435.285,367.296,440.082,365.897z"/>
				
					<line style="fill:none;stroke:#263238;stroke-width:0.5;stroke-miterlimit:10;" x1="440.082" y1="365.897" x2="433.87" y2="361.063"/>
			</g>
			<g>
				
					<line style="fill:none;stroke:#263238;stroke-width:2;stroke-miterlimit:10;" x1="443.28" y1="339.46" x2="438.683" y2="333.465"/>
				<path style="fill:#92E3A9;stroke:#263238;stroke-miterlimit:10;" d="M440.082,335.263c0,0,0.4-2.398-1.599-4.597
					c-1.202-1.323-7.875-4.987-8.794-2.598C428.69,330.666,435.285,336.662,440.082,335.263z"/>
				
					<line style="fill:none;stroke:#263238;stroke-width:0.5;stroke-miterlimit:10;" x1="440.082" y1="335.263" x2="433.87" y2="330.43"/>
			</g>
			<g>
				
					<line style="fill:none;stroke:#263238;stroke-width:2;stroke-miterlimit:10;" x1="443.28" y1="319.067" x2="438.683" y2="313.072"/>
				<path style="fill:#92E3A9;stroke:#263238;stroke-miterlimit:10;" d="M440.082,314.87c0,0,0.4-2.398-1.599-4.597
					c-1.202-1.323-7.875-4.987-8.794-2.598C428.69,310.274,435.285,316.269,440.082,314.87z"/>
				
					<line style="fill:none;stroke:#263238;stroke-width:0.5;stroke-miterlimit:10;" x1="440.082" y1="314.87" x2="433.87" y2="310.037"/>
			</g>
			<g>
				
					<line style="fill:none;stroke:#263238;stroke-width:2;stroke-miterlimit:10;" x1="443.28" y1="298.585" x2="438.683" y2="292.59"/>
				<path style="fill:#92E3A9;stroke:#263238;stroke-miterlimit:10;" d="M440.082,294.388c0,0,0.4-2.398-1.599-4.597
					c-1.202-1.323-7.875-4.987-8.794-2.598C428.69,289.792,435.285,295.787,440.082,294.388z"/>
				
					<line style="fill:none;stroke:#263238;stroke-width:0.5;stroke-miterlimit:10;" x1="440.082" y1="294.388" x2="433.87" y2="289.555"/>
			</g>
			<g>
				
					<line style="fill:none;stroke:#263238;stroke-width:2;stroke-miterlimit:10;" x1="443.178" y1="404.154" x2="447.775" y2="398.158"/>
				<path style="fill:#92E3A9;stroke:#263238;stroke-miterlimit:10;" d="M446.376,399.957c0,0-0.4-2.398,1.599-4.597
					c1.202-1.323,7.875-4.987,8.794-2.598C457.768,395.36,451.173,401.356,446.376,399.957z"/>
				
					<line style="fill:none;stroke:#263238;stroke-width:0.5;stroke-miterlimit:10;" x1="446.376" y1="399.957" x2="452.955" y2="394.863"/>
			</g>
			<g>
				
					<line style="fill:none;stroke:#263238;stroke-width:2;stroke-miterlimit:10;" x1="443.178" y1="362.656" x2="447.775" y2="356.66"/>
				<path style="fill:#92E3A9;stroke:#263238;stroke-miterlimit:10;" d="M446.376,358.459c0,0-0.4-2.398,1.599-4.597
					c1.202-1.323,7.875-4.987,8.794-2.598C457.768,353.862,451.173,359.858,446.376,358.459z"/>
				
					<line style="fill:none;stroke:#263238;stroke-width:0.5;stroke-miterlimit:10;" x1="446.376" y1="358.459" x2="452.955" y2="353.365"/>
			</g>
			<g>
				
					<line style="fill:none;stroke:#263238;stroke-width:2;stroke-miterlimit:10;" x1="443.178" y1="342.174" x2="447.775" y2="336.178"/>
				<path style="fill:#92E3A9;stroke:#263238;stroke-miterlimit:10;" d="M446.376,337.977c0,0-0.4-2.398,1.599-4.597
					c1.202-1.323,7.875-4.987,8.794-2.598C457.768,333.38,451.173,339.376,446.376,337.977z"/>
				
					<line style="fill:none;stroke:#263238;stroke-width:0.5;stroke-miterlimit:10;" x1="446.376" y1="337.977" x2="452.955" y2="332.883"/>
			</g>
			<g>
				
					<line style="fill:none;stroke:#263238;stroke-width:2;stroke-miterlimit:10;" x1="443.178" y1="315.102" x2="447.775" y2="309.106"/>
				<path style="fill:#92E3A9;stroke:#263238;stroke-miterlimit:10;" d="M446.376,310.905c0,0-0.4-2.398,1.599-4.597
					c1.202-1.323,7.875-4.987,8.794-2.598C457.768,306.308,451.173,312.304,446.376,310.905z"/>
				
					<line style="fill:none;stroke:#263238;stroke-width:0.5;stroke-miterlimit:10;" x1="446.376" y1="310.905" x2="452.955" y2="305.811"/>
			</g>
			<g>
				
					<line style="fill:none;stroke:#263238;stroke-width:2;stroke-miterlimit:10;" x1="443.178" y1="293.819" x2="447.775" y2="287.823"/>
				<path style="fill:#92E3A9;stroke:#263238;stroke-miterlimit:10;" d="M446.376,289.621c0,0-0.4-2.398,1.599-4.597
					c1.202-1.323,7.875-4.987,8.794-2.598C457.768,285.025,451.173,291.021,446.376,289.621z"/>
				
					<line style="fill:none;stroke:#263238;stroke-width:0.5;stroke-miterlimit:10;" x1="446.376" y1="289.621" x2="452.955" y2="284.528"/>
				<path style="fill:#92E3A9;stroke:#263238;stroke-miterlimit:10;" d="M442.903,280.182c0,0-0.4-2.398,1.599-4.597
					c1.202-1.323,7.875-4.987,8.794-2.598C454.295,275.585,447.7,281.581,442.903,280.182z"/>
				
					<line style="fill:none;stroke:#263238;stroke-width:0.5;stroke-miterlimit:10;" x1="442.903" y1="280.182" x2="449.482" y2="275.088"/>
				<path style="fill:#92E3A9;stroke:#263238;stroke-miterlimit:10;" d="M443.224,280.465c0,0-2.427,0.146-4.404-2.072
					c-1.189-1.335-4.134-8.354-1.661-9.018C439.847,268.654,445.118,275.841,443.224,280.465z"/>
				
					<line style="fill:none;stroke:#263238;stroke-width:0.5;stroke-miterlimit:10;" x1="443.224" y1="280.465" x2="438.848" y2="273.388"/>
			</g>
		</g>
		<polygon style="fill:#263238;stroke:#263238;stroke-miterlimit:10;" points="448.881,453.073 434.177,453.073 432.339,415.937 
			450.719,415.937 		"/>
	</g>
</g>
<g id="Character">
	<g>
		<path style="fill:#263238;stroke:#263238;stroke-linecap:round;stroke-linejoin:round;stroke-miterlimit:10;" d="M413.353,183.284
			c-6.048-5.093-4.879-13.207-4.879-13.207s-24.725,22.438-25.998,29.759c-1.273,7.322,17.19,33.742,20.054,37.881
			c0.352,0.508,0.816,0.913,1.365,1.226c-0.775,1.906-1.314,4.111-1.288,6.889c0.076,8.115,9.248,5.24,12.947,2.774
			c3.699-2.466,2.774-6.782,2.774-6.782s-4.624,1.849-4.624-0.308c0-2.158,4.316-5.549,4.316-5.549l-0.107-0.075
			c0.902-0.697,1.737-1.465,2.444-2.313c4.775-5.73-3.183-12.096-4.775-15.598c-1.592-3.502,1.273-6.685,7.003-11.46
			S419.401,188.377,413.353,183.284z"/>
		<g>
			<g>
				<path style="fill:#FFFFFF;stroke:#263238;stroke-linecap:round;stroke-linejoin:round;stroke-miterlimit:10;" d="
					M322.671,232.57c0,0,0.239,4.536-0.239,8.356c-0.478,3.82,2.149,7.998,3.462,8.953c1.313,0.955,7.879,3.104,7.879,3.104
					l1.074-5.73l-0.955-2.387l1.313-8.714c0,0-0.955-2.746-2.149-4.656c-1.194-1.91-4.417-3.939-4.655-4.297
					c-0.239-0.358-4.178,0.478-4.536,0.478s-2.149,0.716-2.149,0.716L322.671,232.57z"/>
				<path style="fill:#FFFFFF;stroke:#263238;stroke-linecap:round;stroke-linejoin:round;stroke-miterlimit:10;" d="
					M320.64,226.739c0,0-2.05,0.168-2.301,0.982c-0.251,0.814,0.609,5.505,1.12,5.94c0.512,0.434,1.905,0.003,1.908-1.902
					C321.37,229.853,321.177,227.488,320.64,226.739z"/>
				<path style="fill:#FFFFFF;stroke:#263238;stroke-linecap:round;stroke-linejoin:round;stroke-miterlimit:10;" d="
					M322.967,226.179c0,0-2.235,0-2.579,0.86c-0.344,0.86,0.172,6.018,0.688,6.534c0.516,0.516,2.063,0.172,2.235-1.891
					C323.483,229.618,323.483,227.039,322.967,226.179z"/>
				<path style="fill:#FFFFFF;stroke:#263238;stroke-linecap:round;stroke-linejoin:round;stroke-miterlimit:10;" d="
					M325.349,225.313c0,0-2.52,0-2.908,0.969c-0.388,0.969,0.194,6.785,0.775,7.367c0.582,0.582,2.326,0.194,2.52-2.132
					C325.931,229.19,325.931,226.283,325.349,225.313z"/>
				<path style="fill:#FFFFFF;stroke:#263238;stroke-linecap:round;stroke-linejoin:round;stroke-miterlimit:10;" d="
					M327.636,225.327c0,0-2.52,0-2.908,0.969c-0.388,0.969,0.194,6.785,0.775,7.367c0.582,0.582,2.326,0.194,2.52-2.132
					C328.218,229.204,328.218,226.296,327.636,225.327z"/>
				<path style="fill:#FFFFFF;stroke:#263238;stroke-linecap:round;stroke-linejoin:round;stroke-miterlimit:10;" d="
					M334.033,242.967c0,0,0.969-5.04,1.163-7.754c0.194-2.714-2.908-6.01-3.683-6.979c-0.775-0.969-0.775-4.459-2.132-4.459
					s-1.745,1.551-1.745,1.551s-0.775,2.52,0.582,3.877s2.714,3.489,2.714,3.489s-4.071,7.754-4.071,9.887s3.877,4.653,3.877,4.653"
					/>
			</g>
			<polygon style="fill:#92E3A9;stroke:#263238;stroke-linecap:round;stroke-linejoin:round;stroke-miterlimit:10;" points="
				334.608,246.775 333.533,256.086 359.079,264.443 358.84,250.476 			"/>
		</g>
		<path style="fill:#92E3A9;stroke:#263238;stroke-linecap:round;stroke-linejoin:round;stroke-miterlimit:10;" d="M376.746,202.847
			c0,0-14.23,4.259-15.185,8.716c-0.955,4.456-3.915,18.023-3.915,18.023s-3.501,9.231-3.183,14.006
			c0.318,4.775,3.183,14.325,1.592,20.691c-1.592,6.367-7.003,25.466-8.276,31.832c-1.273,6.367-1.91,10.186-1.91,10.186
			l5.093,0.955l7.003,0.955c0,0,2.865-19.099,5.093-35.652c2.228-16.553-3.501-28.013,1.91-38.836s18.463-21.646,17.508-26.102
			C381.521,203.165,376.746,202.847,376.746,202.847z"/>
		<g>
			<path style="fill:#263238;stroke:#263238;stroke-linecap:round;stroke-linejoin:round;stroke-miterlimit:10;" d="
				M350.961,294.842c0,0-1.91,23.238,1.91,40.427c3.82,17.19,8.276,28.967,8.276,28.967s4.457,28.013,7.64,37.881
				c3.183,9.868,4.138,19.418,3.501,27.058c-0.637,7.64-6.048,17.508-8.595,19.418c-2.547,1.91-7.64,6.367-1.273,7.958
				c6.366,1.592,14.593-2.067,18.463-2.228c7.64-0.318,8.595-5.412,8.595-10.186c0-4.775-4.457-21.009-3.183-29.286
				c1.273-8.276,1.592-35.652,0.318-42.974c-1.273-7.321-1.91-14.006-1.91-14.006l-0.955-59.527l-31.514-4.456L350.961,294.842z"/>
			<path style="fill:#FFFFFF;stroke:#263238;stroke-linecap:round;stroke-linejoin:round;stroke-miterlimit:10;" d="
				M386.102,419.838c-7.349,3.186-11.474,2.603-13.74,1.288c0.153,2.844,0.135,5.556-0.073,8.049
				c-0.637,7.64-6.048,17.508-8.595,19.418c-2.547,1.91-7.64,6.367-1.273,7.958c6.366,1.592,14.593-2.067,18.463-2.228
				c7.64-0.318,8.595-5.411,8.595-10.186C389.479,440.199,386.451,428.472,386.102,419.838z"/>
			<path style="fill:#92E3A9;stroke:#263238;stroke-linecap:round;stroke-linejoin:round;stroke-miterlimit:10;" d="
				M389.448,443.391c-0.004-0.052-0.007-0.102-0.011-0.156c-0.021-0.266-0.048-0.552-0.083-0.858
				c-0.007-0.064-0.016-0.13-0.024-0.195c-0.036-0.297-0.076-0.607-0.123-0.935c-0.005-0.036-0.009-0.069-0.014-0.104
				c-0.05-0.344-0.107-0.71-0.167-1.085c-0.018-0.114-0.036-0.228-0.055-0.344c-0.057-0.347-0.117-0.704-0.18-1.072
				c-0.034-0.197-0.069-0.398-0.104-0.6c-0.008-0.043-0.015-0.087-0.023-0.13c-0.446,0.444-0.912,0.918-1.413,1.45
				c-5.093,5.411-12.096,11.46-19.418,11.46c-3.488,0-4.373-1.012-4.346-2.071c-2.601,1.987-7.265,6.251-1.066,7.801
				c6.366,1.592,14.593-2.067,18.463-2.228c7.64-0.318,8.595-5.411,8.595-10.186C389.479,443.915,389.466,443.66,389.448,443.391z"
				/>
			<path style="fill:#FFFFFF;stroke:#263238;stroke-linecap:round;stroke-linejoin:round;stroke-miterlimit:10;" d="
				M383.112,449.866c-6.048,4.775-12.415,5.411-17.826,5.411c-4.182,0-5.319-1.707-5.621-2.484c-0.73,1.516-0.358,2.979,2.756,3.758
				c6.366,1.592,14.593-2.067,18.463-2.228c7.197-0.3,8.461-4.837,8.583-9.354C387.937,446.114,385.812,447.734,383.112,449.866z"/>
		</g>
		<path style="fill:#263238;stroke:#263238;stroke-linecap:round;stroke-linejoin:round;stroke-miterlimit:10;" d="M371.334,330.176
			c0,0,3.183,40.427,5.73,51.25c2.547,10.823,7.958,48.385,7.958,53.478s-3.502,12.415-5.411,15.598
			c-1.91,3.183-7.003,3.82-7.003,6.685s10.186,2.865,12.096,3.183c1.91,0.318,14.961-3.183,15.28-4.775
			c0.318-1.592,0.318-8.276,0.318-8.276s0.318-3.183,0-5.411c-0.318-2.228-4.138-8.913-4.138-8.913s3.502-31.196,4.457-36.289
			c0.955-5.093,0.637-15.598,0.318-20.373c-0.318-4.775-3.183-14.325-3.183-14.325l6.366-50.613l-0.637-16.234
			c0,0-8.913,0.955-18.781,0.955c-9.868,0-16.871,0-16.871,0l0.637,12.096"/>
		<path style="fill:#FFFFFF;stroke:#263238;stroke-linecap:round;stroke-linejoin:round;stroke-miterlimit:10;" d="M399.983,455.596
			c0.318-1.592,0.318-8.276,0.318-8.276s0.318-3.183,0-5.411c-0.318-2.228-4.138-8.913-4.138-8.913s0.522-4.649,1.217-10.645
			c-6.184,2.458-11.47,0.336-13.828-0.953c0.879,6.613,1.469,11.829,1.469,13.508c0,5.093-3.502,12.415-5.411,15.598
			c-1.91,3.183-7.003,3.82-7.003,6.685c0,2.865,10.186,2.865,12.096,3.183C386.614,460.689,399.665,457.188,399.983,455.596z"/>
		<path style="fill:#92E3A9;stroke:#263238;stroke-linecap:round;stroke-linejoin:round;stroke-miterlimit:10;" d="M399.983,455.596
			c0.318-1.592,0.318-8.276,0.318-8.276s0.318-3.183,0-5.411c-0.184-1.286-1.533-4.054-2.642-6.167
			c-0.076,0.149-0.145,0.282-0.223,0.437c-1.91,3.82-10.088,13.764-13.908,15.993c-3.82,2.228-4.873-0.395-4.873-0.395h-0.099
			c-2.277,2.147-5.725,2.987-5.949,5.412c-0.421,4.541,12.04,4.242,13.852,3.649C388.3,460.234,399.665,457.188,399.983,455.596z"/>
		<path style="fill:#FFFFFF;stroke:#263238;stroke-linecap:round;stroke-linejoin:round;stroke-miterlimit:10;" d="M399.983,455.596
			c0.206-1.028,0.278-4.174,0.304-6.278c-8.815,6.909-17.957,8.217-21.856,8.46c-3.674,0.23-5.171-1.398-5.433-1.724
			c-0.211,0.341-0.352,0.712-0.391,1.133c-0.421,4.541,12.04,4.242,13.852,3.649C388.3,460.234,399.665,457.188,399.983,455.596z"/>
		<path style="fill:#FFFFFF;stroke:#263238;stroke-linecap:round;stroke-linejoin:round;stroke-miterlimit:10;" d="M374.836,204.438
			c0,0-12.415,24.193-15.279,30.877c-2.865,6.685-1.592,17.508-1.592,21.328c0,3.82-7.003,38.199-7.003,38.199
			s6.367,6.685,23.238,6.048c16.871-0.637,27.057-4.775,27.057-4.775s-3.82-31.514-3.82-38.199c0-6.685,8.276-35.334,7.322-42.974
			c-0.955-7.64-12.415-7.003-15.28-7.64C386.614,206.667,374.836,204.438,374.836,204.438z"/>
		<g>
			<path style="fill:#FFFFFF;stroke:#263238;stroke-linecap:round;stroke-linejoin:round;stroke-miterlimit:10;" d="M360.59,159.276
				c0,0-3.563,12.218-2.291,13.745c1.273,1.527,2.545,5.091,2.545,5.091s-3.818,7.382-2.8,8.4c1.018,1.018,3.309,1.782,3.309,1.782
				s2.291,10.945,4.327,11.454c2.036,0.509,14-2.8,14-2.8s7.127-6.364,4.327-17.818c-2.8-11.454-14-19.6-16.036-20.618
				C365.936,157.494,360.59,159.276,360.59,159.276z"/>
			<path style="fill:none;stroke:#263238;stroke-linecap:round;stroke-linejoin:round;stroke-miterlimit:10;" d="M366.954,177.603
				v2.8c0,0,3.154,0.194,4.681-0.824"/>
			<path style="fill:none;stroke:#263238;stroke-linecap:round;stroke-linejoin:round;stroke-miterlimit:10;" d="M365.889,176.312
				c0,0,2.704-1.577,5.52,0.113"/>
			<path style="fill:none;stroke:#263238;stroke-linecap:round;stroke-linejoin:round;stroke-miterlimit:10;" d="M363.073,176.312
				c0,0,1.127-2.366,5.52-2.366c4.394,0,6.872,1.352,7.21,2.141c0.338,0.789-0.113,1.352-0.113,1.352s0,4.619-1.239,5.858
				c-1.239,1.239-5.746,2.479-7.999,1.465c-2.253-1.014-3.492-5.408-3.492-6.422C362.96,177.326,363.073,176.312,363.073,176.312z"
				/>
			
				<line style="fill:none;stroke:#263238;stroke-linecap:round;stroke-linejoin:round;stroke-miterlimit:10;" x1="375.803" y1="176.087" x2="377.606" y2="176.087"/>
			<path style="fill:none;stroke:#263238;stroke-linecap:round;stroke-linejoin:round;stroke-miterlimit:10;" d="M363.073,176.312
				c0,0-1.915-1.577-2.704,0.338"/>
			<path style="fill:none;stroke:#263238;stroke-linecap:round;stroke-linejoin:round;stroke-miterlimit:10;" d="M359.581,176.312
				c0,0-1.577-0.451-3.492-0.451c-1.915,0-2.479,0.789-2.366,1.127c0.113,0.338,0.676,2.028,0.676,3.267
				c0,1.239,0.113,3.155,1.239,3.718c1.127,0.563,2.479,0.676,2.479,0.676"/>
		</g>
		<path style="fill:#92E3A9;stroke:#263238;stroke-linecap:round;stroke-linejoin:round;stroke-miterlimit:10;" d="M385.34,206.348
			c0,0-8.595,21.646-10.823,33.742s-1.273,74.806-1.273,74.806s7.64,4.138,18.463,3.502c10.823-0.637,21.964-7.64,21.964-7.64
			s-2.547-18.463-6.685-31.514c-4.138-13.051-5.73-19.099-5.73-19.099s8.276-42.337,7.64-46.794
			C408.26,208.895,385.34,206.348,385.34,206.348z"/>
		<path style="fill:#263238;stroke:#263238;stroke-linecap:round;stroke-linejoin:round;stroke-miterlimit:10;" d="M368.99,147.313
			c0,0-12.473,3.564-12.473,5.6c0,2.036-0.509,4.836,7.891,10.691c8.4,5.854,14.509,11.2,15.018,18.327
			c0.509,7.127-6.618,25.963-8.145,32.072c-1.527,6.109-0.764,15.018,4.073,16.291c4.836,1.273,3.309,0.509,2.8-2.291
			c-0.509-2.8,2.291-14.509,10.691-18.327c8.4-3.818,17.503-9.937,19.345-21.382c1.923-11.946,1.15-29.223-11.2-38.69
			C384.496,140.026,368.99,147.313,368.99,147.313z"/>
		<g>
			<g>
				<path style="fill:#92E3A9;stroke:#263238;stroke-linecap:round;stroke-linejoin:round;stroke-miterlimit:10;" d="
					M392.025,229.904l-3.183,29.286l-1.91,0.637v1.592l-1.91,0.955l-0.955,1.273l-44.247-4.138c0,0-10.186-1.273-12.096-1.273
					c-1.91,0-9.231-0.955-9.231-0.955s0.955,2.865,2.547,3.183c1.592,0.318,9.868,3.183,9.868,3.183s5.411,2.865,8.913,2.865
					c3.501,0,8.913,0.318,8.913,0.318s23.238,6.367,30.559,7.64c7.322,1.273,13.37,4.138,15.916,3.183
					c2.547-0.955,5.73-3.501,6.685-7.003c0.955-3.502,5.093-25.148,5.093-25.148s5.093-21.964,5.093-27.376
					c0-5.412-7.321-8.277-14.006-4.775"/>
				<path style="fill:#FFFFFF;stroke:#263238;stroke-linecap:round;stroke-linejoin:round;stroke-miterlimit:10;" d="
					M385.088,275.795l-3.392-12.37l-41.876-3.916c0,0-10.186-1.273-12.096-1.273c-1.91,0-9.231-0.955-9.231-0.955
					s0.955,2.865,2.547,3.183c1.592,0.318,9.868,3.183,9.868,3.183s5.411,2.865,8.913,2.865c3.501,0,8.913,0.318,8.913,0.318
					s23.238,6.367,30.559,7.64C381.342,274.826,383.286,275.308,385.088,275.795z"/>
				
					<line style="fill:none;stroke:#263238;stroke-linecap:round;stroke-linejoin:round;stroke-miterlimit:10;" x1="389.76" y1="272.051" x2="390.752" y2="273.515"/>
				
					<line style="fill:none;stroke:#263238;stroke-linecap:round;stroke-linejoin:round;stroke-miterlimit:10;" x1="384.067" y1="263.647" x2="388.547" y2="270.26"/>
				
					<line style="fill:none;stroke:#263238;stroke-linecap:round;stroke-linejoin:round;stroke-miterlimit:10;" x1="386.932" y1="261.418" x2="393.299" y2="265.875"/>
			</g>
			<path style="fill:none;stroke:#263238;stroke-linecap:round;stroke-linejoin:round;stroke-miterlimit:10;" d="M320.435,257.75
				c0,0,0.442,1.62,2.061,1.767c1.62,0.147,6.332,2.798,6.773,2.798"/>
			<path style="fill:none;stroke:#263238;stroke-linecap:round;stroke-linejoin:round;stroke-miterlimit:10;" d="M325.736,258.192
				c0,0,1.473,1.325,2.798,1.62s5.595,2.209,5.595,2.209"/>
			<path style="fill:#FFFFFF;stroke:#263238;stroke-linecap:round;stroke-linejoin:round;stroke-miterlimit:10;" d="
				M348.117,260.842c0,0-6.581-2.226-7.119-2.07c-0.538,0.156-2.452,0.156-4.661-0.139c-2.209-0.294-3.534,2.209-1.767,2.945
				c1.767,0.736,3.239,0.442,3.828,0.442c0.589,0,2.356,0.589,2.798,0.589"/>
		</g>
		<g>
			<polygon style="fill:#FFFFFF;stroke:#263238;stroke-linecap:round;stroke-linejoin:round;stroke-miterlimit:10;" points="
				296.425,254.017 358.459,260.996 358.265,258.863 296.038,252.272 			"/>
			<polygon style="fill:#FFFFFF;stroke:#263238;stroke-linecap:round;stroke-linejoin:round;stroke-miterlimit:10;" points="
				296.038,252.272 283.825,220.092 318.719,223 330.156,256.15 			"/>
			<polygon style="fill:#263238;stroke:#263238;stroke-linecap:round;stroke-linejoin:round;stroke-miterlimit:10;" points="
				330.156,256.15 330.156,257.812 358.459,260.996 358.265,258.863 330.127,255.883 			"/>
		</g>
	</g>
</g>
</svg>
