<?xml version="1.0" encoding="utf-8"?>
<!-- Generator: Adobe Illustrator 27.5.0, SVG Export Plug-In . SVG Version: 6.00 Build 0)  -->
<svg version="1.1" xmlns="http://www.w3.org/2000/svg" xmlns:xlink="http://www.w3.org/1999/xlink" x="0px" y="0px"
	 viewBox="0 0 500 500" style="enable-background:new 0 0 500 500;" xml:space="preserve">
<g id="Background_Simple">
	<g>
		<path style="fill:#92E3A9;" d="M459.481,332.182c-20.467,42.58-56.599,86.806-100.323,95.507
			c-66.067,13.154-81.357,70.351-193.838,49.898c-17.538-3.187-33.474-8.192-47.858-14.71c-7.733-3.503-15.017-7.457-21.851-11.806
			c-62.06-39.394-87.6-111.332-81.092-182.182c8.546-93.185,71.025-129.834,111.253-150.808
			C166,97.105,223.668,2.773,334.413,21.885c16.883,2.922,33.464,7.824,49.197,15.088c35.916,16.562,70.585,47.242,87.731,87.633
			c1.287,3.034,2.488,6.124,3.616,9.259C496.933,195.197,487.387,274.133,459.481,332.182z"/>
		<path style="opacity:0.8;fill:#FFFFFF;" d="M459.481,332.182c-20.467,42.58-56.599,86.806-100.323,95.507
			c-66.067,13.154-81.357,70.351-193.838,49.898c-17.538-3.187-33.474-8.192-47.858-14.71c-7.733-3.503-15.017-7.457-21.851-11.806
			c-62.06-39.394-87.6-111.332-81.092-182.182c8.546-93.185,71.025-129.834,111.253-150.808
			C166,97.105,223.668,2.773,334.413,21.885c16.883,2.922,33.464,7.824,49.197,15.088c35.916,16.562,70.585,47.242,87.731,87.633
			c1.287,3.034,2.488,6.124,3.616,9.259C496.933,195.197,487.387,274.133,459.481,332.182z"/>
	</g>
</g>
<g id="Floor_00000145034493067141230720000003901367421692009112_">
	<g>
		
			<line style="fill:none;stroke:#263238;stroke-linecap:round;stroke-linejoin:round;stroke-miterlimit:10;" x1="461.747" y1="445.868" x2="15.846" y2="445.868"/>
		
			<line style="fill:none;stroke:#263238;stroke-linecap:round;stroke-linejoin:round;stroke-miterlimit:10;" x1="487.71" y1="445.868" x2="469.033" y2="445.868"/>
	</g>
</g>
<g id="Plants">
	<g>
		<path style="fill:#92E3A9;" d="M466.818,246.049c-7.969,2.356-26.403-0.373-26.417-0.375c-0.191-0.028,5.487-11.604,5.927-12.294
			c5.119-7.976,19.697-20.381,29.958-17.666c7.392,1.957,10.632,10.005,8.048,16.87
			C481.697,239.598,473.607,244.041,466.818,246.049z"/>
		<path style="fill:#92E3A9;" d="M294.72,238.335c-0.175,0.083-1.824-12.705-1.837-13.524c-0.132-9.477,5.184-27.865,15.241-31.261
			c7.244-2.446,14.386,2.479,16.019,9.631c1.669,7.305-2.627,15.473-7.181,20.893C311.615,230.436,294.733,238.329,294.72,238.335z"
			/>
		<path style="fill:#92E3A9;" d="M255.269,204.129c5.561,3.117,18.696,4.468,21.96,4.762c1.625,2.23,3.337,4.631,5.171,7.327
			c3.188,4.767,6.742,10.178,10.21,16.32c0.927,1.634,1.859,3.43,2.794,5.154c-2.178-2.578-5.217-6.075-5.55-6.383
			c-6.122-5.647-21.273-12.96-29.395-8.372c-5.852,3.305-6.821,10.867-3.1,16.133c3.801,5.378,11.666,7.36,17.885,7.561
			c6.489,0.209,19.053-4.809,21.79-5.937c2.012,3.851,3.987,7.852,5.806,12.145c3.15,7.405,6.121,15.464,8.072,24.036
			c-0.27,0.116-0.22,0.094-0.49,0.211c-1.719-2.625-5.46-8.052-5.818-8.465c-5.465-6.286-19.72-15.219-28.299-11.551
			c-6.178,2.642-7.972,10.053-4.853,15.695c3.188,5.764,10.788,8.598,16.947,9.481c7.097,1.016,22.254-3.487,22.824-3.657
			c1.725,8.022,2.887,16.391,3.588,24.959c0.517,6.208,0.785,12.517,0.996,18.85c-1.159-1.874-6.062-9.006-6.473-9.48
			c-5.465-6.286-19.722-15.218-28.299-11.551c-6.179,2.642-7.972,10.052-4.853,15.694c3.187,5.764,10.787,8.599,16.946,9.48
			c6.929,0.992,21.471-3.257,22.694-3.619c0.095,2.875,0.201,5.746,0.271,8.631c0.237,9.412,0.431,18.848,0.911,28.156
			c0.164,3.224,0.446,6.395,0.713,9.574c-1.823-2.757-5.238-7.708-5.578-8.1c-5.466-6.286-19.722-15.218-28.3-11.552
			c-6.18,2.643-7.973,10.053-4.853,15.696c3.186,5.763,10.787,8.598,16.945,9.479c6.187,0.886,18.492-2.422,21.944-3.404
			c0.485,5.285,1.083,10.516,1.917,15.639c0.407,2.201,0.681,4.475,1.192,6.564c0.469,2.117,0.936,4.214,1.396,6.29
			c1.105,4.261,2.117,8.225,3.247,12.162c0.558,1.996,1.129,3.864,1.695,5.796c-1.429-3.069-3.773-7.893-4.036-8.309
			c-4.45-7.041-17.189-18.03-26.222-15.704c-6.508,1.676-9.404,8.728-7.175,14.779c2.278,6.179,9.361,10.133,15.315,11.938
			c6.564,1.99,21.095,0.115,22.872-0.125c1.408,4.719,2.825,9.303,4.231,13.565c1.139,3.484,2.252,6.745,3.343,9.882h6.135
			c-1.368-3.636-2.79-7.519-4.245-11.661c-1.354-3.824-2.722-7.9-4.089-12.103c1.636-0.653,14.274-5.808,19.408-10.62
			c5.246,3.45,11.234,6.39,12.29,6.901c-1.427,4.714-2.774,9.317-3.955,13.648c-1.353,4.921-2.543,9.53-3.611,13.835h5.993
			c0.889-3.914,1.853-8.016,2.965-12.431c0.98-3.937,2.086-8.091,3.265-12.35c1.788,0.37,16.122,3.24,22.8,1.715
			c6.065-1.386,13.406-4.837,16.108-10.843c2.645-5.881,0.246-13.117-6.129-15.242c-8.851-2.949-22.322,7.128-27.252,13.842
			c-0.316,0.43-3.474,5.93-5.026,8.773c0.722-2.571,1.429-5.127,2.226-7.792c1.114-3.842,2.419-7.865,3.659-11.771
			c0.718-2.002,1.443-4.024,2.174-6.066c0.695-2.077,1.612-3.969,2.418-5.993c1.245-2.935,2.677-5.899,4.099-8.862
			c3.843,1.372,15.19,5.198,21.199,4.761c6.206-0.451,13.984-2.751,17.564-8.277c3.505-5.413,2.232-12.93-3.749-15.996
			c-8.302-4.255-23.144,3.664-29.034,9.555c-0.19,0.191-1.306,1.565-2.614,3.208c1.477-2.849,2.941-5.701,4.535-8.538
			c4.515-8.051,9.369-16.113,14.196-24.211c1.007-1.687,1.986-3.389,2.986-5.079c3.229,1.17,15.484,5.426,21.781,4.968
			c6.205-0.451,13.985-2.75,17.563-8.278c3.506-5.412,2.233-12.929-3.748-15.995c-8.301-4.255-23.144,3.664-29.034,9.554
			c-0.21,0.211-1.538,1.855-3.008,3.707c2.56-4.436,5.058-8.892,7.396-13.391c4.102-7.86,7.717-15.826,10.607-23.818
			c1.134,0.424,15.403,5.704,22.401,5.194c6.205-0.452,13.985-2.75,17.564-8.277c3.505-5.414,2.232-12.93-3.749-15.996
			c-8.301-4.255-23.144,3.664-29.034,9.555c-0.417,0.419-5.179,6.4-6.808,8.594c0.033-0.096,0.08-0.19,0.114-0.286
			c2.956-8.418,4.74-16.82,6.044-24.87c1.312-8.029,1.865-15.703,2.192-22.773c0.345-7.075,0.223-13.569,0.07-19.313
			c-0.108-3.109-0.264-5.953-0.438-8.603c0.03,0.024,0.155,0.124,0.155,0.124c0.135,0.105,4.041-10.533,4.21-11.233
			c1.96-8.097,0.988-24.891-6.968-29.761c-5.733-3.508-12.812-0.678-15.606,5.133c-2.853,5.934-0.764,13.772,2.083,19.304
			c2.918,5.668,13.129,14.041,15.689,16.087c0.124,2.756,0.228,5.703,0.271,8.964c0.028,5.734,0.008,12.208-0.488,19.244
			c-0.127,1.875-0.34,3.887-0.512,5.84c-0.396-3.351-1.001-7.945-1.109-8.385c-1.992-8.087-10.595-22.545-19.899-23.201
			c-6.704-0.472-11.684,5.301-11.486,11.746c0.203,6.582,5.669,12.575,10.746,16.173c5.296,3.754,18.545,6.501,21.449,7.069
			c-0.446,4.321-1.006,8.75-1.858,13.333c-1.456,7.917-3.425,16.277-6.527,24.505c-0.288-0.052-0.235-0.043-0.523-0.095
			c0.014-3.136-0.111-9.732-0.183-10.275c-1.09-8.258-8.053-23.573-17.23-25.245c-6.611-1.206-12.195,3.986-12.705,10.414
			c-0.522,6.565,4.253,13.122,8.903,17.255c5.359,4.762,20.485,9.368,21.054,9.541c-2.986,7.643-6.634,15.263-10.775,22.796
			c-2.993,5.464-6.251,10.873-9.568,16.271c0.068-2.202-0.088-10.856-0.169-11.478c-1.091-8.257-8.054-23.572-17.232-25.245
			c-6.612-1.205-12.195,3.987-12.706,10.413c-0.522,6.565,4.254,13.122,8.904,17.255c5.231,4.65,19.704,9.129,20.926,9.501
			c-1.509,2.451-3.004,4.904-4.537,7.348c-4.995,7.981-10.039,15.958-14.773,23.986c-1.642,2.781-3.155,5.581-4.686,8.381
			c0-3.305-0.116-9.318-0.185-9.833c-1.09-8.259-8.054-23.573-17.231-25.246c-6.613-1.206-12.195,3.986-12.706,10.413
			c-0.522,6.564,4.253,13.122,8.903,17.254c4.671,4.153,16.76,8.181,20.181,9.267c-2.511,4.675-4.899,9.368-7.029,14.101
			c-0.873,2.061-1.9,4.107-2.625,6.133c-0.776,2.025-1.546,4.031-2.306,6.016c-1.429,4.164-2.771,8.029-4.001,11.937
			c-0.636,1.972-1.19,3.846-1.784,5.769c0.501-3.349,1.209-8.666,1.218-9.157c0.172-8.329-4.39-24.521-13.207-27.564
			c-6.353-2.194-12.659,2.092-14.138,8.367c-0.187,0.798-0.293,1.607-0.328,2.424c-4.356,6.025-6.965,14.855-7.235,20.384
			c-0.026,0.532,0.374,6.862,0.647,10.089c-0.817-2.544-1.635-5.064-2.441-7.727c-1.19-3.819-2.321-7.893-3.442-11.836
			c-0.505-2.066-1.015-4.151-1.531-6.259c-0.566-2.117-0.845-4.2-1.29-6.332c-0.581-3.135-1.022-6.397-1.47-9.653
			c3.962-0.977,15.538-4.045,20.308-7.723c4.927-3.799,10.147-10.009,10.083-16.593c-0.061-6.449-5.271-12.016-11.951-11.273
			c-9.272,1.03-17.282,15.823-18.945,23.986c-0.054,0.266-0.227,2.026-0.41,4.117c-0.341-3.189-0.693-6.377-0.928-9.622
			c-0.675-9.207-1.074-18.608-1.516-28.026c-0.092-1.962-0.212-3.921-0.311-5.884c3.337-0.805,15.908-4.017,20.907-7.871
			c4.927-3.801,10.147-10.009,10.083-16.595c-0.063-6.447-5.271-12.014-11.951-11.272c-9.271,1.031-17.281,15.824-18.945,23.986
			c-0.06,0.292-0.26,2.396-0.466,4.75c-0.312-5.111-0.687-10.206-1.216-15.248c-0.917-8.819-2.297-17.458-4.295-25.717
			c1.181-0.272,15.994-3.74,21.55-8.026c4.926-3.799,10.147-10.009,10.083-16.594c-0.063-6.446-5.272-12.014-11.951-11.273
			c-9.271,1.031-17.281,15.825-18.945,23.987c-0.118,0.578-0.789,8.195-0.939,10.923c-0.024-0.097-0.037-0.203-0.063-0.3
			c-2.178-8.654-5.326-16.644-8.678-24.078c-3.335-7.421-7.107-14.127-10.735-20.204c-3.616-6.092-7.3-11.44-10.596-16.146
			c-1.806-2.535-3.505-4.82-5.112-6.934c0.038,0.003,0.197,0.017,0.197,0.017c0.171,0.014-2.44-11.013-2.683-11.691
			c-2.833-7.834-12.909-21.305-22.231-20.978c-6.716,0.236-11.062,6.502-10.186,12.89
			C243.775,195.701,249.843,201.086,255.269,204.129z"/>
	</g>
	<g>
		<path style="fill:#92E3A9;" d="M242.243,307.884c-5.478,1.62-18.151-0.256-18.16-0.258c-0.132-0.02,3.772-7.977,4.075-8.452
			c3.519-5.483,13.54-14.01,20.594-12.144c5.081,1.346,7.309,6.878,5.532,11.597C252.471,303.45,246.91,306.504,242.243,307.884z"/>
		<path style="fill:#92E3A9;" d="M123.937,302.582c-0.12,0.057-1.254-8.734-1.262-9.297c-0.09-6.515,3.564-19.155,10.477-21.49
			c4.98-1.681,9.889,1.704,11.012,6.621c1.147,5.022-1.806,10.637-4.937,14.362C135.551,297.151,123.946,302.578,123.937,302.582z"
			/>
		<path style="fill:#92E3A9;" d="M96.817,279.068c3.823,2.142,12.852,3.072,15.096,3.274c1.118,1.533,2.294,3.183,3.555,5.036
			c2.192,3.277,4.634,6.996,7.019,11.219c0.637,1.123,1.278,2.358,1.921,3.543c-1.497-1.772-3.586-4.176-3.815-4.388
			c-4.209-3.882-14.624-8.909-20.207-5.755c-4.023,2.272-4.689,7.47-2.131,11.091c2.613,3.697,8.019,5.06,12.295,5.197
			c4.46,0.144,13.097-3.306,14.979-4.081c1.383,2.647,2.741,5.398,3.991,8.349c2.165,5.09,4.208,10.63,5.549,16.523
			c-0.186,0.079-0.151,0.064-0.337,0.145c-1.182-1.804-3.753-5.535-3.999-5.819c-3.757-4.321-13.557-10.462-19.454-7.94
			c-4.247,1.816-5.48,6.911-3.336,10.789c2.191,3.962,7.416,5.911,11.649,6.517c4.879,0.698,15.298-2.397,15.69-2.514
			c1.186,5.515,1.985,11.268,2.467,17.157c0.355,4.267,0.54,8.605,0.684,12.958c-0.797-1.289-4.167-6.191-4.45-6.517
			c-3.757-4.321-13.557-10.461-19.454-7.94c-4.248,1.816-5.48,6.91-3.336,10.789c2.191,3.962,7.416,5.911,11.649,6.517
			c4.763,0.682,14.76-2.239,15.601-2.488c0.065,1.977,0.138,3.95,0.186,5.933c0.163,6.47,0.296,12.957,0.627,19.355
			c0.112,2.216,0.307,4.396,0.49,6.582c-1.253-1.895-3.601-5.299-3.835-5.568c-3.758-4.321-13.558-10.461-19.454-7.941
			c-4.248,1.817-5.481,6.911-3.336,10.79c2.19,3.961,7.415,5.91,11.648,6.517c4.253,0.609,12.712-1.665,15.085-2.34
			c0.333,3.633,0.744,7.229,1.318,10.751c0.28,1.513,0.468,3.076,0.82,4.513c0.323,1.455,0.643,2.897,0.96,4.324
			c0.76,2.929,1.456,5.654,2.232,8.361c0.383,1.372,0.776,2.656,1.165,3.984c-0.982-2.11-2.594-5.426-2.775-5.712
			c-3.059-4.84-11.816-12.395-18.026-10.796c-4.474,1.152-6.465,6-4.933,10.159c1.566,4.248,6.435,6.966,10.528,8.206
			c4.512,1.368,14.502,0.079,15.723-0.086c0.968,3.244,1.942,6.395,2.908,9.325c0.783,2.395,1.548,4.637,2.298,6.793h4.217
			c-0.941-2.499-1.918-5.168-2.918-8.016c-0.93-2.629-1.871-5.431-2.811-8.32c1.125-0.449,9.812-3.993,13.342-7.301
			c3.606,2.372,7.723,4.393,8.449,4.744c-0.981,3.241-1.907,6.405-2.718,9.382c-0.93,3.383-1.748,6.551-2.482,9.511h4.119
			c0.611-2.69,1.274-5.511,2.038-8.546c0.674-2.706,1.434-5.562,2.245-8.49c1.229,0.254,11.083,2.227,15.674,1.179
			c4.17-0.953,9.216-3.325,11.073-7.454c1.818-4.042,0.169-9.017-4.213-10.478c-6.085-2.027-15.345,4.9-18.734,9.515
			c-0.217,0.296-2.388,4.077-3.455,6.031c0.496-1.768,0.983-3.525,1.53-5.357c0.766-2.641,1.663-5.406,2.516-8.092
			c0.493-1.376,0.992-2.766,1.495-4.17c0.478-1.428,1.108-2.728,1.662-4.12c0.856-2.017,1.841-4.055,2.818-6.092
			c2.641,0.943,10.442,3.573,14.573,3.273c4.266-0.31,9.613-1.891,12.074-5.69c2.41-3.721,1.534-8.888-2.577-10.996
			c-5.707-2.925-15.91,2.519-19.959,6.568c-0.131,0.132-0.898,1.076-1.797,2.205c1.015-1.959,2.021-3.919,3.117-5.87
			c3.104-5.535,6.441-11.076,9.759-16.643c0.692-1.16,1.365-2.329,2.052-3.492c2.219,0.804,10.644,3.73,14.973,3.415
			c4.266-0.31,9.614-1.891,12.074-5.691c2.41-3.72,1.535-8.888-2.577-10.995c-5.706-2.925-15.91,2.518-19.959,6.568
			c-0.145,0.145-1.057,1.275-2.068,2.548c1.76-3.049,3.477-6.113,5.084-9.205c2.82-5.403,5.305-10.879,7.291-16.374
			c0.779,0.292,10.588,3.921,15.399,3.571c4.266-0.311,9.613-1.891,12.074-5.69c2.41-3.721,1.534-8.888-2.577-10.996
			c-5.706-2.925-15.91,2.519-19.959,6.568c-0.286,0.288-3.56,4.399-4.68,5.908c0.023-0.066,0.055-0.13,0.079-0.196
			c2.032-5.787,3.258-11.563,4.155-17.097c0.902-5.52,1.282-10.795,1.507-15.655c0.237-4.864,0.153-9.328,0.048-13.276
			c-0.074-2.138-0.181-4.092-0.301-5.914c0.02,0.017,0.107,0.085,0.107,0.085c0.093,0.072,2.778-7.24,2.894-7.722
			c1.347-5.566,0.679-17.111-4.79-20.459c-3.941-2.411-8.807-0.466-10.728,3.529c-1.962,4.08-0.525,9.468,1.432,13.27
			c2.006,3.896,9.025,9.652,10.785,11.059c0.086,1.895,0.157,3.921,0.186,6.162c0.019,3.942,0.006,8.392-0.335,13.229
			c-0.087,1.289-0.234,2.672-0.352,4.015c-0.272-2.304-0.688-5.462-0.762-5.764c-1.369-5.559-7.283-15.498-13.679-15.949
			c-4.609-0.325-8.032,3.644-7.896,8.075c0.14,4.525,3.897,8.644,7.387,11.118c3.641,2.58,12.748,4.469,14.745,4.86
			c-0.306,2.97-0.691,6.015-1.277,9.165c-1.001,5.442-2.354,11.189-4.487,16.846c-0.198-0.036-0.162-0.029-0.36-0.065
			c0.009-2.156-0.076-6.69-0.126-7.063c-0.75-5.677-5.536-16.205-11.845-17.354c-4.545-0.829-8.383,2.74-8.734,7.159
			c-0.359,4.513,2.924,9.02,6.12,11.862c3.684,3.274,14.082,6.44,14.473,6.559c-2.053,5.254-4.561,10.492-7.407,15.671
			c-2.058,3.756-4.297,7.475-6.577,11.185c0.046-1.514-0.06-7.463-0.116-7.89c-0.75-5.676-5.537-16.204-11.845-17.354
			c-4.545-0.829-8.383,2.741-8.734,7.158c-0.359,4.513,2.924,9.021,6.121,11.862c3.596,3.197,13.546,6.276,14.385,6.532
			c-1.037,1.685-2.065,3.371-3.119,5.051c-3.434,5.487-6.901,10.97-10.156,16.489c-1.129,1.912-2.169,3.837-3.222,5.761
			c0-2.272-0.08-6.406-0.127-6.76c-0.749-5.677-5.536-16.205-11.845-17.355c-4.546-0.829-8.383,2.74-8.734,7.159
			c-0.359,4.512,2.924,9.021,6.12,11.861c3.211,2.855,11.522,5.624,13.873,6.371c-1.727,3.214-3.368,6.44-4.832,9.693
			c-0.6,1.417-1.306,2.823-1.805,4.216c-0.534,1.392-1.063,2.771-1.585,4.136c-0.982,2.862-1.905,5.519-2.751,8.206
			c-0.437,1.356-0.818,2.644-1.226,3.966c0.344-2.302,0.831-5.957,0.837-6.295c0.119-5.725-3.018-16.857-9.079-18.949
			c-4.367-1.508-8.702,1.438-9.719,5.752c-0.128,0.548-0.201,1.105-0.226,1.666c-2.994,4.142-4.788,10.212-4.973,14.013
			c-0.018,0.366,0.257,4.717,0.445,6.936c-0.562-1.749-1.124-3.482-1.678-5.312c-0.818-2.625-1.595-5.426-2.366-8.137
			c-0.348-1.421-0.698-2.854-1.053-4.302c-0.389-1.455-0.581-2.887-0.887-4.353c-0.399-2.155-0.702-4.398-1.011-6.636
			c2.724-0.671,10.681-2.78,13.961-5.309c3.387-2.612,6.975-6.881,6.932-11.406c-0.042-4.433-3.624-8.26-8.215-7.75
			c-6.374,0.708-11.88,10.877-13.023,16.488c-0.037,0.183-0.156,1.393-0.282,2.83c-0.234-2.193-0.476-4.383-0.638-6.615
			c-0.464-6.329-0.738-12.792-1.042-19.266c-0.063-1.349-0.146-2.695-0.214-4.045c2.294-0.553,10.936-2.761,14.372-5.41
			c3.387-2.613,6.975-6.881,6.932-11.408c-0.043-4.432-3.623-8.259-8.216-7.749c-6.373,0.709-11.88,10.878-13.023,16.488
			c-0.041,0.201-0.179,1.647-0.32,3.266c-0.215-3.514-0.472-7.016-0.836-10.482c-0.63-6.062-1.579-12.001-2.953-17.679
			c0.812-0.187,10.995-2.571,14.814-5.517c3.386-2.612,6.976-6.881,6.931-11.407c-0.043-4.432-3.624-8.259-8.216-7.749
			c-6.373,0.709-11.88,10.879-13.023,16.49c-0.081,0.398-0.543,5.634-0.645,7.509c-0.016-0.067-0.026-0.139-0.043-0.206
			c-1.497-5.949-3.661-11.442-5.966-16.552c-2.293-5.102-4.885-9.711-7.379-13.889c-2.486-4.188-5.018-7.864-7.284-11.099
			c-1.242-1.742-2.409-3.314-3.514-4.767c0.027,0.002,0.135,0.011,0.135,0.011c0.118,0.009-1.677-7.571-1.844-8.037
			c-1.948-5.385-8.874-14.646-15.283-14.421c-4.617,0.162-7.604,4.47-7.002,8.861C88.916,273.274,93.087,276.976,96.817,279.068z"/>
	</g>
</g>
<g id="Scales">
	<g>
		<path style="fill:#263238;stroke:#263238;stroke-linecap:round;stroke-linejoin:round;stroke-miterlimit:10;" d="M290.006,325.606
			h-5.598c-0.913,0-1.653-0.74-1.653-1.652V84.645h8.903v239.309C291.658,324.866,290.918,325.606,290.006,325.606z"/>
		<path style="fill:#263238;stroke:#263238;stroke-linecap:round;stroke-linejoin:round;stroke-miterlimit:10;" d="M288.276,76.545
			h-82.845c0,0,1.579,7.54-6.079,7.54c-5.203,0-7.164-3.211-4.634-8.56c1.745-3.69-5.81,1.004-6.122,6.122
			c-0.36,5.896,7.105,8.646,13.227,7.626c6.122-1.02,7.905-6.423,7.905-6.423l78.549,8.019V76.545z"/>
		<path style="fill:#263238;stroke:#263238;stroke-linecap:round;stroke-linejoin:round;stroke-miterlimit:10;" d="M288.276,76.545
			h82.845c0,0-1.579,7.54,6.079,7.54c5.203,0,7.164-3.211,4.634-8.56c-1.745-3.69,5.81,1.004,6.122,6.122
			c0.36,5.896-7.105,8.646-13.227,7.626c-6.122-1.02-7.905-6.423-7.905-6.423l-78.549,8.019V76.545z"/>
		<path style="fill:#263238;stroke:#263238;stroke-linecap:round;stroke-linejoin:round;stroke-miterlimit:10;" d="M285.804,35.232
			l-4.26,66.485l6.143,8.91l5.183-8.91l-4.26-66.485C288.497,33.477,285.916,33.477,285.804,35.232z"/>
		<path style="fill:#263238;stroke:#9E9E9E;stroke-linecap:round;stroke-linejoin:round;stroke-miterlimit:10;" d="M294.07,84.645
			c0-3.79-3.073-6.863-6.863-6.863c-3.79,0-6.863,3.073-6.863,6.863c0,3.79,3.073,6.863,6.863,6.863
			C290.997,91.508,294.07,88.436,294.07,84.645z"/>
		<path style="fill:#263238;stroke:#9E9E9E;stroke-linecap:round;stroke-linejoin:round;stroke-miterlimit:10;" d="M289.829,84.645
			c0-1.448-1.174-2.622-2.622-2.622c-1.448,0-2.622,1.174-2.622,2.622c0,1.448,1.174,2.622,2.622,2.622
			C288.655,87.267,289.829,86.093,289.829,84.645z"/>
		<g>
			<g>
				<path style="fill:#FFFFFF;stroke:#263238;stroke-linecap:round;stroke-linejoin:round;stroke-miterlimit:10;" d="M202.334,91.74
					L202.334,91.74c-0.902,0.318-1.892-0.157-2.209-1.059l-0.575-1.634c-0.318-0.903,0.157-1.892,1.059-2.209l0,0
					c0.902-0.318,1.891,0.157,2.209,1.059l0.575,1.634C203.71,90.434,203.236,91.423,202.334,91.74z"/>
				
					<line style="fill:#FFFFFF;stroke:#263238;stroke-linecap:round;stroke-linejoin:round;stroke-miterlimit:10;" x1="199.567" y1="83.878" x2="201.234" y2="88.616"/>
				<path style="fill:#FFFFFF;stroke:#263238;stroke-linecap:round;stroke-linejoin:round;stroke-miterlimit:10;" d="
					M204.661,98.353L204.661,98.353c-0.903,0.318-1.892-0.157-2.209-1.059l-0.575-1.634c-0.318-0.902,0.156-1.892,1.059-2.209l0,0
					c0.903-0.318,1.892,0.156,2.209,1.059l0.575,1.634C206.038,97.047,205.564,98.036,204.661,98.353z"/>
				
					<line style="fill:#FFFFFF;stroke:#263238;stroke-linecap:round;stroke-linejoin:round;stroke-miterlimit:10;" x1="201.894" y1="90.491" x2="203.562" y2="95.229"/>
				<path style="fill:#FFFFFF;stroke:#263238;stroke-linecap:round;stroke-linejoin:round;stroke-miterlimit:10;" d="
					M206.989,104.966L206.989,104.966c-0.902,0.318-1.892-0.157-2.209-1.059l-0.575-1.634c-0.318-0.902,0.156-1.892,1.059-2.209l0,0
					c0.902-0.318,1.892,0.157,2.209,1.059l0.575,1.634C208.365,103.66,207.891,104.649,206.989,104.966z"/>
				
					<line style="fill:#FFFFFF;stroke:#263238;stroke-linecap:round;stroke-linejoin:round;stroke-miterlimit:10;" x1="204.222" y1="97.104" x2="205.889" y2="101.842"/>
				<path style="fill:#FFFFFF;stroke:#263238;stroke-linecap:round;stroke-linejoin:round;stroke-miterlimit:10;" d="
					M209.316,111.579L209.316,111.579c-0.902,0.318-1.892-0.157-2.209-1.059l-0.575-1.634c-0.318-0.902,0.157-1.891,1.059-2.209l0,0
					c0.902-0.318,1.892,0.157,2.209,1.059l0.575,1.634C210.693,110.273,210.219,111.262,209.316,111.579z"/>
				
					<line style="fill:#FFFFFF;stroke:#263238;stroke-linecap:round;stroke-linejoin:round;stroke-miterlimit:10;" x1="206.549" y1="103.717" x2="208.216" y2="108.455"/>
				<path style="fill:#FFFFFF;stroke:#263238;stroke-linecap:round;stroke-linejoin:round;stroke-miterlimit:10;" d="
					M211.644,118.192L211.644,118.192c-0.902,0.318-1.892-0.156-2.209-1.059l-0.575-1.634c-0.318-0.902,0.156-1.891,1.059-2.209l0,0
					c0.903-0.318,1.892,0.157,2.209,1.059l0.575,1.634C213.02,116.886,212.546,117.875,211.644,118.192z"/>
				
					<line style="fill:#FFFFFF;stroke:#263238;stroke-linecap:round;stroke-linejoin:round;stroke-miterlimit:10;" x1="208.876" y1="110.33" x2="210.544" y2="115.068"/>
				<path style="fill:#FFFFFF;stroke:#263238;stroke-linecap:round;stroke-linejoin:round;stroke-miterlimit:10;" d="
					M213.971,124.806L213.971,124.806c-0.902,0.318-1.892-0.157-2.209-1.059l-0.575-1.634c-0.318-0.903,0.156-1.892,1.059-2.209l0,0
					c0.902-0.318,1.892,0.157,2.209,1.059l0.575,1.634C215.348,123.499,214.874,124.488,213.971,124.806z"/>
				
					<line style="fill:#FFFFFF;stroke:#263238;stroke-linecap:round;stroke-linejoin:round;stroke-miterlimit:10;" x1="211.204" y1="116.943" x2="212.871" y2="121.681"/>
				<path style="fill:#FFFFFF;stroke:#263238;stroke-linecap:round;stroke-linejoin:round;stroke-miterlimit:10;" d="
					M216.298,131.419L216.298,131.419c-0.902,0.318-1.891-0.156-2.209-1.059l-0.575-1.634c-0.318-0.902,0.157-1.892,1.059-2.209l0,0
					c0.902-0.318,1.892,0.156,2.209,1.059l0.575,1.634C217.675,130.112,217.201,131.101,216.298,131.419z"/>
				
					<line style="fill:#FFFFFF;stroke:#263238;stroke-linecap:round;stroke-linejoin:round;stroke-miterlimit:10;" x1="213.531" y1="123.556" x2="215.199" y2="128.294"/>
				<path style="fill:#FFFFFF;stroke:#263238;stroke-linecap:round;stroke-linejoin:round;stroke-miterlimit:10;" d="
					M218.626,138.032L218.626,138.032c-0.902,0.318-1.892-0.156-2.209-1.059l-0.575-1.634c-0.318-0.902,0.157-1.892,1.059-2.209l0,0
					c0.903-0.318,1.892,0.156,2.209,1.059l0.575,1.634C220.003,136.725,219.528,137.714,218.626,138.032z"/>
				
					<line style="fill:#FFFFFF;stroke:#263238;stroke-linecap:round;stroke-linejoin:round;stroke-miterlimit:10;" x1="215.859" y1="130.169" x2="217.526" y2="134.907"/>
				<path style="fill:#FFFFFF;stroke:#263238;stroke-linecap:round;stroke-linejoin:round;stroke-miterlimit:10;" d="
					M220.953,144.645L220.953,144.645c-0.902,0.318-1.892-0.157-2.209-1.059l-0.575-1.634c-0.318-0.902,0.156-1.892,1.059-2.209l0,0
					c0.903-0.318,1.892,0.156,2.209,1.059l0.575,1.634C222.33,143.338,221.856,144.327,220.953,144.645z"/>
				
					<line style="fill:#FFFFFF;stroke:#263238;stroke-linecap:round;stroke-linejoin:round;stroke-miterlimit:10;" x1="218.186" y1="136.782" x2="219.854" y2="141.52"/>
				<path style="fill:#FFFFFF;stroke:#263238;stroke-linecap:round;stroke-linejoin:round;stroke-miterlimit:10;" d="
					M223.281,151.258L223.281,151.258c-0.902,0.318-1.891-0.156-2.209-1.059l-0.575-1.634c-0.318-0.903,0.156-1.892,1.059-2.209l0,0
					c0.902-0.318,1.892,0.156,2.209,1.059l0.575,1.634C224.657,149.951,224.183,150.94,223.281,151.258z"/>
				
					<line style="fill:#FFFFFF;stroke:#263238;stroke-linecap:round;stroke-linejoin:round;stroke-miterlimit:10;" x1="220.514" y1="143.395" x2="222.181" y2="148.133"/>
				<path style="fill:#FFFFFF;stroke:#263238;stroke-linecap:round;stroke-linejoin:round;stroke-miterlimit:10;" d="
					M225.608,157.871L225.608,157.871c-0.902,0.318-1.892-0.156-2.209-1.059l-0.575-1.634c-0.318-0.902,0.157-1.892,1.059-2.209l0,0
					c0.902-0.318,1.891,0.156,2.209,1.059l0.575,1.634C226.985,156.564,226.511,157.553,225.608,157.871z"/>
				
					<line style="fill:#FFFFFF;stroke:#263238;stroke-linecap:round;stroke-linejoin:round;stroke-miterlimit:10;" x1="222.841" y1="150.008" x2="224.509" y2="154.746"/>
				<path style="fill:#FFFFFF;stroke:#263238;stroke-linecap:round;stroke-linejoin:round;stroke-miterlimit:10;" d="
					M227.936,164.484L227.936,164.484c-0.902,0.318-1.892-0.156-2.209-1.059l-0.575-1.634c-0.318-0.902,0.156-1.891,1.059-2.209l0,0
					c0.902-0.318,1.892,0.156,2.209,1.059l0.575,1.634C229.312,163.177,228.838,164.166,227.936,164.484z"/>
				
					<line style="fill:#FFFFFF;stroke:#263238;stroke-linecap:round;stroke-linejoin:round;stroke-miterlimit:10;" x1="225.169" y1="156.622" x2="226.836" y2="161.359"/>
				<path style="fill:#FFFFFF;stroke:#263238;stroke-linecap:round;stroke-linejoin:round;stroke-miterlimit:10;" d="
					M230.263,171.097L230.263,171.097c-0.902,0.318-1.892-0.156-2.209-1.059l-0.575-1.634c-0.318-0.903,0.157-1.892,1.059-2.209h0
					c0.902-0.318,1.891,0.157,2.209,1.059l0.575,1.634C231.64,169.79,231.166,170.779,230.263,171.097z"/>
				
					<line style="fill:#FFFFFF;stroke:#263238;stroke-linecap:round;stroke-linejoin:round;stroke-miterlimit:10;" x1="227.496" y1="163.235" x2="229.163" y2="167.972"/>
				<path style="fill:#FFFFFF;stroke:#263238;stroke-linecap:round;stroke-linejoin:round;stroke-miterlimit:10;" d="
					M232.591,177.71L232.591,177.71c-0.902,0.318-1.892-0.156-2.209-1.059l-0.575-1.634c-0.318-0.902,0.157-1.891,1.059-2.209l0,0
					c0.902-0.318,1.891,0.156,2.209,1.059l0.575,1.634C233.967,176.403,233.493,177.393,232.591,177.71z"/>
				
					<line style="fill:#FFFFFF;stroke:#263238;stroke-linecap:round;stroke-linejoin:round;stroke-miterlimit:10;" x1="229.824" y1="169.848" x2="231.491" y2="174.585"/>
			</g>
			<g>
				<path style="fill:#FFFFFF;stroke:#263238;stroke-linecap:round;stroke-linejoin:round;stroke-miterlimit:10;" d="
					M195.757,91.676L195.757,91.676c0.901,0.321,1.892-0.15,2.213-1.051l0.581-1.632c0.321-0.901-0.15-1.892-1.051-2.213l0,0
					c-0.901-0.321-1.892,0.15-2.213,1.051l-0.581,1.632C194.385,90.365,194.856,91.355,195.757,91.676z"/>
				
					<line style="fill:#FFFFFF;stroke:#263238;stroke-linecap:round;stroke-linejoin:round;stroke-miterlimit:10;" x1="198.551" y1="83.823" x2="196.868" y2="88.555"/>
				<path style="fill:#FFFFFF;stroke:#263238;stroke-linecap:round;stroke-linejoin:round;stroke-miterlimit:10;" d="
					M193.407,98.281L193.407,98.281c0.901,0.321,1.892-0.15,2.213-1.051l0.581-1.632c0.321-0.901-0.15-1.892-1.051-2.213l0,0
					c-0.901-0.321-1.892,0.15-2.213,1.051l-0.581,1.632C192.035,96.97,192.506,97.96,193.407,98.281z"/>
				
					<line style="fill:#FFFFFF;stroke:#263238;stroke-linecap:round;stroke-linejoin:round;stroke-miterlimit:10;" x1="196.201" y1="90.428" x2="194.518" y2="95.16"/>
				<path style="fill:#FFFFFF;stroke:#263238;stroke-linecap:round;stroke-linejoin:round;stroke-miterlimit:10;" d="
					M191.057,104.886L191.057,104.886c0.901,0.321,1.892-0.15,2.213-1.051l0.581-1.632c0.321-0.901-0.15-1.892-1.051-2.213l0,0
					c-0.901-0.321-1.892,0.15-2.213,1.051l-0.581,1.632C189.685,103.575,190.156,104.565,191.057,104.886z"/>
				
					<line style="fill:#FFFFFF;stroke:#263238;stroke-linecap:round;stroke-linejoin:round;stroke-miterlimit:10;" x1="193.851" y1="97.033" x2="192.168" y2="101.765"/>
				<path style="fill:#FFFFFF;stroke:#263238;stroke-linecap:round;stroke-linejoin:round;stroke-miterlimit:10;" d="
					M188.707,111.491L188.707,111.491c0.901,0.321,1.892-0.15,2.213-1.051l0.581-1.632c0.321-0.901-0.15-1.892-1.051-2.213h0
					c-0.901-0.321-1.892,0.15-2.213,1.051l-0.581,1.632C187.335,110.18,187.806,111.171,188.707,111.491z"/>
				
					<line style="fill:#FFFFFF;stroke:#263238;stroke-linecap:round;stroke-linejoin:round;stroke-miterlimit:10;" x1="191.501" y1="103.638" x2="189.817" y2="108.37"/>
				<path style="fill:#FFFFFF;stroke:#263238;stroke-linecap:round;stroke-linejoin:round;stroke-miterlimit:10;" d="
					M186.357,118.096L186.357,118.096c0.901,0.321,1.892-0.15,2.213-1.051l0.581-1.632c0.321-0.901-0.15-1.892-1.051-2.213l0,0
					c-0.901-0.321-1.892,0.15-2.213,1.051l-0.581,1.632C184.985,116.785,185.455,117.775,186.357,118.096z"/>
				
					<line style="fill:#FFFFFF;stroke:#263238;stroke-linecap:round;stroke-linejoin:round;stroke-miterlimit:10;" x1="189.151" y1="110.243" x2="187.467" y2="114.975"/>
				<path style="fill:#FFFFFF;stroke:#263238;stroke-linecap:round;stroke-linejoin:round;stroke-miterlimit:10;" d="
					M184.007,124.701L184.007,124.701c0.901,0.321,1.892-0.15,2.213-1.051l0.581-1.632c0.321-0.901-0.15-1.892-1.051-2.213l0,0
					c-0.901-0.321-1.892,0.15-2.213,1.051l-0.581,1.632C182.635,123.39,183.105,124.381,184.007,124.701z"/>
				
					<line style="fill:#FFFFFF;stroke:#263238;stroke-linecap:round;stroke-linejoin:round;stroke-miterlimit:10;" x1="186.801" y1="116.849" x2="185.117" y2="121.58"/>
				<path style="fill:#FFFFFF;stroke:#263238;stroke-linecap:round;stroke-linejoin:round;stroke-miterlimit:10;" d="
					M181.657,131.306L181.657,131.306c0.901,0.321,1.892-0.15,2.213-1.051l0.581-1.632c0.321-0.901-0.15-1.892-1.051-2.213l0,0
					c-0.901-0.321-1.892,0.15-2.213,1.051l-0.581,1.632C180.285,129.995,180.755,130.986,181.657,131.306z"/>
				
					<line style="fill:#FFFFFF;stroke:#263238;stroke-linecap:round;stroke-linejoin:round;stroke-miterlimit:10;" x1="184.451" y1="123.453" x2="182.767" y2="128.186"/>
				<path style="fill:#FFFFFF;stroke:#263238;stroke-linecap:round;stroke-linejoin:round;stroke-miterlimit:10;" d="
					M179.307,137.911L179.307,137.911c0.901,0.321,1.892-0.15,2.213-1.051l0.581-1.632c0.321-0.901-0.15-1.892-1.051-2.213l0,0
					c-0.901-0.321-1.892,0.15-2.213,1.051l-0.581,1.632C177.934,136.6,178.405,137.591,179.307,137.911z"/>
				
					<line style="fill:#FFFFFF;stroke:#263238;stroke-linecap:round;stroke-linejoin:round;stroke-miterlimit:10;" x1="182.101" y1="130.059" x2="180.417" y2="134.79"/>
				<path style="fill:#FFFFFF;stroke:#263238;stroke-linecap:round;stroke-linejoin:round;stroke-miterlimit:10;" d="
					M176.956,144.516L176.956,144.516c0.901,0.321,1.892-0.15,2.213-1.051l0.581-1.632c0.321-0.901-0.15-1.892-1.051-2.213l0,0
					c-0.901-0.321-1.892,0.15-2.213,1.051l-0.581,1.632C175.584,143.205,176.055,144.196,176.956,144.516z"/>
				
					<line style="fill:#FFFFFF;stroke:#263238;stroke-linecap:round;stroke-linejoin:round;stroke-miterlimit:10;" x1="179.751" y1="136.664" x2="178.067" y2="141.395"/>
				<path style="fill:#FFFFFF;stroke:#263238;stroke-linecap:round;stroke-linejoin:round;stroke-miterlimit:10;" d="
					M174.606,151.121L174.606,151.121c0.901,0.321,1.892-0.15,2.213-1.051l0.581-1.632c0.321-0.901-0.15-1.892-1.051-2.213l0,0
					c-0.901-0.321-1.892,0.15-2.213,1.051l-0.581,1.632C173.234,149.81,173.705,150.801,174.606,151.121z"/>
				
					<line style="fill:#FFFFFF;stroke:#263238;stroke-linecap:round;stroke-linejoin:round;stroke-miterlimit:10;" x1="177.4" y1="143.269" x2="175.717" y2="148.001"/>
				<path style="fill:#FFFFFF;stroke:#263238;stroke-linecap:round;stroke-linejoin:round;stroke-miterlimit:10;" d="
					M172.256,157.727L172.256,157.727c0.901,0.321,1.892-0.15,2.213-1.051l0.581-1.632c0.321-0.901-0.15-1.892-1.051-2.213l0,0
					c-0.901-0.321-1.892,0.15-2.213,1.051l-0.581,1.632C170.884,156.415,171.355,157.406,172.256,157.727z"/>
				
					<line style="fill:#FFFFFF;stroke:#263238;stroke-linecap:round;stroke-linejoin:round;stroke-miterlimit:10;" x1="175.05" y1="149.874" x2="173.367" y2="154.606"/>
				<path style="fill:#FFFFFF;stroke:#263238;stroke-linecap:round;stroke-linejoin:round;stroke-miterlimit:10;" d="
					M169.906,164.331L169.906,164.331c0.901,0.321,1.892-0.15,2.213-1.051l0.581-1.632c0.321-0.901-0.15-1.892-1.051-2.213l0,0
					c-0.901-0.321-1.892,0.15-2.213,1.051l-0.581,1.632C168.534,163.02,169.005,164.011,169.906,164.331z"/>
				
					<line style="fill:#FFFFFF;stroke:#263238;stroke-linecap:round;stroke-linejoin:round;stroke-miterlimit:10;" x1="172.7" y1="156.479" x2="171.016" y2="161.211"/>
				<path style="fill:#FFFFFF;stroke:#263238;stroke-linecap:round;stroke-linejoin:round;stroke-miterlimit:10;" d="
					M167.556,170.936L167.556,170.936c0.901,0.321,1.892-0.15,2.213-1.051l0.581-1.632c0.321-0.901-0.15-1.892-1.051-2.213l0,0
					c-0.901-0.321-1.892,0.15-2.213,1.051l-0.581,1.632C166.184,169.625,166.655,170.616,167.556,170.936z"/>
				
					<line style="fill:#FFFFFF;stroke:#263238;stroke-linecap:round;stroke-linejoin:round;stroke-miterlimit:10;" x1="170.35" y1="163.084" x2="168.666" y2="167.816"/>
				<path style="fill:#FFFFFF;stroke:#263238;stroke-linecap:round;stroke-linejoin:round;stroke-miterlimit:10;" d="
					M165.206,177.542L165.206,177.542c0.901,0.321,1.892-0.15,2.213-1.051l0.581-1.632c0.321-0.901-0.15-1.892-1.051-2.213l0,0
					c-0.901-0.321-1.892,0.15-2.213,1.051l-0.581,1.632C163.834,176.23,164.305,177.221,165.206,177.542z"/>
				
					<line style="fill:#FFFFFF;stroke:#263238;stroke-linecap:round;stroke-linejoin:round;stroke-miterlimit:10;" x1="168" y1="169.689" x2="166.316" y2="174.421"/>
			</g>
			<g>
				<path style="fill:#FFFFFF;stroke:#263238;stroke-linecap:round;stroke-linejoin:round;stroke-miterlimit:10;" d="
					M198.388,92.429L198.388,92.429c0.957,0.014,1.743-0.75,1.757-1.707l0.025-1.732c0.014-0.957-0.75-1.743-1.707-1.757l0,0
					c-0.957-0.014-1.743,0.75-1.757,1.707l-0.025,1.732C196.668,91.628,197.432,92.415,198.388,92.429z"/>
				
					<line style="fill:#FFFFFF;stroke:#263238;stroke-linecap:round;stroke-linejoin:round;stroke-miterlimit:10;" x1="198.51" y1="84.095" x2="198.437" y2="89.117"/>
				<path style="fill:#FFFFFF;stroke:#263238;stroke-linecap:round;stroke-linejoin:round;stroke-miterlimit:10;" d="
					M198.286,99.439L198.286,99.439c0.957,0.014,1.743-0.75,1.757-1.707L200.069,96c0.014-0.957-0.75-1.743-1.707-1.757h0
					c-0.957-0.014-1.743,0.75-1.757,1.707l-0.025,1.732C196.565,98.638,197.329,99.425,198.286,99.439z"/>
				
					<line style="fill:#FFFFFF;stroke:#263238;stroke-linecap:round;stroke-linejoin:round;stroke-miterlimit:10;" x1="198.408" y1="91.104" x2="198.335" y2="96.127"/>
				<path style="fill:#FFFFFF;stroke:#263238;stroke-linecap:round;stroke-linejoin:round;stroke-miterlimit:10;" d="
					M198.184,106.449L198.184,106.449c0.957,0.014,1.743-0.75,1.757-1.707l0.025-1.732c0.014-0.957-0.75-1.743-1.707-1.757l0,0
					c-0.957-0.014-1.743,0.75-1.757,1.707l-0.025,1.732C196.463,105.648,197.227,106.435,198.184,106.449z"/>
				
					<line style="fill:#FFFFFF;stroke:#263238;stroke-linecap:round;stroke-linejoin:round;stroke-miterlimit:10;" x1="198.305" y1="98.114" x2="198.232" y2="103.136"/>
				<path style="fill:#FFFFFF;stroke:#263238;stroke-linecap:round;stroke-linejoin:round;stroke-miterlimit:10;" d="
					M198.082,113.459L198.082,113.459c0.957,0.014,1.743-0.75,1.757-1.707l0.025-1.732c0.014-0.957-0.75-1.743-1.707-1.757l0,0
					c-0.957-0.014-1.743,0.75-1.757,1.707l-0.025,1.732C196.361,112.658,197.125,113.445,198.082,113.459z"/>
				
					<line style="fill:#FFFFFF;stroke:#263238;stroke-linecap:round;stroke-linejoin:round;stroke-miterlimit:10;" x1="198.203" y1="105.124" x2="198.13" y2="110.146"/>
				<path style="fill:#FFFFFF;stroke:#263238;stroke-linecap:round;stroke-linejoin:round;stroke-miterlimit:10;" d="
					M197.979,120.468L197.979,120.468c0.957,0.014,1.743-0.75,1.757-1.707l0.025-1.732c0.014-0.957-0.75-1.743-1.707-1.757l0,0
					c-0.957-0.014-1.743,0.75-1.757,1.707l-0.025,1.732C196.259,119.668,197.023,120.454,197.979,120.468z"/>
				
					<line style="fill:#FFFFFF;stroke:#263238;stroke-linecap:round;stroke-linejoin:round;stroke-miterlimit:10;" x1="198.101" y1="112.134" x2="198.028" y2="117.156"/>
				<path style="fill:#FFFFFF;stroke:#263238;stroke-linecap:round;stroke-linejoin:round;stroke-miterlimit:10;" d="
					M197.877,127.478L197.877,127.478c0.957,0.014,1.743-0.75,1.757-1.707l0.025-1.732c0.014-0.957-0.75-1.743-1.707-1.757l0,0
					c-0.957-0.014-1.743,0.75-1.757,1.707l-0.025,1.732C196.156,126.678,196.921,127.465,197.877,127.478z"/>
				
					<line style="fill:#FFFFFF;stroke:#263238;stroke-linecap:round;stroke-linejoin:round;stroke-miterlimit:10;" x1="197.999" y1="119.144" x2="197.925" y2="124.166"/>
				<path style="fill:#FFFFFF;stroke:#263238;stroke-linecap:round;stroke-linejoin:round;stroke-miterlimit:10;" d="
					M197.775,134.488L197.775,134.488c0.957,0.014,1.743-0.75,1.757-1.707l0.025-1.732c0.014-0.957-0.75-1.743-1.707-1.757l0,0
					c-0.957-0.014-1.743,0.75-1.757,1.707l-0.025,1.732C196.054,133.688,196.818,134.474,197.775,134.488z"/>
				
					<line style="fill:#FFFFFF;stroke:#263238;stroke-linecap:round;stroke-linejoin:round;stroke-miterlimit:10;" x1="197.896" y1="126.154" x2="197.823" y2="131.176"/>
				<path style="fill:#FFFFFF;stroke:#263238;stroke-linecap:round;stroke-linejoin:round;stroke-miterlimit:10;" d="
					M197.673,141.498L197.673,141.498c0.957,0.014,1.743-0.75,1.757-1.707l0.025-1.732c0.014-0.957-0.75-1.743-1.707-1.757l0,0
					c-0.957-0.014-1.743,0.75-1.757,1.707l-0.025,1.732C195.952,140.697,196.716,141.484,197.673,141.498z"/>
				
					<line style="fill:#FFFFFF;stroke:#263238;stroke-linecap:round;stroke-linejoin:round;stroke-miterlimit:10;" x1="197.794" y1="133.164" x2="197.721" y2="138.186"/>
				<path style="fill:#FFFFFF;stroke:#263238;stroke-linecap:round;stroke-linejoin:round;stroke-miterlimit:10;" d="
					M197.57,148.508L197.57,148.508c0.957,0.014,1.743-0.75,1.757-1.707l0.025-1.732c0.014-0.957-0.75-1.743-1.707-1.757l0,0
					c-0.957-0.014-1.743,0.75-1.757,1.707l-0.025,1.732C195.85,147.707,196.614,148.494,197.57,148.508z"/>
				
					<line style="fill:#FFFFFF;stroke:#263238;stroke-linecap:round;stroke-linejoin:round;stroke-miterlimit:10;" x1="197.692" y1="140.174" x2="197.619" y2="145.196"/>
				<path style="fill:#FFFFFF;stroke:#263238;stroke-linecap:round;stroke-linejoin:round;stroke-miterlimit:10;" d="
					M197.468,155.518L197.468,155.518c0.957,0.014,1.743-0.75,1.757-1.707l0.025-1.732c0.014-0.957-0.75-1.743-1.707-1.757l0,0
					c-0.957-0.014-1.743,0.75-1.757,1.707l-0.025,1.732C195.747,154.717,196.512,155.504,197.468,155.518z"/>
				
					<line style="fill:#FFFFFF;stroke:#263238;stroke-linecap:round;stroke-linejoin:round;stroke-miterlimit:10;" x1="197.59" y1="147.184" x2="197.517" y2="152.206"/>
				<path style="fill:#FFFFFF;stroke:#263238;stroke-linecap:round;stroke-linejoin:round;stroke-miterlimit:10;" d="
					M197.366,162.528L197.366,162.528c0.957,0.014,1.743-0.75,1.757-1.707l0.025-1.732c0.014-0.957-0.75-1.743-1.707-1.757l0,0
					c-0.957-0.014-1.743,0.75-1.757,1.707l-0.025,1.732C195.645,161.727,196.409,162.514,197.366,162.528z"/>
				
					<line style="fill:#FFFFFF;stroke:#263238;stroke-linecap:round;stroke-linejoin:round;stroke-miterlimit:10;" x1="197.488" y1="154.194" x2="197.414" y2="159.216"/>
				<path style="fill:#FFFFFF;stroke:#263238;stroke-linecap:round;stroke-linejoin:round;stroke-miterlimit:10;" d="
					M197.264,169.538L197.264,169.538c0.957,0.014,1.743-0.75,1.757-1.707l0.025-1.732c0.014-0.957-0.75-1.743-1.707-1.757l0,0
					c-0.957-0.014-1.743,0.75-1.757,1.707l-0.025,1.732C195.543,168.737,196.307,169.524,197.264,169.538z"/>
				
					<line style="fill:#FFFFFF;stroke:#263238;stroke-linecap:round;stroke-linejoin:round;stroke-miterlimit:10;" x1="197.385" y1="161.204" x2="197.312" y2="166.226"/>
				<path style="fill:#FFFFFF;stroke:#263238;stroke-linecap:round;stroke-linejoin:round;stroke-miterlimit:10;" d="
					M197.162,176.548L197.162,176.548c0.957,0.014,1.743-0.75,1.757-1.707l0.025-1.732c0.014-0.957-0.75-1.743-1.707-1.757l0,0
					c-0.957-0.014-1.743,0.75-1.757,1.707l-0.025,1.732C195.441,175.747,196.205,176.534,197.162,176.548z"/>
				
					<line style="fill:#FFFFFF;stroke:#263238;stroke-linecap:round;stroke-linejoin:round;stroke-miterlimit:10;" x1="197.283" y1="168.214" x2="197.21" y2="173.236"/>
				<path style="fill:#FFFFFF;stroke:#263238;stroke-linecap:round;stroke-linejoin:round;stroke-miterlimit:10;" d="
					M197.059,183.558L197.059,183.558c0.957,0.014,1.743-0.75,1.757-1.707l0.025-1.732c0.014-0.957-0.75-1.743-1.707-1.757l0,0
					c-0.957-0.014-1.743,0.75-1.757,1.707l-0.025,1.732C195.339,182.757,196.103,183.544,197.059,183.558z"/>
				
					<line style="fill:#FFFFFF;stroke:#263238;stroke-linecap:round;stroke-linejoin:round;stroke-miterlimit:10;" x1="197.181" y1="175.224" x2="197.108" y2="180.246"/>
			</g>
			<path style="fill:#263238;stroke:#263238;stroke-linecap:round;stroke-linejoin:round;stroke-miterlimit:10;" d="
				M199.683,186.913c20.125,0,36.534-4.561,37.387-10.279h-74.773C163.149,182.352,179.558,186.913,199.683,186.913z"/>
		</g>
		<g>
			<g>
				<path style="fill:#FFFFFF;stroke:#263238;stroke-linecap:round;stroke-linejoin:round;stroke-miterlimit:10;" d="M380.524,91.74
					L380.524,91.74c-0.902,0.318-1.892-0.157-2.209-1.059l-0.575-1.634c-0.318-0.903,0.156-1.892,1.059-2.209l0,0
					c0.902-0.318,1.891,0.157,2.209,1.059l0.575,1.634C381.901,90.434,381.426,91.423,380.524,91.74z"/>
				
					<line style="fill:#FFFFFF;stroke:#263238;stroke-linecap:round;stroke-linejoin:round;stroke-miterlimit:10;" x1="377.757" y1="83.878" x2="379.424" y2="88.616"/>
				<path style="fill:#FFFFFF;stroke:#263238;stroke-linecap:round;stroke-linejoin:round;stroke-miterlimit:10;" d="
					M382.852,98.353L382.852,98.353c-0.902,0.318-1.892-0.157-2.209-1.059l-0.575-1.634c-0.318-0.902,0.156-1.892,1.059-2.209l0,0
					c0.902-0.318,1.892,0.156,2.209,1.059l0.575,1.634C384.228,97.047,383.754,98.036,382.852,98.353z"/>
				
					<line style="fill:#FFFFFF;stroke:#263238;stroke-linecap:round;stroke-linejoin:round;stroke-miterlimit:10;" x1="380.084" y1="90.491" x2="381.752" y2="95.229"/>
				<path style="fill:#FFFFFF;stroke:#263238;stroke-linecap:round;stroke-linejoin:round;stroke-miterlimit:10;" d="
					M385.179,104.966L385.179,104.966c-0.902,0.318-1.892-0.157-2.209-1.059l-0.575-1.634c-0.318-0.902,0.156-1.892,1.059-2.209l0,0
					c0.902-0.318,1.892,0.157,2.209,1.059l0.575,1.634C386.555,103.66,386.081,104.649,385.179,104.966z"/>
				
					<line style="fill:#FFFFFF;stroke:#263238;stroke-linecap:round;stroke-linejoin:round;stroke-miterlimit:10;" x1="382.412" y1="97.104" x2="384.079" y2="101.842"/>
				<path style="fill:#FFFFFF;stroke:#263238;stroke-linecap:round;stroke-linejoin:round;stroke-miterlimit:10;" d="
					M387.506,111.579L387.506,111.579c-0.903,0.318-1.892-0.157-2.209-1.059l-0.575-1.634c-0.318-0.902,0.156-1.891,1.059-2.209l0,0
					c0.902-0.318,1.891,0.157,2.209,1.059l0.575,1.634C388.883,110.273,388.409,111.262,387.506,111.579z"/>
				
					<line style="fill:#FFFFFF;stroke:#263238;stroke-linecap:round;stroke-linejoin:round;stroke-miterlimit:10;" x1="384.739" y1="103.717" x2="386.407" y2="108.455"/>
				<path style="fill:#FFFFFF;stroke:#263238;stroke-linecap:round;stroke-linejoin:round;stroke-miterlimit:10;" d="
					M389.834,118.192L389.834,118.192c-0.902,0.318-1.892-0.156-2.209-1.059l-0.575-1.634c-0.318-0.902,0.156-1.891,1.059-2.209l0,0
					c0.902-0.318,1.892,0.157,2.209,1.059l0.575,1.634C391.21,116.886,390.736,117.875,389.834,118.192z"/>
				
					<line style="fill:#FFFFFF;stroke:#263238;stroke-linecap:round;stroke-linejoin:round;stroke-miterlimit:10;" x1="387.067" y1="110.33" x2="388.734" y2="115.068"/>
				<path style="fill:#FFFFFF;stroke:#263238;stroke-linecap:round;stroke-linejoin:round;stroke-miterlimit:10;" d="
					M392.161,124.806L392.161,124.806c-0.902,0.318-1.892-0.157-2.209-1.059l-0.575-1.634c-0.318-0.903,0.156-1.892,1.059-2.209l0,0
					c0.902-0.318,1.891,0.157,2.209,1.059l0.575,1.634C393.538,123.499,393.064,124.488,392.161,124.806z"/>
				
					<line style="fill:#FFFFFF;stroke:#263238;stroke-linecap:round;stroke-linejoin:round;stroke-miterlimit:10;" x1="389.394" y1="116.943" x2="391.062" y2="121.681"/>
				<path style="fill:#FFFFFF;stroke:#263238;stroke-linecap:round;stroke-linejoin:round;stroke-miterlimit:10;" d="
					M394.489,131.419L394.489,131.419c-0.902,0.318-1.891-0.156-2.209-1.059l-0.575-1.634c-0.318-0.902,0.156-1.892,1.059-2.209l0,0
					c0.902-0.318,1.892,0.156,2.209,1.059l0.575,1.634C395.865,130.112,395.391,131.101,394.489,131.419z"/>
				
					<line style="fill:#FFFFFF;stroke:#263238;stroke-linecap:round;stroke-linejoin:round;stroke-miterlimit:10;" x1="391.722" y1="123.556" x2="393.389" y2="128.294"/>
				<path style="fill:#FFFFFF;stroke:#263238;stroke-linecap:round;stroke-linejoin:round;stroke-miterlimit:10;" d="
					M396.816,138.032L396.816,138.032c-0.902,0.318-1.892-0.156-2.209-1.059l-0.575-1.634c-0.318-0.902,0.156-1.892,1.059-2.209l0,0
					c0.902-0.318,1.892,0.156,2.209,1.059l0.575,1.634C398.193,136.725,397.719,137.714,396.816,138.032z"/>
				
					<line style="fill:#FFFFFF;stroke:#263238;stroke-linecap:round;stroke-linejoin:round;stroke-miterlimit:10;" x1="394.049" y1="130.169" x2="395.716" y2="134.907"/>
				<path style="fill:#FFFFFF;stroke:#263238;stroke-linecap:round;stroke-linejoin:round;stroke-miterlimit:10;" d="
					M399.144,144.645L399.144,144.645c-0.902,0.318-1.892-0.157-2.209-1.059l-0.575-1.634c-0.318-0.902,0.156-1.892,1.059-2.209l0,0
					c0.902-0.318,1.891,0.156,2.209,1.059l0.575,1.634C400.52,143.338,400.046,144.327,399.144,144.645z"/>
				
					<line style="fill:#FFFFFF;stroke:#263238;stroke-linecap:round;stroke-linejoin:round;stroke-miterlimit:10;" x1="396.376" y1="136.782" x2="398.044" y2="141.52"/>
				<path style="fill:#FFFFFF;stroke:#263238;stroke-linecap:round;stroke-linejoin:round;stroke-miterlimit:10;" d="
					M401.471,151.258L401.471,151.258c-0.902,0.318-1.891-0.156-2.209-1.059l-0.575-1.634c-0.318-0.903,0.156-1.892,1.059-2.209l0,0
					c0.902-0.318,1.892,0.156,2.209,1.059l0.575,1.634C402.848,149.951,402.374,150.94,401.471,151.258z"/>
				
					<line style="fill:#FFFFFF;stroke:#263238;stroke-linecap:round;stroke-linejoin:round;stroke-miterlimit:10;" x1="398.704" y1="143.395" x2="400.371" y2="148.133"/>
				<path style="fill:#FFFFFF;stroke:#263238;stroke-linecap:round;stroke-linejoin:round;stroke-miterlimit:10;" d="
					M403.798,157.871L403.798,157.871c-0.902,0.318-1.892-0.156-2.209-1.059l-0.575-1.634c-0.318-0.902,0.156-1.892,1.059-2.209l0,0
					c0.902-0.318,1.892,0.156,2.209,1.059l0.575,1.634C405.175,156.564,404.701,157.553,403.798,157.871z"/>
				
					<line style="fill:#FFFFFF;stroke:#263238;stroke-linecap:round;stroke-linejoin:round;stroke-miterlimit:10;" x1="401.031" y1="150.008" x2="402.699" y2="154.746"/>
				<path style="fill:#FFFFFF;stroke:#263238;stroke-linecap:round;stroke-linejoin:round;stroke-miterlimit:10;" d="
					M406.126,164.484L406.126,164.484c-0.902,0.318-1.891-0.156-2.209-1.059l-0.575-1.634c-0.318-0.902,0.156-1.891,1.059-2.209l0,0
					c0.902-0.318,1.892,0.156,2.209,1.059l0.575,1.634C407.503,163.177,407.028,164.166,406.126,164.484z"/>
				
					<line style="fill:#FFFFFF;stroke:#263238;stroke-linecap:round;stroke-linejoin:round;stroke-miterlimit:10;" x1="403.359" y1="156.622" x2="405.026" y2="161.359"/>
				<path style="fill:#FFFFFF;stroke:#263238;stroke-linecap:round;stroke-linejoin:round;stroke-miterlimit:10;" d="
					M408.453,171.097L408.453,171.097c-0.902,0.318-1.892-0.156-2.209-1.059l-0.575-1.634c-0.318-0.903,0.156-1.892,1.059-2.209l0,0
					c0.902-0.318,1.892,0.157,2.209,1.059l0.575,1.634C409.83,169.79,409.356,170.779,408.453,171.097z"/>
				
					<line style="fill:#FFFFFF;stroke:#263238;stroke-linecap:round;stroke-linejoin:round;stroke-miterlimit:10;" x1="405.686" y1="163.235" x2="407.354" y2="167.972"/>
				<path style="fill:#FFFFFF;stroke:#263238;stroke-linecap:round;stroke-linejoin:round;stroke-miterlimit:10;" d="
					M410.781,177.71L410.781,177.71c-0.902,0.318-1.892-0.156-2.209-1.059l-0.575-1.634c-0.318-0.902,0.156-1.891,1.059-2.209l0,0
					c0.902-0.318,1.892,0.156,2.209,1.059l0.575,1.634C412.157,176.403,411.683,177.393,410.781,177.71z"/>
				
					<line style="fill:#FFFFFF;stroke:#263238;stroke-linecap:round;stroke-linejoin:round;stroke-miterlimit:10;" x1="408.014" y1="169.848" x2="409.681" y2="174.585"/>
			</g>
			<g>
				<path style="fill:#FFFFFF;stroke:#263238;stroke-linecap:round;stroke-linejoin:round;stroke-miterlimit:10;" d="
					M373.948,91.676L373.948,91.676c0.901,0.321,1.892-0.15,2.213-1.051l0.581-1.632c0.321-0.901-0.15-1.892-1.051-2.213l0,0
					c-0.901-0.321-1.892,0.15-2.213,1.051l-0.581,1.632C372.576,90.365,373.046,91.355,373.948,91.676z"/>
				
					<line style="fill:#FFFFFF;stroke:#263238;stroke-linecap:round;stroke-linejoin:round;stroke-miterlimit:10;" x1="376.742" y1="83.823" x2="375.058" y2="88.555"/>
				<path style="fill:#FFFFFF;stroke:#263238;stroke-linecap:round;stroke-linejoin:round;stroke-miterlimit:10;" d="
					M371.598,98.281L371.598,98.281c0.901,0.321,1.892-0.15,2.213-1.051l0.581-1.632c0.321-0.901-0.15-1.892-1.051-2.213l0,0
					c-0.901-0.321-1.892,0.15-2.213,1.051l-0.581,1.632C370.225,96.97,370.696,97.96,371.598,98.281z"/>
				
					<line style="fill:#FFFFFF;stroke:#263238;stroke-linecap:round;stroke-linejoin:round;stroke-miterlimit:10;" x1="374.391" y1="90.428" x2="372.708" y2="95.16"/>
				<path style="fill:#FFFFFF;stroke:#263238;stroke-linecap:round;stroke-linejoin:round;stroke-miterlimit:10;" d="
					M369.247,104.886L369.247,104.886c0.901,0.321,1.892-0.15,2.213-1.051l0.581-1.632c0.321-0.901-0.15-1.892-1.051-2.213l0,0
					c-0.901-0.321-1.892,0.15-2.213,1.051l-0.581,1.632C367.875,103.575,368.346,104.565,369.247,104.886z"/>
				
					<line style="fill:#FFFFFF;stroke:#263238;stroke-linecap:round;stroke-linejoin:round;stroke-miterlimit:10;" x1="372.041" y1="97.033" x2="370.358" y2="101.765"/>
				<path style="fill:#FFFFFF;stroke:#263238;stroke-linecap:round;stroke-linejoin:round;stroke-miterlimit:10;" d="
					M366.897,111.491L366.897,111.491c0.901,0.321,1.892-0.15,2.213-1.051l0.581-1.632c0.321-0.901-0.15-1.892-1.051-2.213l0,0
					c-0.901-0.321-1.892,0.15-2.213,1.051l-0.581,1.632C365.525,110.18,365.996,111.171,366.897,111.491z"/>
				
					<line style="fill:#FFFFFF;stroke:#263238;stroke-linecap:round;stroke-linejoin:round;stroke-miterlimit:10;" x1="369.691" y1="103.638" x2="368.008" y2="108.37"/>
				<path style="fill:#FFFFFF;stroke:#263238;stroke-linecap:round;stroke-linejoin:round;stroke-miterlimit:10;" d="
					M364.547,118.096L364.547,118.096c0.901,0.321,1.892-0.15,2.213-1.051l0.581-1.632c0.321-0.901-0.15-1.892-1.051-2.213l0,0
					c-0.901-0.321-1.892,0.15-2.213,1.051l-0.581,1.632C363.175,116.785,363.646,117.775,364.547,118.096z"/>
				
					<line style="fill:#FFFFFF;stroke:#263238;stroke-linecap:round;stroke-linejoin:round;stroke-miterlimit:10;" x1="367.341" y1="110.243" x2="365.658" y2="114.975"/>
				<path style="fill:#FFFFFF;stroke:#263238;stroke-linecap:round;stroke-linejoin:round;stroke-miterlimit:10;" d="
					M362.197,124.701L362.197,124.701c0.901,0.321,1.892-0.15,2.213-1.051l0.581-1.632c0.321-0.901-0.15-1.892-1.051-2.213l0,0
					c-0.901-0.321-1.892,0.15-2.213,1.051l-0.581,1.632C360.825,123.39,361.296,124.381,362.197,124.701z"/>
				
					<line style="fill:#FFFFFF;stroke:#263238;stroke-linecap:round;stroke-linejoin:round;stroke-miterlimit:10;" x1="364.991" y1="116.849" x2="363.307" y2="121.58"/>
				<path style="fill:#FFFFFF;stroke:#263238;stroke-linecap:round;stroke-linejoin:round;stroke-miterlimit:10;" d="
					M359.847,131.306L359.847,131.306c0.901,0.321,1.892-0.15,2.213-1.051l0.581-1.632c0.321-0.901-0.15-1.892-1.051-2.213l0,0
					c-0.901-0.321-1.892,0.15-2.213,1.051l-0.581,1.632C358.475,129.995,358.945,130.986,359.847,131.306z"/>
				
					<line style="fill:#FFFFFF;stroke:#263238;stroke-linecap:round;stroke-linejoin:round;stroke-miterlimit:10;" x1="362.641" y1="123.453" x2="360.957" y2="128.186"/>
				<path style="fill:#FFFFFF;stroke:#263238;stroke-linecap:round;stroke-linejoin:round;stroke-miterlimit:10;" d="
					M357.497,137.911L357.497,137.911c0.901,0.321,1.892-0.15,2.213-1.051l0.581-1.632c0.321-0.901-0.15-1.892-1.051-2.213l0,0
					c-0.901-0.321-1.892,0.15-2.213,1.051l-0.581,1.632C356.125,136.6,356.595,137.591,357.497,137.911z"/>
				
					<line style="fill:#FFFFFF;stroke:#263238;stroke-linecap:round;stroke-linejoin:round;stroke-miterlimit:10;" x1="360.291" y1="130.059" x2="358.607" y2="134.79"/>
				<path style="fill:#FFFFFF;stroke:#263238;stroke-linecap:round;stroke-linejoin:round;stroke-miterlimit:10;" d="
					M355.147,144.516L355.147,144.516c0.901,0.321,1.892-0.15,2.213-1.051l0.581-1.632c0.321-0.901-0.15-1.892-1.051-2.213l0,0
					c-0.901-0.321-1.892,0.15-2.213,1.051l-0.581,1.632C353.775,143.205,354.245,144.196,355.147,144.516z"/>
				
					<line style="fill:#FFFFFF;stroke:#263238;stroke-linecap:round;stroke-linejoin:round;stroke-miterlimit:10;" x1="357.941" y1="136.664" x2="356.257" y2="141.395"/>
				<path style="fill:#FFFFFF;stroke:#263238;stroke-linecap:round;stroke-linejoin:round;stroke-miterlimit:10;" d="
					M352.796,151.121L352.796,151.121c0.901,0.321,1.892-0.15,2.213-1.051l0.581-1.632c0.321-0.901-0.15-1.892-1.051-2.213l0,0
					c-0.901-0.321-1.892,0.15-2.213,1.051l-0.581,1.632C351.424,149.81,351.895,150.801,352.796,151.121z"/>
				
					<line style="fill:#FFFFFF;stroke:#263238;stroke-linecap:round;stroke-linejoin:round;stroke-miterlimit:10;" x1="355.591" y1="143.269" x2="353.907" y2="148.001"/>
				<path style="fill:#FFFFFF;stroke:#263238;stroke-linecap:round;stroke-linejoin:round;stroke-miterlimit:10;" d="
					M350.446,157.727L350.446,157.727c0.901,0.321,1.892-0.15,2.213-1.051l0.581-1.632c0.321-0.901-0.15-1.892-1.051-2.213l0,0
					c-0.901-0.321-1.892,0.15-2.213,1.051l-0.581,1.632C349.074,156.415,349.545,157.406,350.446,157.727z"/>
				
					<line style="fill:#FFFFFF;stroke:#263238;stroke-linecap:round;stroke-linejoin:round;stroke-miterlimit:10;" x1="353.24" y1="149.874" x2="351.557" y2="154.606"/>
				<path style="fill:#FFFFFF;stroke:#263238;stroke-linecap:round;stroke-linejoin:round;stroke-miterlimit:10;" d="
					M348.096,164.331L348.096,164.331c0.901,0.321,1.892-0.15,2.213-1.051l0.581-1.632c0.321-0.901-0.15-1.892-1.051-2.213l0,0
					c-0.901-0.321-1.892,0.15-2.213,1.051l-0.581,1.632C346.724,163.02,347.195,164.011,348.096,164.331z"/>
				
					<line style="fill:#FFFFFF;stroke:#263238;stroke-linecap:round;stroke-linejoin:round;stroke-miterlimit:10;" x1="350.89" y1="156.479" x2="349.207" y2="161.211"/>
				<path style="fill:#FFFFFF;stroke:#263238;stroke-linecap:round;stroke-linejoin:round;stroke-miterlimit:10;" d="
					M345.746,170.936L345.746,170.936c0.901,0.321,1.892-0.15,2.213-1.051l0.581-1.632c0.321-0.901-0.15-1.892-1.051-2.213l0,0
					c-0.901-0.321-1.892,0.15-2.213,1.051l-0.581,1.632C344.374,169.625,344.845,170.616,345.746,170.936z"/>
				
					<line style="fill:#FFFFFF;stroke:#263238;stroke-linecap:round;stroke-linejoin:round;stroke-miterlimit:10;" x1="348.54" y1="163.084" x2="346.857" y2="167.816"/>
				<path style="fill:#FFFFFF;stroke:#263238;stroke-linecap:round;stroke-linejoin:round;stroke-miterlimit:10;" d="
					M343.396,177.542L343.396,177.542c0.901,0.321,1.892-0.15,2.213-1.051l0.581-1.632c0.321-0.901-0.15-1.892-1.051-2.213l0,0
					c-0.901-0.321-1.892,0.15-2.213,1.051l-0.581,1.632C342.024,176.23,342.495,177.221,343.396,177.542z"/>
				
					<line style="fill:#FFFFFF;stroke:#263238;stroke-linecap:round;stroke-linejoin:round;stroke-miterlimit:10;" x1="346.19" y1="169.689" x2="344.507" y2="174.421"/>
			</g>
			<g>
				<path style="fill:#FFFFFF;stroke:#263238;stroke-linecap:round;stroke-linejoin:round;stroke-miterlimit:10;" d="
					M376.579,92.429L376.579,92.429c0.957,0.014,1.743-0.75,1.757-1.707l0.025-1.732c0.014-0.957-0.75-1.743-1.707-1.757l0,0
					c-0.957-0.014-1.743,0.75-1.757,1.707l-0.025,1.732C374.858,91.628,375.622,92.415,376.579,92.429z"/>
				
					<line style="fill:#FFFFFF;stroke:#263238;stroke-linecap:round;stroke-linejoin:round;stroke-miterlimit:10;" x1="376.7" y1="84.095" x2="376.627" y2="89.117"/>
				<path style="fill:#FFFFFF;stroke:#263238;stroke-linecap:round;stroke-linejoin:round;stroke-miterlimit:10;" d="
					M376.476,99.439L376.476,99.439c0.957,0.014,1.743-0.75,1.757-1.707L378.259,96c0.014-0.957-0.75-1.743-1.707-1.757l0,0
					c-0.957-0.014-1.743,0.75-1.757,1.707l-0.025,1.732C374.755,98.638,375.52,99.425,376.476,99.439z"/>
				
					<line style="fill:#FFFFFF;stroke:#263238;stroke-linecap:round;stroke-linejoin:round;stroke-miterlimit:10;" x1="376.598" y1="91.104" x2="376.525" y2="96.127"/>
				<path style="fill:#FFFFFF;stroke:#263238;stroke-linecap:round;stroke-linejoin:round;stroke-miterlimit:10;" d="
					M376.374,106.449L376.374,106.449c0.957,0.014,1.743-0.75,1.757-1.707l0.025-1.732c0.014-0.957-0.75-1.743-1.707-1.757l0,0
					c-0.957-0.014-1.743,0.75-1.757,1.707l-0.025,1.732C374.653,105.648,375.417,106.435,376.374,106.449z"/>
				
					<line style="fill:#FFFFFF;stroke:#263238;stroke-linecap:round;stroke-linejoin:round;stroke-miterlimit:10;" x1="376.496" y1="98.114" x2="376.422" y2="103.136"/>
				<path style="fill:#FFFFFF;stroke:#263238;stroke-linecap:round;stroke-linejoin:round;stroke-miterlimit:10;" d="
					M376.272,113.459L376.272,113.459c0.957,0.014,1.743-0.75,1.757-1.707l0.025-1.732c0.014-0.957-0.75-1.743-1.707-1.757l0,0
					c-0.957-0.014-1.743,0.75-1.757,1.707l-0.025,1.732C374.551,112.658,375.315,113.445,376.272,113.459z"/>
				
					<line style="fill:#FFFFFF;stroke:#263238;stroke-linecap:round;stroke-linejoin:round;stroke-miterlimit:10;" x1="376.393" y1="105.124" x2="376.32" y2="110.146"/>
				<path style="fill:#FFFFFF;stroke:#263238;stroke-linecap:round;stroke-linejoin:round;stroke-miterlimit:10;" d="
					M376.17,120.468L376.17,120.468c0.957,0.014,1.743-0.75,1.757-1.707l0.025-1.732c0.014-0.957-0.75-1.743-1.707-1.757l0,0
					c-0.957-0.014-1.743,0.75-1.757,1.707l-0.025,1.732C374.449,119.668,375.213,120.454,376.17,120.468z"/>
				
					<line style="fill:#FFFFFF;stroke:#263238;stroke-linecap:round;stroke-linejoin:round;stroke-miterlimit:10;" x1="376.291" y1="112.134" x2="376.218" y2="117.156"/>
				<path style="fill:#FFFFFF;stroke:#263238;stroke-linecap:round;stroke-linejoin:round;stroke-miterlimit:10;" d="
					M376.067,127.478L376.067,127.478c0.957,0.014,1.743-0.75,1.757-1.707l0.025-1.732c0.014-0.957-0.75-1.743-1.707-1.757l0,0
					c-0.957-0.014-1.743,0.75-1.757,1.707l-0.025,1.732C374.347,126.678,375.111,127.465,376.067,127.478z"/>
				
					<line style="fill:#FFFFFF;stroke:#263238;stroke-linecap:round;stroke-linejoin:round;stroke-miterlimit:10;" x1="376.189" y1="119.144" x2="376.116" y2="124.166"/>
				<path style="fill:#FFFFFF;stroke:#263238;stroke-linecap:round;stroke-linejoin:round;stroke-miterlimit:10;" d="
					M375.965,134.488L375.965,134.488c0.957,0.014,1.743-0.75,1.757-1.707l0.025-1.732c0.014-0.957-0.75-1.743-1.707-1.757l0,0
					c-0.957-0.014-1.743,0.75-1.757,1.707l-0.025,1.732C374.244,133.688,375.008,134.474,375.965,134.488z"/>
				
					<line style="fill:#FFFFFF;stroke:#263238;stroke-linecap:round;stroke-linejoin:round;stroke-miterlimit:10;" x1="376.087" y1="126.154" x2="376.013" y2="131.176"/>
				<path style="fill:#FFFFFF;stroke:#263238;stroke-linecap:round;stroke-linejoin:round;stroke-miterlimit:10;" d="
					M375.863,141.498L375.863,141.498c0.957,0.014,1.744-0.75,1.757-1.707l0.025-1.732c0.014-0.957-0.75-1.743-1.707-1.757l0,0
					c-0.957-0.014-1.743,0.75-1.757,1.707l-0.025,1.732C374.142,140.697,374.906,141.484,375.863,141.498z"/>
				
					<line style="fill:#FFFFFF;stroke:#263238;stroke-linecap:round;stroke-linejoin:round;stroke-miterlimit:10;" x1="375.984" y1="133.164" x2="375.911" y2="138.186"/>
				<path style="fill:#FFFFFF;stroke:#263238;stroke-linecap:round;stroke-linejoin:round;stroke-miterlimit:10;" d="
					M375.761,148.508L375.761,148.508c0.957,0.014,1.743-0.75,1.757-1.707l0.025-1.732c0.014-0.957-0.75-1.743-1.707-1.757l0,0
					c-0.957-0.014-1.743,0.75-1.757,1.707l-0.025,1.732C374.04,147.707,374.804,148.494,375.761,148.508z"/>
				
					<line style="fill:#FFFFFF;stroke:#263238;stroke-linecap:round;stroke-linejoin:round;stroke-miterlimit:10;" x1="375.882" y1="140.174" x2="375.809" y2="145.196"/>
				<path style="fill:#FFFFFF;stroke:#263238;stroke-linecap:round;stroke-linejoin:round;stroke-miterlimit:10;" d="
					M375.658,155.518L375.658,155.518c0.957,0.014,1.743-0.75,1.757-1.707l0.025-1.732c0.014-0.957-0.75-1.743-1.707-1.757h0
					c-0.957-0.014-1.743,0.75-1.757,1.707l-0.025,1.732C373.938,154.717,374.702,155.504,375.658,155.518z"/>
				
					<line style="fill:#FFFFFF;stroke:#263238;stroke-linecap:round;stroke-linejoin:round;stroke-miterlimit:10;" x1="375.78" y1="147.184" x2="375.707" y2="152.206"/>
				<path style="fill:#FFFFFF;stroke:#263238;stroke-linecap:round;stroke-linejoin:round;stroke-miterlimit:10;" d="
					M375.556,162.528L375.556,162.528c0.957,0.014,1.743-0.75,1.757-1.707l0.025-1.732c0.014-0.957-0.75-1.743-1.707-1.757l0,0
					c-0.957-0.014-1.743,0.75-1.757,1.707l-0.025,1.732C373.835,161.727,374.6,162.514,375.556,162.528z"/>
				
					<line style="fill:#FFFFFF;stroke:#263238;stroke-linecap:round;stroke-linejoin:round;stroke-miterlimit:10;" x1="375.678" y1="154.194" x2="375.604" y2="159.216"/>
				<path style="fill:#FFFFFF;stroke:#263238;stroke-linecap:round;stroke-linejoin:round;stroke-miterlimit:10;" d="
					M375.454,169.538L375.454,169.538c0.957,0.014,1.743-0.75,1.757-1.707l0.025-1.732c0.014-0.957-0.75-1.743-1.707-1.757l0,0
					c-0.957-0.014-1.743,0.75-1.757,1.707l-0.025,1.732C373.733,168.737,374.497,169.524,375.454,169.538z"/>
				
					<line style="fill:#FFFFFF;stroke:#263238;stroke-linecap:round;stroke-linejoin:round;stroke-miterlimit:10;" x1="375.576" y1="161.204" x2="375.502" y2="166.226"/>
				<path style="fill:#FFFFFF;stroke:#263238;stroke-linecap:round;stroke-linejoin:round;stroke-miterlimit:10;" d="
					M375.352,176.548L375.352,176.548c0.957,0.014,1.743-0.75,1.757-1.707l0.025-1.732c0.014-0.957-0.75-1.743-1.707-1.757l0,0
					c-0.957-0.014-1.743,0.75-1.757,1.707l-0.025,1.732C373.631,175.747,374.395,176.534,375.352,176.548z"/>
				
					<line style="fill:#FFFFFF;stroke:#263238;stroke-linecap:round;stroke-linejoin:round;stroke-miterlimit:10;" x1="375.473" y1="168.214" x2="375.4" y2="173.236"/>
				<path style="fill:#FFFFFF;stroke:#263238;stroke-linecap:round;stroke-linejoin:round;stroke-miterlimit:10;" d="
					M375.249,183.558L375.249,183.558c0.957,0.014,1.743-0.75,1.757-1.707l0.025-1.732c0.014-0.957-0.75-1.743-1.707-1.757l0,0
					c-0.957-0.014-1.743,0.75-1.757,1.707l-0.025,1.732C373.529,182.757,374.293,183.544,375.249,183.558z"/>
				
					<line style="fill:#FFFFFF;stroke:#263238;stroke-linecap:round;stroke-linejoin:round;stroke-miterlimit:10;" x1="375.371" y1="175.224" x2="375.298" y2="180.246"/>
			</g>
			<path style="fill:#263238;stroke:#263238;stroke-linecap:round;stroke-linejoin:round;stroke-miterlimit:10;" d="
				M377.874,186.913c20.125,0,36.534-4.561,37.387-10.279h-74.773C341.34,182.352,357.749,186.913,377.874,186.913z"/>
		</g>
		
			<rect x="251.837" y="324.636" style="fill:#263238;stroke:#263238;stroke-linecap:round;stroke-linejoin:round;stroke-miterlimit:10;" width="68.404" height="8.491"/>
		
			<rect x="204.19" y="331.712" style="fill:#263238;stroke:#263238;stroke-linecap:round;stroke-linejoin:round;stroke-miterlimit:10;" width="166.999" height="11.794"/>
	</g>
</g>
<g id="Books">
	<g>
		<path style="fill:#92E3A9;stroke:#263238;stroke-linecap:round;stroke-linejoin:round;stroke-miterlimit:10;" d="M279.187,393.871
			h-158.3c-3.075,0-5.567-2.493-5.567-5.568v-40.039c0-3.075,2.493-5.567,5.567-5.567h158.3V393.871z"/>
		
			<rect x="247.475" y="342.697" style="fill:#263238;stroke:#263238;stroke-linecap:round;stroke-linejoin:round;stroke-miterlimit:10;" width="13.681" height="51.174"/>
		
			<rect x="126.707" y="342.697" style="fill:#263238;stroke:#263238;stroke-linecap:round;stroke-linejoin:round;stroke-miterlimit:10;" width="11.322" height="51.174"/>
		
			<rect x="283.328" y="348.223" style="fill:#E8E8E8;stroke:#263238;stroke-linecap:round;stroke-linejoin:round;stroke-miterlimit:10;" width="153.79" height="40.099"/>
		<path style="fill:#92E3A9;stroke:#263238;stroke-linecap:round;stroke-linejoin:round;stroke-miterlimit:10;" d="M285.412,385.719
			v-34.87h152.924c2.251,0,4.076-1.825,4.076-4.076l0,0c0-2.251-1.825-4.076-4.076-4.076H278.545v51.174h159.792
			c2.251,0,4.076-1.825,4.076-4.076l0,0c0-2.251-1.825-4.076-4.076-4.076H285.412z"/>
		
			<line style="fill:none;stroke:#263238;stroke-linecap:round;stroke-linejoin:round;stroke-miterlimit:10;" x1="287.102" y1="359.074" x2="345.127" y2="359.074"/>
		
			<line style="fill:none;stroke:#263238;stroke-linecap:round;stroke-linejoin:round;stroke-miterlimit:10;" x1="309.746" y1="362.376" x2="386.169" y2="362.376"/>
		
			<line style="fill:none;stroke:#263238;stroke-linecap:round;stroke-linejoin:round;stroke-miterlimit:10;" x1="287.102" y1="372.754" x2="340.409" y2="372.754"/>
		
			<line style="fill:none;stroke:#263238;stroke-linecap:round;stroke-linejoin:round;stroke-miterlimit:10;" x1="286.158" y1="377.944" x2="308.33" y2="377.944"/>
		
			<line style="fill:none;stroke:#263238;stroke-linecap:round;stroke-linejoin:round;stroke-miterlimit:10;" x1="286.158" y1="367.093" x2="300.782" y2="367.093"/>
		
			<line style="fill:none;stroke:#263238;stroke-linecap:round;stroke-linejoin:round;stroke-miterlimit:10;" x1="350.316" y1="357.658" x2="362.11" y2="357.658"/>
		
			<line style="fill:none;stroke:#263238;stroke-linecap:round;stroke-linejoin:round;stroke-miterlimit:10;" x1="314.463" y1="378.415" x2="331.918" y2="378.415"/>
		
			<line style="fill:none;stroke:#263238;stroke-linecap:round;stroke-linejoin:round;stroke-miterlimit:10;" x1="347.957" y1="368.037" x2="424.381" y2="368.037"/>
	</g>
	<g>
		<path style="fill:#FFFFFF;stroke:#263238;stroke-linecap:round;stroke-linejoin:round;stroke-miterlimit:10;" d="M284.965,445.868
			h-158.3c-3.075,0-5.567-2.493-5.567-5.568v-40.039c0-3.075,2.493-5.568,5.567-5.568h158.3V445.868z"/>
		
			<rect x="253.252" y="394.694" style="fill:#263238;stroke:#263238;stroke-linecap:round;stroke-linejoin:round;stroke-miterlimit:10;" width="13.681" height="51.174"/>
		
			<rect x="132.484" y="394.694" style="fill:#263238;stroke:#263238;stroke-linecap:round;stroke-linejoin:round;stroke-miterlimit:10;" width="11.322" height="51.174"/>
		
			<rect x="289.105" y="400.221" style="fill:#E8E8E8;stroke:#263238;stroke-linecap:round;stroke-linejoin:round;stroke-miterlimit:10;" width="153.79" height="40.099"/>
		<path style="fill:#D4D4D4;stroke:#263238;stroke-linecap:round;stroke-linejoin:round;stroke-miterlimit:10;" d="M291.19,437.716
			v-34.87h152.924c2.251,0,4.076-1.825,4.076-4.076l0,0c0-2.251-1.825-4.076-4.076-4.076H284.322v51.174h159.792
			c2.251,0,4.076-1.825,4.076-4.076l0,0c0-2.251-1.825-4.076-4.076-4.076H291.19z"/>
		
			<line style="fill:none;stroke:#263238;stroke-linecap:round;stroke-linejoin:round;stroke-miterlimit:10;" x1="292.879" y1="411.071" x2="350.904" y2="411.071"/>
		
			<line style="fill:none;stroke:#263238;stroke-linecap:round;stroke-linejoin:round;stroke-miterlimit:10;" x1="315.523" y1="414.373" x2="391.946" y2="414.373"/>
		
			<line style="fill:none;stroke:#263238;stroke-linecap:round;stroke-linejoin:round;stroke-miterlimit:10;" x1="292.879" y1="424.751" x2="346.187" y2="424.751"/>
		
			<line style="fill:none;stroke:#263238;stroke-linecap:round;stroke-linejoin:round;stroke-miterlimit:10;" x1="291.936" y1="429.941" x2="314.108" y2="429.941"/>
		
			<line style="fill:none;stroke:#263238;stroke-linecap:round;stroke-linejoin:round;stroke-miterlimit:10;" x1="291.936" y1="419.091" x2="306.56" y2="419.091"/>
		
			<line style="fill:none;stroke:#263238;stroke-linecap:round;stroke-linejoin:round;stroke-miterlimit:10;" x1="356.094" y1="409.655" x2="367.887" y2="409.655"/>
		
			<line style="fill:none;stroke:#263238;stroke-linecap:round;stroke-linejoin:round;stroke-miterlimit:10;" x1="320.241" y1="430.413" x2="337.695" y2="430.413"/>
		
			<line style="fill:none;stroke:#263238;stroke-linecap:round;stroke-linejoin:round;stroke-miterlimit:10;" x1="353.735" y1="420.034" x2="430.158" y2="420.034"/>
	</g>
</g>
<g id="Character">
	<g>
		<path style="fill:#263238;stroke:#263238;stroke-linecap:round;stroke-linejoin:round;stroke-miterlimit:10;" d="M97.188,116.801
			c0,0-5.214-0.149-6.555,4.022c-1.341,4.171-0.149,8.194-4.469,8.492c-4.32,0.298-10.279-2.533-13.259,3.575
			c-2.979,6.108,0,9.981,0.149,11.918c0.149,1.937-2.533,0.894-2.831,4.767c-0.298,3.873,4.916,7.747,10.279,7.598
			s28.753-12.961,30.093-13.557s0.596-24.134,0.596-24.134L97.188,116.801z"/>
		<path style="fill:#92E3A9;stroke:#263238;stroke-linecap:round;stroke-linejoin:round;stroke-miterlimit:10;" d="M66.951,183.072
			l-0.154-0.87c0,0,4.171-22.495,4.916-24.73c0.745-2.235,2.606-2.479,2.606-2.479l8.27,45.831l-8.323,17.738
			c-0.287,1.062-0.56,1.752-0.764,1.629c-0.745-0.447-14.451-0.298-14.451-0.298L66.951,183.072z"/>
		<g>
			<path style="fill:#263238;stroke:#263238;stroke-linecap:round;stroke-linejoin:round;stroke-miterlimit:10;" d="M99.345,446.375
				c0,0,0.81,3.453-1.513,9.758c-2.323,6.304-8.11,9.819-12.423,9.819c-4.314,0-5.641-6.304-6.636-10.618
				c-0.996-4.314,0.664-12.277,0.664-12.277L99.345,446.375z"/>
			<g>
				<path style="fill:#263238;stroke:#263238;stroke-linecap:round;stroke-linejoin:round;stroke-miterlimit:10;" d="
					M141.391,441.095c0,0,6.482,1.296,13.482,10.371c5.804,7.523,5.856,8.513,1.875,9.177c-3.982,0.664-14.6,0.664-19.245-2.654
					c-4.645-3.318-5.747-7.228-6.743-7.56c-0.995-0.332-12.18-0.562-8.815-9.852C124.36,433.907,141.391,441.095,141.391,441.095z"
					/>
			</g>
			<path style="fill:#92E3A9;stroke:#263238;stroke-linecap:round;stroke-linejoin:round;stroke-miterlimit:10;" d="
				M154.162,255.767c0,0,2.629,8.938,3.155,21.031c0.526,12.093-2.563,20.184-4.14,29.123c-1.577,8.938-9.943,50.473-5.537,67.63
				c1.745,6.794,5.997,56.249,5.997,59.404c0,3.155,0,11.042,0,11.042s-14.722,2.103-19.454,2.629
				c-4.732,0.526-16.299-2.103-16.299-2.103s2.103-74.135,2.103-96.218c0-22.083-1.577-46.795-1.577-46.795l0.168-15.04
				c0,0-1.786,22.383-1.786,32.898c0,10.516-4.691,37.349-4.691,37.349s-5.18,58.894-4.654,62.049s-2.997,29.114-2.997,29.114
				l-9.821,2.045l-12.014,0.095l-8.991-2.997c0,0,0.329-17.246,2.432-39.854c2.103-22.609,9.692-43.35,11.795-56.495
				c2.103-13.145-12.029-51.793-12.029-68.618c0-16.825,5.784-32.598,5.784-32.598l69.929,0.526L154.162,255.767z"/>
			<path style="fill:#263238;stroke:#263238;stroke-linecap:round;stroke-linejoin:round;stroke-miterlimit:10;" d="M152.137,259.79
				c0,0-19.166,7.841-24.683,6.679c-5.518-1.161-8.421-11.906-8.421-11.906s2.323,10.454-4.356,12.196
				c-6.679,1.742-33.105-8.131-33.105-8.131l38.332-18.004L152.137,259.79z"/>
			<path style="fill:none;stroke:#263238;stroke-linecap:round;stroke-linejoin:round;stroke-miterlimit:10;" d="M126.285,276.46
				c-1.185,1.133-2.306,2.055-3.187,2.496"/>
			<path style="fill:none;stroke:#263238;stroke-linecap:round;stroke-linejoin:round;stroke-miterlimit:10;" d="M133.842,267.921
				c0,0-2.16,2.765-4.689,5.561"/>
			<path style="fill:none;stroke:#263238;stroke-linecap:round;stroke-linejoin:round;stroke-miterlimit:10;" d="M144.724,353.508
				c0,0-3.88,21.016-4.527,23.279"/>
			<path style="fill:none;stroke:#263238;stroke-linecap:round;stroke-linejoin:round;stroke-miterlimit:10;" d="M145.344,434.96
				c-0.859-11.597-2.237-31.774-2.237-42.006"/>
			<path style="fill:none;stroke:#263238;stroke-linecap:round;stroke-linejoin:round;stroke-miterlimit:10;" d="M146.017,443.715
				c0,0-0.119-1.474-0.31-3.95"/>
			<path style="fill:none;stroke:#263238;stroke-linecap:round;stroke-linejoin:round;stroke-miterlimit:10;" d="M139.479,358.435
				c0.465-8.877,1.042-22.168,1.042-33.378"/>
			<path style="fill:none;stroke:#263238;stroke-linecap:round;stroke-linejoin:round;stroke-miterlimit:10;" d="M138.904,368.381
				c0,0,0.164-2.495,0.388-6.501"/>
			<path style="fill:none;stroke:#263238;stroke-linecap:round;stroke-linejoin:round;stroke-miterlimit:10;" d="M96.637,405.846
				c-0.463,2.721-0.831,4.78-1.058,5.861"/>
			<path style="fill:none;stroke:#263238;stroke-linecap:round;stroke-linejoin:round;stroke-miterlimit:10;" d="M105.68,320.286
				c0.414,10.926,0.807,29.018-0.724,36.455c-1.681,8.164-5.323,31.131-7.617,44.926"/>
			<path style="fill:none;stroke:#263238;stroke-linecap:round;stroke-linejoin:round;stroke-miterlimit:10;" d="M105.279,311.477
				c0,0,0.101,1.782,0.23,4.665"/>
			<path style="fill:none;stroke:#263238;stroke-linecap:round;stroke-linejoin:round;stroke-miterlimit:10;" d="M92.993,423.669
				c0,0-2.91,18.753-2.91,19.723"/>
			<path style="fill:none;stroke:#263238;stroke-linecap:round;stroke-linejoin:round;stroke-miterlimit:10;" d="M113.048,274.584
				c0,0-6.872-6.528-14.774-8.246"/>
		</g>
		<path style="fill:#92E3A9;stroke:#263238;stroke-linecap:round;stroke-linejoin:round;stroke-miterlimit:10;" d="M127.912,140.288
			l28.635,11.802l-11.415,60.558l13.157,43.726c0,0-12.77,6.772-19.928,7.739c-7.159,0.967-12.963,0.194-14.898-4.063
			c-1.935-4.257-3.483-11.609-3.483-11.609s-1.548,14.898-4.063,15.865c-1.188,0.457-3.024,0.784-4.63,1.003
			c-2.016,0.274-4.063,0.158-6.035-0.345l-30.668-7.825l10.957-42.556c0,0-12.963-58.043-11.222-59.591
			c1.741-1.548,28.635-14.898,28.635-14.898L127.912,140.288z"/>
		<g>
			<path style="fill:#FFFFFF;stroke:#263238;stroke-linecap:round;stroke-linejoin:round;stroke-miterlimit:10;" d="M126.365,137.58
				c0,0,2.709,1.741,2.709,4.45c0,2.709-2.128,33.859-4.063,44.306c-1.935,10.448-6.191,24.572-6.191,24.572
				s-12.576-38.115-14.317-49.53c-1.741-11.415-4.047-17.834-1.548-21.283c2.499-3.449,3.676-3.289,3.676-3.289L126.365,137.58z"/>
			<path style="fill:#D4D4D4;stroke:#263238;stroke-linecap:round;stroke-linejoin:round;stroke-miterlimit:10;" d="
				M126.386,134.336c0,0-0.577,3.32,0.433,8.518c1.011,5.197,0.289,8.373-2.599,12.56c-2.887,4.187-5.197,5.342-5.197,5.342
				s-7.651-0.144-10.683-8.373c-3.032-8.229-2.887-15.736-2.887-15.736l1.732-12.704L126.386,134.336z"/>
			<polygon style="fill:#263238;stroke:#263238;stroke-linecap:round;stroke-linejoin:round;stroke-miterlimit:10;" points="
				114.057,132.363 126.819,142.854 126.386,134.336 			"/>
			<path style="fill:none;stroke:#263238;stroke-linecap:round;stroke-linejoin:round;stroke-miterlimit:10;" d="M127.719,159.636
				c0,0-0.387-3.096-1.548-2.902c-1.161,0.194-7.148,4.022-7.148,4.022"/>
			<path style="fill:none;stroke:#263238;stroke-linecap:round;stroke-linejoin:round;stroke-miterlimit:10;" d="M113.788,160.217
				l-5.417-2.322c0,0-2.322-5.03-2.902-3.483c-0.58,1.548-0.58,4.644-0.58,4.644"/>
		</g>
		<g>
			<path style="fill:#D4D4D4;stroke:#263238;stroke-linecap:round;stroke-linejoin:round;stroke-miterlimit:10;" d="M128.823,89.041
				c0,0,3.271,1.353,5.075,9.022c1.804,7.669,2.932,12.631,2.819,16.691c-0.113,4.06-3.609,18.157-6.541,19.848
				s-6.654,1.804-10.714,0.226c-4.06-1.579-10.601-3.947-12.18-6.203c-1.579-2.255-2.594-5.188-2.594-5.188
				s-4.398-1.579-5.752-3.609c-1.353-2.03-2.256-5.413-1.353-7.556c0.902-2.143-1.692-8.684,0-15.676
				c1.692-6.992,10.375-11.616,17.029-12.067C121.267,84.079,127.469,87.011,128.823,89.041z"/>
			<path style="fill:none;stroke:#263238;stroke-linecap:round;stroke-linejoin:round;stroke-miterlimit:10;" d="M127.533,107.289
				c0,0-0.603,0.754-0.151,2.411c0.452,1.658,3.315,4.822,3.315,4.822"/>
			<path style="fill:#263238;stroke:#263238;stroke-linecap:round;stroke-linejoin:round;stroke-miterlimit:10;" d="M97.584,96.596
				c1.692-6.992,10.375-11.616,17.029-12.067c6.654-0.451,12.856,2.481,14.21,4.511c0,0,3.271,1.353,5.075,9.022l-5.526-4.849
				c0,0-5.639-3.045-8.684-2.707c-3.045,0.338-5.526,1.579-6.203,4.511c-0.677,2.932,0.902,4.511-3.948,8.91
				c-0.951,0.862-2.034,1.895-2.614,3.058c-0.7,1.404-0.511,3.339-1.671,4.498c-0.902,0.902-0.677,2.819-2.368,1.804
				c-1.692-1.015-2.03-2.481-2.932-2.594c-0.902-0.113-1.917,0.451-1.917,0.451l-0.261,0.03
				C97.863,108.358,96.12,102.649,97.584,96.596z"/>
			<path style="fill:#263238;stroke:#263238;stroke-linecap:round;stroke-linejoin:round;stroke-miterlimit:10;" d="M119.688,90.507
				c0,0,3.721-1.692,6.09,0.902c2.368,2.594,1.353,4.849,3.834,7.105c2.481,2.256,5.639,4.398,5.639,4.398l0.564,3.158
				c0,0,4.511-3.045,3.496-7.556c-1.015-4.511-5.075-5.752-5.752-7.669c-0.677-1.917,0.789-5.752-6.428-7.669
				c-7.218-1.917-10.714-2.594-12.518,1.353C112.809,88.477,119.688,90.507,119.688,90.507z"/>
			<path style="fill:none;stroke:#263238;stroke-linecap:round;stroke-linejoin:round;stroke-miterlimit:10;" d="M130.428,116.435
				c0,0-0.577,1.155-1.732,1.588"/>
			<path style="fill:none;stroke:#263238;stroke-linecap:round;stroke-linejoin:round;stroke-miterlimit:10;" d="M130.861,122.787
				c0,0-6.352,1.299-9.961-1.877"/>
			<ellipse style="fill:#263238;" cx="119.89" cy="108.567" rx="1.299" ry="1.805"/>
			<ellipse style="fill:#263238;" cx="131.872" cy="108.783" rx="1.299" ry="1.805"/>
			<path style="fill:none;stroke:#263238;stroke-linecap:round;stroke-linejoin:round;stroke-miterlimit:10;" d="M122.633,104.308
				c0,0-2.887-3.32-7.363,0.433"/>
			<path style="fill:none;stroke:#263238;stroke-linecap:round;stroke-linejoin:round;stroke-miterlimit:10;" d="M128.263,105.174
				c0,0,3.898-3.032,6.497,0.289"/>
		</g>
		<g>
			<polygon style="fill:#FFFFFF;stroke:#263238;stroke-linecap:round;stroke-linejoin:round;stroke-miterlimit:10;" points="
				106.049,166.601 62.517,162.151 63.678,168.149 101.986,177.049 			"/>
			<polygon style="fill:#263238;stroke:#263238;stroke-linecap:round;stroke-linejoin:round;stroke-miterlimit:10;" points="
				96.376,171.632 60.857,163.868 78.699,228.23 113.595,240.316 			"/>
			
				<line style="fill:none;stroke:#263238;stroke-linecap:round;stroke-linejoin:round;stroke-miterlimit:10;" x1="102.62" y1="167.965" x2="64.426" y2="163.472"/>
			
				<line style="fill:none;stroke:#263238;stroke-linecap:round;stroke-linejoin:round;stroke-miterlimit:10;" x1="98.259" y1="170.08" x2="76.716" y2="166.115"/>
			<polygon style="fill:#9C9C9C;stroke:#263238;stroke-linecap:round;stroke-linejoin:round;stroke-miterlimit:10;" points="
				106.049,166.601 121.915,237.027 113.595,240.316 96.376,171.632 			"/>
		</g>
		<g>
			<path style="fill:#D4D4D4;stroke:#263238;stroke-linecap:round;stroke-linejoin:round;stroke-miterlimit:10;" d="M91.229,203.952
				c0,0,0.447-3.724,3.576-5.363c3.128-1.639,7.896-1.639,10.875-2.533c2.979-0.894,3.129,0.298,2.384,1.788
				c-0.745,1.49-0.745,2.533-2.384,2.831c-1.639,0.298-2.831,0.596-2.831,0.596l5.81,0.298c0,0,5.959-1.937,7.002-2.533
				c1.043-0.596,1.937,0.298,1.788,1.49c-0.149,1.192-0.149,1.192-0.149,1.192l1.043,3.129l-0.596,2.086c0,0,0.149,2.235-0.149,2.98
				c-0.298,0.745-3.724,5.81-5.363,7.002c-1.639,1.192-5.512,2.086-5.512,2.086s-9.385-1.192-10.13-1.192
				c-0.745,0-4.618,2.235-4.618,2.235l-1.937-9.833L91.229,203.952z"/>
			<path style="fill:none;stroke:#263238;stroke-linecap:round;stroke-linejoin:round;stroke-miterlimit:10;" d="M117.3,201.718
				c0,0-3.725,2.831-7.151,4.022c-3.426,1.192-4.767,1.639-4.767,1.639"/>
			<path style="fill:none;stroke:#263238;stroke-linecap:round;stroke-linejoin:round;stroke-miterlimit:10;" d="M117.747,206.932
				c0,0-5.363,3.576-7.3,4.618c-1.937,1.043-3.575,1.341-3.575,1.341"/>
			<path style="fill:none;stroke:#263238;stroke-linecap:round;stroke-linejoin:round;stroke-miterlimit:10;" d="M115.364,212.444
				c0,0-4.171,3.128-7.747,3.426"/>
			
				<line style="fill:none;stroke:#263238;stroke-linecap:round;stroke-linejoin:round;stroke-miterlimit:10;" x1="102.849" y1="201.271" x2="96.592" y2="201.718"/>
		</g>
		<path style="fill:#92E3A9;stroke:#263238;stroke-linecap:round;stroke-linejoin:round;stroke-miterlimit:10;" d="M90.782,208.72
			c0,0-19.963,2.979-22.645,3.426c-2.682,0.447-7.449,2.235-9.088,7.747c-1.639,5.512,2.98,11.769,6.555,12.812
			c3.575,1.043,28.306-6.406,28.306-6.406L90.782,208.72z"/>
		<polygon style="fill:#92E3A9;stroke:#263238;stroke-linecap:round;stroke-linejoin:round;stroke-miterlimit:10;" points="
			156.547,152.091 176.444,213.04 154.395,216.764 149.181,188.161 		"/>
		<g>
			<path style="fill:#D4D4D4;stroke:#263238;stroke-linecap:round;stroke-linejoin:round;stroke-miterlimit:10;" d="M126.09,222.872
				l-2.384-7.151c0,0-1.937-2.235-3.873-4.469c-1.937-2.235-2.235-5.065-3.129-2.533c-0.894,2.533-0.298,5.661,0.894,6.704
				c1.192,1.043,1.192,2.384,1.341,2.979c0.149,0.596-0.149,1.639-0.149,1.639s-5.363,0-7.896,0.298
				c-2.533,0.298-6.853,2.682-7.002,3.725c-0.149,1.043,1.341,2.235,1.341,2.235s-2.086,1.341-1.639,2.384
				c0.447,1.043,1.639,1.192,1.639,1.192s-0.894,1.639,0,1.937c0.894,0.298,2.086,0.894,2.086,0.894s1.341,2.384,1.937,2.682
				c0.596,0.298,9.832,2.384,12.216,2.831c2.384,0.447,8.045-2.086,8.045-2.086l5.363-0.298l-2.533-9.088
				c0,0-2.086-3.277-2.533-3.426S126.09,222.872,126.09,222.872z"/>
			<path style="fill:none;stroke:#263238;stroke-linecap:round;stroke-linejoin:round;stroke-miterlimit:10;" d="M105.233,226.299
				c0,0,5.512-1.639,6.257-1.639c0.745,0,5.81-0.596,5.81-0.596"/>
			<path style="fill:none;stroke:#263238;stroke-linecap:round;stroke-linejoin:round;stroke-miterlimit:10;" d="M105.233,229.874
				c0,0,4.171,0.298,5.214,0.298c1.043,0,7.151-1.192,7.151-1.192"/>
			<path style="fill:none;stroke:#263238;stroke-linecap:round;stroke-linejoin:round;stroke-miterlimit:10;" d="M107.319,232.705
				c0,0,2.384,0.894,2.831,0.894c0.447,0,8.79,0,8.79,0"/>
		</g>
		<path style="fill:#92E3A9;stroke:#263238;stroke-linecap:round;stroke-linejoin:round;stroke-miterlimit:10;" d="M163.483,209.614
			l-33.669,13.706l7.3,21.453c0,0,31.583-16.238,36.499-21.006c4.916-4.767,3.426-12.514,0.745-14.6
			c-2.682-2.086-4.171-2.235-4.171-2.235"/>
		<path style="fill:none;stroke:#263238;stroke-linecap:round;stroke-linejoin:round;stroke-miterlimit:10;" d="M135.326,145.405
			l3.873,3.725l-2.98,2.681l4.32,5.661c0,0-3.873,23.836-9.236,35.605c-5.363,11.769-8.194,16.09-8.194,16.09"/>
		<polyline style="fill:none;stroke:#263238;stroke-linecap:round;stroke-linejoin:round;stroke-miterlimit:10;" points="
			95.55,144.66 91.378,151.066 95.699,154.045 91.676,158.217 95.103,164.325 		"/>
	</g>
</g>
</svg>
