<?xml version="1.0" encoding="utf-8"?>
<!-- Generator: Adobe Illustrator 27.5.0, SVG Export Plug-In . SVG Version: 6.00 Build 0)  -->
<svg version="1.1" xmlns="http://www.w3.org/2000/svg" xmlns:xlink="http://www.w3.org/1999/xlink" x="0px" y="0px"
	 viewBox="0 0 500 500" style="enable-background:new 0 0 500 500;" xml:space="preserve">
<g id="Background_Simple">
	<g>
		<path style="fill:#92E3A9;" d="M291.004,17.763c0,0-77.507-14.093-142.648,39.112C83.215,110.08,60.366,198.326,39.97,269.355
			c-20.396,71.03,8.485,135.18,68.369,156.808c59.884,21.627,89.852-29.551,166.499-44.313
			c76.648-14.762,99.155-7.133,155.956-61.062c56.801-53.929,51.586-158.551-11.227-226.343
			C356.755,26.654,291.004,17.763,291.004,17.763z"/>
		<path style="opacity:0.7;fill:#FFFFFF;" d="M291.004,17.763c0,0-77.507-14.093-142.648,39.112
			C83.215,110.08,60.366,198.326,39.97,269.355c-20.396,71.03,8.485,135.18,68.369,156.808
			c59.884,21.627,89.852-29.551,166.499-44.313c76.648-14.762,99.155-7.133,155.956-61.062
			c56.801-53.929,51.586-158.551-11.227-226.343C356.755,26.654,291.004,17.763,291.004,17.763z"/>
	</g>
</g>
<g id="Floor">
	
		<line style="fill:none;stroke:#263238;stroke-linecap:round;stroke-linejoin:round;stroke-miterlimit:10;" x1="20.057" y1="460.072" x2="480.973" y2="460.072"/>
</g>
<g id="Device">
	<g>
		<g>
			
				<rect x="165.161" y="52.129" style="fill:#FFFFFF;stroke:#263238;stroke-linecap:round;stroke-linejoin:round;stroke-miterlimit:10;" width="181.728" height="336.657"/>
			<g>
				<path style="fill:#92E3A9;stroke:#263238;stroke-linecap:round;stroke-linejoin:round;stroke-miterlimit:10;" d="
					M234.552,93.095h-27.123c-1.847,0-3.344-1.497-3.344-3.344v-5.462c0-1.847,1.497-3.344,3.344-3.344h27.123
					c1.847,0,3.345,1.497,3.345,3.344v5.462C237.896,91.598,236.399,93.095,234.552,93.095z"/>
				<g>
					
						<line style="fill:none;stroke:#263238;stroke-linecap:round;stroke-linejoin:round;stroke-miterlimit:10;" x1="176.564" y1="278.261" x2="336.538" y2="278.261"/>
				</g>
				<path style="fill:#92E3A9;stroke:#263238;stroke-linecap:round;stroke-linejoin:round;stroke-miterlimit:10;" d="M272.59,93.095
					h-27.123c-1.847,0-3.344-1.497-3.344-3.344v-5.462c0-1.847,1.497-3.344,3.344-3.344h27.123c1.847,0,3.344,1.497,3.344,3.344
					v5.462C275.935,91.598,274.437,93.095,272.59,93.095z"/>
				<path style="fill:#92E3A9;stroke:#263238;stroke-linecap:round;stroke-linejoin:round;stroke-miterlimit:10;" d="
					M310.629,93.095h-27.123c-1.847,0-3.345-1.497-3.345-3.344v-5.462c0-1.847,1.497-3.344,3.345-3.344h27.123
					c1.847,0,3.345,1.497,3.345,3.344v5.462C313.973,91.598,312.476,93.095,310.629,93.095z"/>
			</g>
			
				<rect x="165.161" y="52.129" style="fill:#92E3A9;stroke:#263238;stroke-linecap:round;stroke-linejoin:round;stroke-miterlimit:10;" width="181.728" height="24.743"/>
			<g>
				<path style="fill:#FFFFFF;stroke:#263238;stroke-linecap:round;stroke-linejoin:round;stroke-miterlimit:10;" d="
					M324.086,68.829c0-1.721-1.395-3.116-3.116-3.116c-1.721,0-3.116,1.395-3.116,3.116c0,1.721,1.395,3.116,3.116,3.116
					C322.691,71.945,324.086,70.55,324.086,68.829z"/>
				<path style="fill:#FFFFFF;stroke:#263238;stroke-linecap:round;stroke-linejoin:round;stroke-miterlimit:10;" d="
					M332.543,68.829c0-1.721-1.395-3.116-3.116-3.116c-1.721,0-3.116,1.395-3.116,3.116c0,1.721,1.395,3.116,3.116,3.116
					C331.148,71.945,332.543,70.55,332.543,68.829z"/>
				<path style="fill:#FFFFFF;stroke:#263238;stroke-linecap:round;stroke-linejoin:round;stroke-miterlimit:10;" d="M341,68.829
					c0-1.721-1.395-3.116-3.116-3.116c-1.721,0-3.116,1.395-3.116,3.116c0,1.721,1.395,3.116,3.116,3.116
					C339.605,71.945,341,70.55,341,68.829z"/>
			</g>
			
				<rect x="165.161" y="362.294" style="fill:#92E3A9;stroke:#263238;stroke-linecap:round;stroke-linejoin:round;stroke-miterlimit:10;" width="181.728" height="26.492"/>
			<polygon style="opacity:0.04;" points="291.63,52.129 165.161,272.763 165.161,351.701 336.878,52.129 			"/>
			<polygon style="opacity:0.04;" points="346.889,190.019 343.884,187.85 234.573,380.949 237.553,388.786 346.889,388.786 			"/>
			<path style="fill:#263238;" d="M352.345,118.366c1.24,0,2.245-1.005,2.245-2.245V93.674c0-1.24-1.005-2.245-2.245-2.245
				c-0.144,0-0.284,0.016-0.421,0.042V49.483c0-7.993-6.48-14.473-14.474-14.473H177.941c-7.993,0-14.473,6.48-14.473,14.473
				v338.822c0,7.993,6.48,14.473,14.473,14.473H337.45c7.993,0,14.474-6.48,14.474-14.473V182.176
				c0.137,0.026,0.277,0.042,0.421,0.042c1.24,0,2.245-1.005,2.245-2.245v-22.448c0-1.24-1.005-2.245-2.245-2.245
				c-0.144,0-0.284,0.016-0.421,0.042v-5.073c0.137,0.026,0.277,0.042,0.421,0.042c1.24,0,2.245-1.005,2.245-2.245v-22.448
				c0-1.24-1.005-2.245-2.245-2.245c-0.144,0-0.284,0.016-0.421,0.042v-5.073C352.06,118.35,352.201,118.366,352.345,118.366z
				 M343.542,380.949H171.849V59.985h171.693V380.949z"/>
		</g>
	</g>
</g>
<g id="Pictures">
	<g>
		<g>
			
				<rect x="233.635" y="285.673" style="fill:#FFFFFF;stroke:#263238;stroke-linecap:round;stroke-linejoin:round;stroke-miterlimit:10;" width="49.249" height="69.178"/>
			<g>
				<polygon style="fill:#92E3A9;stroke:#263238;stroke-linecap:round;stroke-linejoin:round;stroke-miterlimit:10;" points="
					282.884,305.421 275.792,297.096 260.543,323.63 250.478,317.225 233.635,354.851 282.884,354.851 				"/>
				<path style="fill:#92E3A9;stroke:#263238;stroke-linecap:round;stroke-linejoin:round;stroke-miterlimit:10;" d="
					M250.783,298.621c0,2.864-2.321,5.185-5.185,5.185c-2.863,0-5.185-2.321-5.185-5.185c0-2.863,2.321-5.185,5.185-5.185
					C248.462,293.436,250.783,295.757,250.783,298.621z"/>
			</g>
		</g>
		<g>
			
				<rect x="287.617" y="285.673" style="fill:#FFFFFF;stroke:#263238;stroke-linecap:round;stroke-linejoin:round;stroke-miterlimit:10;" width="49.249" height="69.178"/>
			<g>
				<polygon style="fill:#92E3A9;stroke:#263238;stroke-linecap:round;stroke-linejoin:round;stroke-miterlimit:10;" points="
					336.866,305.421 329.775,297.096 314.525,323.63 304.461,317.225 287.617,354.851 336.866,354.851 				"/>
				<path style="fill:#92E3A9;stroke:#263238;stroke-linecap:round;stroke-linejoin:round;stroke-miterlimit:10;" d="
					M304.766,298.621c0,2.864-2.321,5.185-5.185,5.185c-2.863,0-5.185-2.321-5.185-5.185c0-2.863,2.321-5.185,5.185-5.185
					C302.444,293.436,304.766,295.757,304.766,298.621z"/>
			</g>
		</g>
	</g>
</g>
<g id="Ubication">
	<g>
		<g>
			
				<rect x="179.652" y="285.673" style="fill:#FFFFFF;stroke:#263238;stroke-linecap:round;stroke-linejoin:round;stroke-miterlimit:10;" width="49.249" height="69.178"/>
		</g>
		<path style="fill:#92E3A9;stroke:#263238;stroke-linecap:round;stroke-linejoin:round;stroke-miterlimit:10;" d="M204.22,303.05
			c-6.732,0-12.189,5.457-12.189,12.189c0,6.732,12.189,19.78,12.189,19.78s12.189-13.048,12.189-19.78
			C216.409,308.507,210.952,303.05,204.22,303.05z M204.22,320.031c-2.646,0-4.792-2.145-4.792-4.792s2.145-4.792,4.792-4.792
			c2.646,0,4.792,2.145,4.792,4.792S206.867,320.031,204.22,320.031z"/>
		<polyline style="fill:none;stroke:#263238;stroke-linecap:round;stroke-linejoin:round;stroke-miterlimit:10;" points="
			192.574,286.403 192.574,294.192 221.237,294.192 221.237,323.167 228.402,323.167 		"/>
		
			<line style="fill:none;stroke:#263238;stroke-linecap:round;stroke-linejoin:round;stroke-miterlimit:10;" x1="192.574" y1="294.192" x2="180.111" y2="308.524"/>
		<polyline style="fill:none;stroke:#263238;stroke-linecap:round;stroke-linejoin:round;stroke-miterlimit:10;" points="
			221.237,323.167 221.237,337.81 209.397,337.81 209.397,354.323 		"/>
		<polyline style="fill:none;stroke:#263238;stroke-linecap:round;stroke-linejoin:round;stroke-miterlimit:10;" points="
			180.423,334.072 188.523,334.072 188.523,344.353 209.086,344.353 228.714,344.353 		"/>
		
			<line style="fill:none;stroke:#263238;stroke-linecap:round;stroke-linejoin:round;stroke-miterlimit:10;" x1="195.689" y1="344.664" x2="195.689" y2="354.323"/>
		<polyline style="fill:none;stroke:#263238;stroke-linecap:round;stroke-linejoin:round;stroke-miterlimit:10;" points="
			211.111,304.318 221.237,294.192 221.237,286.403 		"/>
		
			<line style="fill:none;stroke:#263238;stroke-linecap:round;stroke-linejoin:round;stroke-miterlimit:10;" x1="180.111" y1="321.609" x2="193.82" y2="321.609"/>
	</g>
</g>
<g id="Store">
	<g>
		<g>
			
				<rect x="192.027" y="166.113" style="fill:#FFFFFF;stroke:#263238;stroke-linecap:round;stroke-linejoin:round;stroke-miterlimit:10;" width="131.847" height="89.272"/>
			
				<rect x="192.027" y="237.859" style="fill:#92E3A9;stroke:#263238;stroke-linecap:round;stroke-linejoin:round;stroke-miterlimit:10;" width="131.847" height="17.526"/>
			
				<rect x="277.973" y="168.695" style="fill:#FFFFFF;stroke:#263238;stroke-linecap:round;stroke-linejoin:round;stroke-miterlimit:10;" width="44.518" height="50.523"/>
			
				<rect x="193.457" y="168.695" style="fill:#FFFFFF;stroke:#263238;stroke-linecap:round;stroke-linejoin:round;stroke-miterlimit:10;" width="44.518" height="50.523"/>
			<polygon style="fill:#263238;stroke:#263238;stroke-linecap:round;stroke-linejoin:round;stroke-miterlimit:10;" points="
				322.491,192.33 277.973,207.881 277.973,168.695 322.491,168.695 			"/>
			<polygon style="fill:#263238;stroke:#263238;stroke-linecap:round;stroke-linejoin:round;stroke-miterlimit:10;" points="
				237.975,192.33 193.457,210.811 193.457,168.695 237.975,168.695 			"/>
			
				<rect x="239.753" y="166.113" style="fill:#92E3A9;stroke:#263238;stroke-linecap:round;stroke-linejoin:round;stroke-miterlimit:10;" width="36.395" height="89.272"/>
			<path style="fill:#FFFFFF;stroke:#263238;stroke-linecap:round;stroke-linejoin:round;stroke-miterlimit:10;" d="
				M241.813,214.869h32.275v37.147h-32.275V214.869z M241.813,169.482v37.147h32.275v-37.147H241.813z"/>
			<g>
				<polygon style="fill:#263238;" points="274.088,247.778 274.088,243.204 251.416,252.016 263.002,252.016 				"/>
				<g>
					<polygon style="fill:#263238;" points="241.813,195.835 274.088,181.753 274.088,169.482 241.813,169.482 					"/>
					<polygon style="fill:#263238;" points="261.115,206.629 274.088,201.669 274.088,197.567 250.774,206.629 					"/>
				</g>
				<g>
					<polygon style="fill:#263238;" points="241.813,246.54 274.088,233.303 274.088,214.869 241.813,214.869 					"/>
				</g>
			</g>
			<g>
				<path style="fill:#FFFFFF;stroke:#263238;stroke-linecap:round;stroke-linejoin:round;stroke-miterlimit:10;" d="
					M190.19,167.878c-0.011,0.166-0.025,0.331-0.025,0.5c0,4.161,3.373,7.534,7.534,7.534s7.534-3.373,7.534-7.534
					c0-0.169-0.014-0.334-0.025-0.5H190.19z"/>
				<path style="fill:#92E3A9;stroke:#263238;stroke-linecap:round;stroke-linejoin:round;stroke-miterlimit:10;" d="
					M204.39,167.878c-0.011,0.166-0.025,0.331-0.025,0.5c0,4.161,3.373,7.534,7.534,7.534c4.161,0,7.534-3.373,7.534-7.534
					c0-0.169-0.014-0.334-0.025-0.5H204.39z"/>
				<path style="fill:#FFFFFF;stroke:#263238;stroke-linecap:round;stroke-linejoin:round;stroke-miterlimit:10;" d="
					M219.491,167.878c-0.011,0.166-0.025,0.331-0.025,0.5c0,4.161,3.373,7.534,7.534,7.534s7.534-3.373,7.534-7.534
					c0-0.169-0.014-0.334-0.025-0.5H219.491z"/>
				<path style="fill:#92E3A9;stroke:#263238;stroke-linecap:round;stroke-linejoin:round;stroke-miterlimit:10;" d="
					M234.591,167.878c-0.011,0.166-0.025,0.331-0.025,0.5c0,4.161,3.373,7.534,7.534,7.534s7.534-3.373,7.534-7.534
					c0-0.169-0.014-0.334-0.025-0.5H234.591z"/>
				<path style="fill:#FFFFFF;stroke:#263238;stroke-linecap:round;stroke-linejoin:round;stroke-miterlimit:10;" d="
					M249.691,167.878c-0.011,0.166-0.025,0.331-0.025,0.5c0,4.161,3.373,7.534,7.534,7.534c4.161,0,7.534-3.373,7.534-7.534
					c0-0.169-0.014-0.334-0.025-0.5H249.691z"/>
				<path style="fill:#92E3A9;stroke:#263238;stroke-linecap:round;stroke-linejoin:round;stroke-miterlimit:10;" d="
					M264.971,167.878c-0.011,0.166-0.025,0.331-0.025,0.5c0,4.161,3.373,7.534,7.534,7.534c4.161,0,7.534-3.373,7.534-7.534
					c0-0.169-0.014-0.334-0.025-0.5H264.971z"/>
				<path style="fill:#FFFFFF;stroke:#263238;stroke-linecap:round;stroke-linejoin:round;stroke-miterlimit:10;" d="
					M280.072,167.878c-0.011,0.166-0.025,0.331-0.025,0.5c0,4.161,3.373,7.534,7.534,7.534s7.534-3.373,7.534-7.534
					c0-0.169-0.014-0.334-0.025-0.5H280.072z"/>
				<path style="fill:#92E3A9;stroke:#263238;stroke-linecap:round;stroke-linejoin:round;stroke-miterlimit:10;" d="
					M295.891,167.878c-0.011,0.166-0.025,0.331-0.025,0.5c0,4.161,3.373,7.534,7.534,7.534c4.161,0,7.534-3.373,7.534-7.534
					c0-0.169-0.014-0.334-0.025-0.5H295.891z"/>
				<path style="fill:#FFFFFF;stroke:#263238;stroke-linecap:round;stroke-linejoin:round;stroke-miterlimit:10;" d="
					M310.991,167.878c-0.011,0.166-0.025,0.331-0.025,0.5c0,4.161,3.373,7.534,7.534,7.534s7.534-3.373,7.534-7.534
					c0-0.169-0.014-0.334-0.025-0.5H310.991z"/>
			</g>
			<g>
				<path style="fill:#FFFFFF;stroke:#263238;stroke-linecap:round;stroke-linejoin:round;stroke-miterlimit:10;" d="
					M274.98,211.253c0-1.219-0.988-2.208-2.208-2.208c-1.219,0-2.208,0.989-2.208,2.208c0,1.219,0.988,2.208,2.208,2.208
					C273.992,213.461,274.98,212.473,274.98,211.253z"/>
				
					<circle style="fill:#FFFFFF;stroke:#263238;stroke-linecap:round;stroke-linejoin:round;stroke-miterlimit:10;" cx="272.772" cy="211.253" r="0.563"/>
			</g>
		</g>
		<g>
			<polygon style="fill:#FFFFFF;stroke:#263238;stroke-linecap:round;stroke-linejoin:round;stroke-miterlimit:10;" points="
				312.918,143.346 203.827,143.938 190.19,168.012 326.222,168.012 			"/>
			<polygon style="fill:#92E3A9;stroke:#263238;stroke-linecap:round;stroke-linejoin:round;stroke-miterlimit:10;" points="
				300.68,143.412 203.827,143.938 190.19,168.012 310.88,168.012 			"/>
			<polygon style="fill:#FFFFFF;stroke:#263238;stroke-linecap:round;stroke-linejoin:round;stroke-miterlimit:10;" points="
				288.326,143.479 203.827,143.938 190.19,168.012 295.414,168.012 			"/>
			<polygon style="fill:#92E3A9;stroke:#263238;stroke-linecap:round;stroke-linejoin:round;stroke-miterlimit:10;" points="
				276.244,143.545 203.827,143.938 190.19,168.012 280.308,168.012 			"/>
			<polygon style="fill:#FFFFFF;stroke:#263238;stroke-linecap:round;stroke-linejoin:round;stroke-miterlimit:10;" points="
				263.802,143.612 203.827,143.938 190.19,168.012 264.775,168.012 			"/>
			<polygon style="fill:#92E3A9;stroke:#263238;stroke-linecap:round;stroke-linejoin:round;stroke-miterlimit:10;" points="
				251.552,143.679 203.827,143.938 190.19,168.012 249.5,168.012 			"/>
			<polygon style="fill:#FFFFFF;stroke:#263238;stroke-linecap:round;stroke-linejoin:round;stroke-miterlimit:10;" points="
				239.583,143.744 203.827,143.938 190.19,168.012 234.596,168.012 			"/>
			<polygon style="fill:#92E3A9;stroke:#263238;stroke-linecap:round;stroke-linejoin:round;stroke-miterlimit:10;" points="
				227.493,143.809 203.827,143.938 190.19,168.012 219.563,168.012 			"/>
			<polygon style="fill:#FFFFFF;stroke:#263238;stroke-linecap:round;stroke-linejoin:round;stroke-miterlimit:10;" points="
				215.457,143.874 203.827,143.938 190.19,168.012 204.615,168.012 			"/>
		</g>
	</g>
</g>
<g id="Plant">
	<g>
		<g>
			
				<line style="fill:none;stroke:#263238;stroke-width:2;stroke-miterlimit:10;" x1="406.56" y1="320.904" x2="418.018" y2="430.692"/>
			<g>
				<g>
					
						<line style="fill:none;stroke:#263238;stroke-width:2;stroke-miterlimit:10;" x1="416.171" y1="409.681" x2="410.977" y2="404.195"/>
					<path style="fill:#92E3A9;stroke:#263238;stroke-miterlimit:10;" d="M412.555,405.839c0,0,0.149-2.427-2.067-4.406
						c-1.333-1.191-8.35-4.143-9.016-1.671C400.748,402.45,407.93,407.728,412.555,405.839z"/>
					
						<line style="fill:none;stroke:#263238;stroke-width:0.5;stroke-miterlimit:10;" x1="412.555" y1="405.839" x2="405.875" y2="401.677"/>
				</g>
				<g>
					
						<line style="fill:none;stroke:#263238;stroke-width:2;stroke-miterlimit:10;" x1="417.474" y1="422.168" x2="412.28" y2="416.681"/>
					<path style="fill:#92E3A9;stroke:#263238;stroke-miterlimit:10;" d="M413.858,418.325c0,0,0.149-2.427-2.067-4.406
						c-1.333-1.191-8.35-4.143-9.016-1.671C402.051,414.936,409.233,420.215,413.858,418.325z"/>
					
						<line style="fill:none;stroke:#263238;stroke-width:0.5;stroke-miterlimit:10;" x1="413.858" y1="418.325" x2="407.178" y2="414.162"/>
				</g>
				<g>
					
						<line style="fill:none;stroke:#263238;stroke-width:2;stroke-miterlimit:10;" x1="412.991" y1="379.213" x2="407.797" y2="373.727"/>
					<path style="fill:#92E3A9;stroke:#263238;stroke-miterlimit:10;" d="M409.375,375.371c0,0,0.149-2.427-2.067-4.406
						c-1.333-1.191-8.35-4.143-9.016-1.671C397.568,371.981,404.75,377.26,409.375,375.371z"/>
					
						<line style="fill:none;stroke:#263238;stroke-width:0.5;stroke-miterlimit:10;" x1="409.375" y1="375.371" x2="402.695" y2="371.208"/>
				</g>
				<g>
					
						<line style="fill:none;stroke:#263238;stroke-width:2;stroke-miterlimit:10;" x1="414.295" y1="391.699" x2="409.1" y2="386.213"/>
					<path style="fill:#92E3A9;stroke:#263238;stroke-miterlimit:10;" d="M410.678,387.857c0,0,0.149-2.427-2.067-4.406
						c-1.333-1.191-8.35-4.143-9.016-1.671C398.871,384.467,406.053,389.746,410.678,387.857z"/>
					
						<line style="fill:none;stroke:#263238;stroke-width:0.5;stroke-miterlimit:10;" x1="410.678" y1="387.857" x2="403.999" y2="383.694"/>
				</g>
				<g>
					
						<line style="fill:none;stroke:#263238;stroke-width:2;stroke-miterlimit:10;" x1="410.875" y1="358.93" x2="405.68" y2="353.444"/>
					<path style="fill:#92E3A9;stroke:#263238;stroke-miterlimit:10;" d="M407.259,355.088c0,0,0.149-2.427-2.067-4.406
						c-1.333-1.191-8.35-4.143-9.016-1.671C395.451,351.699,402.633,356.977,407.259,355.088z"/>
					
						<line style="fill:none;stroke:#263238;stroke-width:0.5;stroke-miterlimit:10;" x1="407.259" y1="355.088" x2="400.579" y2="350.925"/>
				</g>
				<g>
					
						<line style="fill:none;stroke:#263238;stroke-width:2;stroke-miterlimit:10;" x1="408.749" y1="338.559" x2="403.555" y2="333.073"/>
					<path style="fill:#92E3A9;stroke:#263238;stroke-miterlimit:10;" d="M405.133,334.717c0,0,0.149-2.427-2.067-4.406
						c-1.333-1.191-8.35-4.143-9.016-1.672C393.325,331.327,400.507,336.606,405.133,334.717z"/>
					
						<line style="fill:none;stroke:#263238;stroke-width:0.5;stroke-miterlimit:10;" x1="405.133" y1="334.717" x2="398.453" y2="330.554"/>
				</g>
				<g>
					
						<line style="fill:none;stroke:#263238;stroke-width:2;stroke-miterlimit:10;" x1="415.298" y1="402.294" x2="419.248" y2="395.853"/>
					<path style="fill:#92E3A9;stroke:#263238;stroke-miterlimit:10;" d="M418.043,397.788c0,0-0.646-2.344,1.113-4.738
						c1.059-1.44,7.315-5.777,8.477-3.497C428.896,392.033,422.959,398.681,418.043,397.788z"/>
					
						<line style="fill:none;stroke:#263238;stroke-width:0.5;stroke-miterlimit:10;" x1="418.043" y1="397.788" x2="424.058" y2="392.039"/>
				</g>
				<g>
					
						<line style="fill:none;stroke:#263238;stroke-width:2;stroke-miterlimit:10;" x1="411.869" y1="369.436" x2="415.819" y2="362.996"/>
					<path style="fill:#92E3A9;stroke:#263238;stroke-miterlimit:10;" d="M414.614,364.93c0,0-0.646-2.344,1.113-4.738
						c1.059-1.44,7.315-5.777,8.477-3.497C425.467,359.176,419.53,365.824,414.614,364.93z"/>
					
						<line style="fill:none;stroke:#263238;stroke-width:0.5;stroke-miterlimit:10;" x1="414.614" y1="364.93" x2="420.629" y2="359.181"/>
				</g>
				<g>
					
						<line style="fill:none;stroke:#263238;stroke-width:2;stroke-miterlimit:10;" x1="410.362" y1="354.997" x2="414.312" y2="348.557"/>
					<path style="fill:#92E3A9;stroke:#263238;stroke-miterlimit:10;" d="M413.107,350.491c0,0-0.647-2.344,1.113-4.738
						c1.059-1.44,7.315-5.777,8.477-3.497C423.96,344.736,418.023,351.384,413.107,350.491z"/>
					
						<line style="fill:none;stroke:#263238;stroke-width:0.5;stroke-miterlimit:10;" x1="413.107" y1="350.491" x2="419.122" y2="344.742"/>
				</g>
				<g>
					
						<line style="fill:none;stroke:#263238;stroke-width:2;stroke-miterlimit:10;" x1="408.153" y1="333.828" x2="412.103" y2="327.388"/>
					<path style="fill:#92E3A9;stroke:#263238;stroke-miterlimit:10;" d="M410.898,329.322c0,0-0.646-2.344,1.113-4.738
						c1.059-1.44,7.315-5.777,8.477-3.497C421.751,323.568,415.814,330.216,410.898,329.322z"/>
					
						<line style="fill:none;stroke:#263238;stroke-width:0.5;stroke-miterlimit:10;" x1="410.898" y1="329.322" x2="416.913" y2="323.573"/>
					<path style="fill:#92E3A9;stroke:#263238;stroke-miterlimit:10;" d="M406.464,320.294c0,0-0.646-2.344,1.113-4.738
						c1.059-1.44,7.315-5.777,8.477-3.497C417.317,314.54,411.38,321.188,406.464,320.294z"/>
					
						<line style="fill:none;stroke:#263238;stroke-width:0.5;stroke-miterlimit:10;" x1="406.464" y1="320.294" x2="412.479" y2="314.545"/>
					<path style="fill:#92E3A9;stroke:#263238;stroke-miterlimit:10;" d="M406.812,320.542c0,0-2.399,0.397-4.595-1.604
						c-1.321-1.204-4.978-7.88-2.589-8.796C402.228,309.146,408.216,315.747,406.812,320.542z"/>
					
						<line style="fill:none;stroke:#263238;stroke-width:0.5;stroke-miterlimit:10;" x1="406.812" y1="320.542" x2="401.726" y2="313.957"/>
				</g>
			</g>
		</g>
		<g>
			
				<line style="fill:none;stroke:#263238;stroke-width:2;stroke-miterlimit:10;" x1="436.78" y1="336.024" x2="425.387" y2="445.819"/>
			<g>
				<g>
					
						<line style="fill:none;stroke:#263238;stroke-width:2;stroke-miterlimit:10;" x1="427.906" y1="424.878" x2="423.953" y2="418.44"/>
					<path style="fill:#92E3A9;stroke:#263238;stroke-miterlimit:10;" d="M425.159,420.373c0,0,0.645-2.344-1.116-4.737
						c-1.06-1.44-7.318-5.773-8.479-3.492C414.302,414.625,420.243,421.27,425.159,420.373z"/>
					
						<line style="fill:none;stroke:#263238;stroke-width:0.5;stroke-miterlimit:10;" x1="425.159" y1="420.373" x2="419.479" y2="414.924"/>
				</g>
				<g>
					
						<line style="fill:none;stroke:#263238;stroke-width:2;stroke-miterlimit:10;" x1="431.068" y1="394.408" x2="427.115" y2="387.97"/>
					<path style="fill:#92E3A9;stroke:#263238;stroke-miterlimit:10;" d="M428.32,389.903c0,0,0.645-2.344-1.116-4.737
						c-1.06-1.44-7.318-5.773-8.479-3.492C417.464,384.155,423.405,390.799,428.32,389.903z"/>
					
						<line style="fill:none;stroke:#263238;stroke-width:0.5;stroke-miterlimit:10;" x1="428.32" y1="389.903" x2="422.641" y2="384.454"/>
				</g>
				<g>
					
						<line style="fill:none;stroke:#263238;stroke-width:2;stroke-miterlimit:10;" x1="429.772" y1="406.895" x2="425.819" y2="400.456"/>
					<path style="fill:#92E3A9;stroke:#263238;stroke-miterlimit:10;" d="M427.025,402.39c0,0,0.645-2.344-1.116-4.737
						c-1.06-1.44-7.318-5.773-8.479-3.492C416.168,396.642,422.109,403.286,427.025,402.39z"/>
					
						<line style="fill:none;stroke:#263238;stroke-width:0.5;stroke-miterlimit:10;" x1="427.025" y1="402.39" x2="421.345" y2="396.941"/>
				</g>
				<g>
					
						<line style="fill:none;stroke:#263238;stroke-width:2;stroke-miterlimit:10;" x1="433.173" y1="374.124" x2="429.219" y2="367.686"/>
					<path style="fill:#92E3A9;stroke:#263238;stroke-miterlimit:10;" d="M430.425,369.619c0,0,0.645-2.344-1.116-4.737
						c-1.06-1.44-7.318-5.773-8.479-3.492C419.569,363.871,425.51,370.515,430.425,369.619z"/>
					
						<line style="fill:none;stroke:#263238;stroke-width:0.5;stroke-miterlimit:10;" x1="430.425" y1="369.619" x2="424.745" y2="364.17"/>
				</g>
				<g>
					
						<line style="fill:none;stroke:#263238;stroke-width:2;stroke-miterlimit:10;" x1="435.287" y1="353.751" x2="431.333" y2="347.313"/>
					<path style="fill:#92E3A9;stroke:#263238;stroke-miterlimit:10;" d="M432.539,349.246c0,0,0.645-2.344-1.116-4.737
						c-1.059-1.44-7.318-5.773-8.479-3.492C421.683,343.499,427.624,350.143,432.539,349.246z"/>
					
						<line style="fill:none;stroke:#263238;stroke-width:0.5;stroke-miterlimit:10;" x1="432.539" y1="349.246" x2="426.859" y2="343.797"/>
				</g>
				<g>
					
						<line style="fill:none;stroke:#263238;stroke-width:2;stroke-miterlimit:10;" x1="428.573" y1="417.469" x2="433.764" y2="411.979"/>
					<path style="fill:#92E3A9;stroke:#263238;stroke-miterlimit:10;" d="M432.187,413.624c0,0-0.15-2.427,2.065-4.407
						c1.332-1.191,8.347-4.148,9.015-1.677C443.992,410.228,436.813,415.511,432.187,413.624z"/>
					
						<line style="fill:none;stroke:#263238;stroke-width:0.5;stroke-miterlimit:10;" x1="432.187" y1="413.624" x2="439.257" y2="409.237"/>
				</g>
				<g>
					
						<line style="fill:none;stroke:#263238;stroke-width:2;stroke-miterlimit:10;" x1="431.983" y1="384.609" x2="437.173" y2="379.12"/>
					<path style="fill:#92E3A9;stroke:#263238;stroke-miterlimit:10;" d="M435.596,380.765c0,0-0.15-2.427,2.065-4.407
						c1.333-1.192,8.348-4.147,9.015-1.677C447.402,377.368,440.223,382.651,435.596,380.765z"/>
					
						<line style="fill:none;stroke:#263238;stroke-width:0.5;stroke-miterlimit:10;" x1="435.596" y1="380.765" x2="442.666" y2="376.377"/>
				</g>
				<g>
					
						<line style="fill:none;stroke:#263238;stroke-width:2;stroke-miterlimit:10;" x1="433.481" y1="370.169" x2="438.672" y2="364.68"/>
					<path style="fill:#92E3A9;stroke:#263238;stroke-miterlimit:10;" d="M437.095,366.324c0,0-0.15-2.427,2.065-4.407
						c1.333-1.191,8.348-4.148,9.015-1.677C448.9,362.928,441.721,368.211,437.095,366.324z"/>
					
						<line style="fill:none;stroke:#263238;stroke-width:0.5;stroke-miterlimit:10;" x1="437.095" y1="366.324" x2="444.165" y2="361.937"/>
				</g>
				<g>
					
						<line style="fill:none;stroke:#263238;stroke-width:2;stroke-miterlimit:10;" x1="435.678" y1="348.999" x2="440.869" y2="343.51"/>
					<path style="fill:#92E3A9;stroke:#263238;stroke-miterlimit:10;" d="M439.292,345.155c0,0-0.15-2.427,2.065-4.407
						c1.333-1.191,8.348-4.147,9.015-1.677C451.097,341.758,443.918,347.041,439.292,345.155z"/>
					
						<line style="fill:none;stroke:#263238;stroke-width:0.5;stroke-miterlimit:10;" x1="439.292" y1="345.155" x2="446.361" y2="340.767"/>
					<path style="fill:#92E3A9;stroke:#263238;stroke-miterlimit:10;" d="M436.811,335.407c0,0-0.15-2.427,2.065-4.407
						c1.332-1.191,8.348-4.147,9.015-1.677C448.617,332.011,441.438,337.294,436.811,335.407z"/>
					
						<line style="fill:none;stroke:#263238;stroke-width:0.5;stroke-miterlimit:10;" x1="436.811" y1="335.407" x2="443.881" y2="331.02"/>
					<path style="fill:#92E3A9;stroke:#263238;stroke-miterlimit:10;" d="M437.101,335.722c0,0-2.429-0.105-4.166-2.516
						c-1.045-1.45-3.249-8.736-0.722-9.141C434.962,323.625,439.463,331.318,437.101,335.722z"/>
					
						<line style="fill:none;stroke:#263238;stroke-width:0.5;stroke-miterlimit:10;" x1="437.101" y1="335.722" x2="433.479" y2="328.231"/>
				</g>
			</g>
		</g>
		
			<line style="fill:none;stroke:#263238;stroke-width:2;stroke-miterlimit:10;" x1="423.724" y1="291.315" x2="423.724" y2="430.158"/>
		<g>
			<g>
				
					<line style="fill:none;stroke:#263238;stroke-width:2;stroke-miterlimit:10;" x1="423.835" y1="409.281" x2="419.238" y2="403.286"/>
				<path style="fill:#92E3A9;stroke:#263238;stroke-miterlimit:10;" d="M420.637,405.084c0,0,0.4-2.398-1.599-4.597
					c-1.202-1.323-7.875-4.987-8.794-2.598C409.245,400.488,415.84,406.483,420.637,405.084z"/>
				
					<line style="fill:none;stroke:#263238;stroke-width:0.5;stroke-miterlimit:10;" x1="420.637" y1="405.084" x2="414.425" y2="400.251"/>
			</g>
			<g>
				
					<line style="fill:none;stroke:#263238;stroke-width:2;stroke-miterlimit:10;" x1="423.835" y1="383.189" x2="419.238" y2="377.194"/>
				<path style="fill:#92E3A9;stroke:#263238;stroke-miterlimit:10;" d="M420.637,378.992c0,0,0.4-2.398-1.599-4.597
					c-1.202-1.323-7.875-4.987-8.794-2.598C409.245,374.396,415.84,380.391,420.637,378.992z"/>
				
					<line style="fill:none;stroke:#263238;stroke-width:0.5;stroke-miterlimit:10;" x1="420.637" y1="378.992" x2="414.425" y2="374.159"/>
			</g>
			<g>
				
					<line style="fill:none;stroke:#263238;stroke-width:2;stroke-miterlimit:10;" x1="423.835" y1="352.555" x2="419.238" y2="346.56"/>
				<path style="fill:#92E3A9;stroke:#263238;stroke-miterlimit:10;" d="M420.637,348.358c0,0,0.4-2.398-1.599-4.597
					c-1.202-1.323-7.875-4.987-8.794-2.598C409.245,343.762,415.84,349.757,420.637,348.358z"/>
				
					<line style="fill:none;stroke:#263238;stroke-width:0.5;stroke-miterlimit:10;" x1="420.637" y1="348.358" x2="414.425" y2="343.525"/>
			</g>
			<g>
				
					<line style="fill:none;stroke:#263238;stroke-width:2;stroke-miterlimit:10;" x1="423.835" y1="332.163" x2="419.238" y2="326.167"/>
				<path style="fill:#92E3A9;stroke:#263238;stroke-miterlimit:10;" d="M420.637,327.966c0,0,0.4-2.398-1.599-4.597
					c-1.202-1.323-7.875-4.987-8.794-2.598C409.245,323.369,415.84,329.365,420.637,327.966z"/>
				
					<line style="fill:none;stroke:#263238;stroke-width:0.5;stroke-miterlimit:10;" x1="420.637" y1="327.966" x2="414.425" y2="323.132"/>
			</g>
			<g>
				
					<line style="fill:none;stroke:#263238;stroke-width:2;stroke-miterlimit:10;" x1="423.835" y1="311.681" x2="419.238" y2="305.685"/>
				<path style="fill:#92E3A9;stroke:#263238;stroke-miterlimit:10;" d="M420.637,307.483c0,0,0.4-2.398-1.599-4.597
					c-1.202-1.323-7.875-4.987-8.794-2.598C409.245,302.887,415.84,308.883,420.637,307.483z"/>
				
					<line style="fill:none;stroke:#263238;stroke-width:0.5;stroke-miterlimit:10;" x1="420.637" y1="307.483" x2="414.425" y2="302.65"/>
			</g>
			<g>
				
					<line style="fill:none;stroke:#263238;stroke-width:2;stroke-miterlimit:10;" x1="423.733" y1="417.249" x2="428.33" y2="411.253"/>
				<path style="fill:#92E3A9;stroke:#263238;stroke-miterlimit:10;" d="M426.931,413.052c0,0-0.399-2.398,1.599-4.597
					c1.202-1.323,7.875-4.987,8.794-2.598C438.323,408.455,431.727,414.451,426.931,413.052z"/>
				
					<line style="fill:none;stroke:#263238;stroke-width:0.5;stroke-miterlimit:10;" x1="426.931" y1="413.052" x2="433.51" y2="407.958"/>
			</g>
			<g>
				
					<line style="fill:none;stroke:#263238;stroke-width:2;stroke-miterlimit:10;" x1="423.733" y1="375.751" x2="428.33" y2="369.755"/>
				<path style="fill:#92E3A9;stroke:#263238;stroke-miterlimit:10;" d="M426.931,371.554c0,0-0.399-2.398,1.599-4.597
					c1.202-1.323,7.875-4.987,8.794-2.598C438.323,366.957,431.727,372.953,426.931,371.554z"/>
				
					<line style="fill:none;stroke:#263238;stroke-width:0.5;stroke-miterlimit:10;" x1="426.931" y1="371.554" x2="433.51" y2="366.46"/>
			</g>
			<g>
				
					<line style="fill:none;stroke:#263238;stroke-width:2;stroke-miterlimit:10;" x1="423.733" y1="355.269" x2="428.33" y2="349.273"/>
				<path style="fill:#92E3A9;stroke:#263238;stroke-miterlimit:10;" d="M426.931,351.072c0,0-0.399-2.398,1.599-4.597
					c1.202-1.323,7.875-4.987,8.794-2.598C438.323,346.475,431.727,352.471,426.931,351.072z"/>
				
					<line style="fill:none;stroke:#263238;stroke-width:0.5;stroke-miterlimit:10;" x1="426.931" y1="351.072" x2="433.51" y2="345.978"/>
			</g>
			<g>
				
					<line style="fill:none;stroke:#263238;stroke-width:2;stroke-miterlimit:10;" x1="423.733" y1="328.197" x2="428.33" y2="322.201"/>
				<path style="fill:#92E3A9;stroke:#263238;stroke-miterlimit:10;" d="M426.931,324c0,0-0.399-2.398,1.599-4.597
					c1.202-1.323,7.875-4.987,8.794-2.598C438.323,319.404,431.727,325.399,426.931,324z"/>
				
					<line style="fill:none;stroke:#263238;stroke-width:0.5;stroke-miterlimit:10;" x1="426.931" y1="324" x2="433.51" y2="318.906"/>
			</g>
			<g>
				
					<line style="fill:none;stroke:#263238;stroke-width:2;stroke-miterlimit:10;" x1="423.733" y1="306.914" x2="428.33" y2="300.918"/>
				<path style="fill:#92E3A9;stroke:#263238;stroke-miterlimit:10;" d="M426.931,302.717c0,0-0.399-2.398,1.599-4.597
					c1.202-1.323,7.875-4.987,8.794-2.598C438.323,298.12,431.727,304.116,426.931,302.717z"/>
				
					<line style="fill:none;stroke:#263238;stroke-width:0.5;stroke-miterlimit:10;" x1="426.931" y1="302.717" x2="433.51" y2="297.623"/>
				<path style="fill:#92E3A9;stroke:#263238;stroke-miterlimit:10;" d="M423.458,293.277c0,0-0.4-2.398,1.599-4.597
					c1.202-1.322,7.875-4.987,8.794-2.598C434.85,288.68,428.255,294.676,423.458,293.277z"/>
				
					<line style="fill:none;stroke:#263238;stroke-width:0.5;stroke-miterlimit:10;" x1="423.458" y1="293.277" x2="430.037" y2="288.184"/>
				<path style="fill:#92E3A9;stroke:#263238;stroke-miterlimit:10;" d="M423.779,293.56c0,0-2.427,0.146-4.404-2.072
					c-1.189-1.335-4.134-8.354-1.661-9.018C420.402,281.749,425.673,288.937,423.779,293.56z"/>
				
					<line style="fill:none;stroke:#263238;stroke-width:0.5;stroke-miterlimit:10;" x1="423.779" y1="293.56" x2="419.403" y2="286.483"/>
			</g>
		</g>
		<polygon style="fill:#263238;stroke:#263238;stroke-miterlimit:10;" points="429.436,466.168 414.732,466.168 412.894,429.032 
			431.274,429.032 		"/>
	</g>
</g>
<g id="Heart">
	<g>
		<path style="fill:#FFFFFF;stroke:#263238;stroke-linecap:round;stroke-linejoin:round;stroke-miterlimit:10;" d="M434.835,157.786
			h-51.608c-3.15,0-5.703,2.553-5.703,5.703v32.516c0,3.15,2.553,5.703,5.703,5.703h1.113l-19.53,19.105l30.735-19.105h39.29
			c3.15,0,5.703-2.553,5.703-5.703v-32.516C440.538,160.339,437.985,157.786,434.835,157.786z"/>
		<path style="fill:#92E3A9;stroke:#263238;stroke-linecap:round;stroke-linejoin:round;stroke-miterlimit:10;" d="M426.307,174.231
			c0,2.488-0.946,4.969-2.845,6.869l-14.683,14.683l-13.738-13.745l-0.938-0.938c-3.791-3.791-3.791-9.947,0-13.738
			c1.899-1.899,4.388-2.845,6.869-2.845c2.489,0,4.977,0.946,6.876,2.845l0.938,0.938l0.93-0.938c3.799-3.799,9.947-3.799,13.745,0
			C425.361,169.261,426.307,171.742,426.307,174.231z"/>
	</g>
</g>
<g id="Stars">
	<g>
		<path style="fill:#92E3A9;stroke:#263238;stroke-linecap:round;stroke-linejoin:round;stroke-miterlimit:10;" d="M472.644,233.59
			h-90.985c-4.405,0-7.976,3.571-7.976,7.976v13.626c0,3.145,1.825,5.857,4.47,7.156l-17.801,17.377l29.075-16.556h83.217
			c4.405,0,7.976-3.571,7.976-7.976v-13.626C480.62,237.161,477.049,233.59,472.644,233.59z"/>
		<g>
			<polygon style="fill:#FFFFFF;stroke:#263238;stroke-linecap:round;stroke-linejoin:round;stroke-miterlimit:10;" points="
				387.606,242.369 389.098,246.96 393.926,246.96 390.02,249.798 391.512,254.39 387.606,251.552 383.7,254.39 385.192,249.798 
				381.286,246.96 386.114,246.96 			"/>
			<polygon style="fill:#FFFFFF;stroke:#263238;stroke-linecap:round;stroke-linejoin:round;stroke-miterlimit:10;" points="
				407.379,242.369 408.87,246.96 413.698,246.96 409.793,249.798 411.284,254.39 407.379,251.552 403.473,254.39 404.965,249.798 
				401.059,246.96 405.887,246.96 			"/>
			<polygon style="fill:#FFFFFF;stroke:#263238;stroke-linecap:round;stroke-linejoin:round;stroke-miterlimit:10;" points="
				427.151,242.369 428.643,246.96 433.471,246.96 429.565,249.798 431.057,254.39 427.151,251.552 423.245,254.39 424.737,249.798 
				420.831,246.96 425.659,246.96 			"/>
			<polygon style="fill:#FFFFFF;stroke:#263238;stroke-linecap:round;stroke-linejoin:round;stroke-miterlimit:10;" points="
				446.924,242.369 448.416,246.96 453.244,246.96 449.338,249.798 450.83,254.39 446.924,251.552 443.018,254.39 444.51,249.798 
				440.604,246.96 445.432,246.96 			"/>
			<polygon style="fill:#FFFFFF;stroke:#263238;stroke-linecap:round;stroke-linejoin:round;stroke-miterlimit:10;" points="
				466.697,242.369 468.188,246.96 473.016,246.96 469.111,249.798 470.602,254.39 466.697,251.552 462.79,254.39 464.283,249.798 
				460.376,246.96 465.204,246.96 			"/>
		</g>
	</g>
</g>
<g id="Megaphone">
	<g>
		<path style="fill:#FFFFFF;stroke:#263238;stroke-linecap:round;stroke-linejoin:round;stroke-miterlimit:10;" d="M406.546,104.831
			L406.546,104.831c-4.343,1.057-8.721-1.606-9.778-5.95l-5.179-21.277c-1.057-4.343,1.607-8.721,5.95-9.778l0,0
			c4.343-1.057,8.721,1.607,9.778,5.95l5.179,21.277C413.553,99.396,410.889,103.774,406.546,104.831z"/>
		<path style="fill:#FFFFFF;stroke:#263238;stroke-linecap:round;stroke-linejoin:round;stroke-miterlimit:10;" d="M398.318,129.726
			L398.318,129.726c-3.106,0.756-5.835-1.247-6.094-4.475l-2.149-26.758c-0.259-3.227,2.049-6.457,5.156-7.213l0,0
			c3.106-0.756,5.835,1.247,6.094,4.475l2.148,26.759C403.733,125.74,401.425,128.969,398.318,129.726z"/>
		<path style="fill:#FFFFFF;stroke:#263238;stroke-linecap:round;stroke-linejoin:round;stroke-miterlimit:10;" d="M455.521,100.122
			l-27.052-5.618c-9.518-0.199-19.022,0.841-28.272,3.093l-18.172,4.424c-4.013,0.977-8.059-1.485-9.036-5.498l-3.813-15.662
			c-0.977-4.013,1.485-8.059,5.498-9.036l14.7-3.578c11.141-2.712,21.788-7.151,31.556-13.157l19.199-18.201L455.521,100.122z"/>
		<path style="fill:#263238;stroke:#263238;stroke-linecap:round;stroke-linejoin:round;stroke-miterlimit:10;" d="M399.549,65.22
			c-3.339,1.164-6.73,2.188-10.175,3.026l-14.7,3.578c-4.013,0.977-6.475,5.022-5.498,9.036l3.813,15.662
			c0.977,4.013,5.022,6.475,9.036,5.498l18.172-4.424c2.28-0.555,4.576-1.035,6.883-1.442L399.549,65.22z"/>
		<path style="fill:#92E3A9;stroke:#263238;stroke-linecap:round;stroke-linejoin:round;stroke-miterlimit:10;" d="M460.375,107.596
			l-3.598,0.876c-2.538,0.618-5.096-0.939-5.714-3.477l-16.441-67.543c-0.618-2.538,0.939-5.096,3.477-5.714l3.599-0.876
			c2.538-0.618,5.096,0.939,5.714,3.477l16.441,67.542C464.47,104.42,462.913,106.978,460.375,107.596z"/>
		
			<line style="fill:none;stroke:#263238;stroke-width:2;stroke-linecap:round;stroke-linejoin:round;stroke-miterlimit:10;" x1="469.212" y1="42.227" x2="462.868" y2="52.237"/>
		
			<line style="fill:none;stroke:#263238;stroke-width:2;stroke-linecap:round;stroke-linejoin:round;stroke-miterlimit:10;" x1="479.433" y1="84.216" x2="469.198" y2="78.241"/>
		
			<line style="fill:none;stroke:#263238;stroke-width:2;stroke-linecap:round;stroke-linejoin:round;stroke-miterlimit:10;" x1="468.256" y1="65.351" x2="480.689" y2="62.324"/>
		<path style="fill:#263238;stroke:#263238;stroke-linecap:round;stroke-linejoin:round;stroke-miterlimit:10;" d="M403.333,119.411
			l4.353,3.715c0.515,0.44,0.879,1.031,1.039,1.689l0,0c0.421,1.73-0.64,3.473-2.37,3.894l-13.742,3.345l-0.861-12.56
			L403.333,119.411z"/>
		<path style="fill:#92E3A9;" d="M381.129,81.699c-0.248-1.018-1.274-1.642-2.292-1.394c-1.018,0.248-1.642,1.274-1.394,2.292
			c0.248,1.018,1.274,1.642,2.292,1.395C380.752,83.743,381.376,82.717,381.129,81.699z"/>
	</g>
</g>
<g id="Character">
	<g>
		<g>
			<path id="XMLID_56_" style="fill:#92E3A9;stroke:#263238;stroke-linecap:round;stroke-linejoin:round;stroke-miterlimit:10;" d="
				M73.151,458.639c0,0-0.363,4.659,0.908,6.039s12.532,1.898,13.803,0.173c1.271-1.725,0.545-8.11,0.545-8.11
				S83.867,458.294,73.151,458.639z"/>
			<path id="XMLID_55_" style="fill:#FFFFFF;stroke:#263238;stroke-linecap:round;stroke-linejoin:round;stroke-miterlimit:10;" d="
				M84.593,463.988c-6.129,0.159-9.405-0.235-11.177-0.704c0.144,0.574,0.348,1.074,0.643,1.395
				c1.271,1.38,12.532,1.898,13.803,0.173c0.182-0.246,0.319-0.595,0.427-1C87.151,463.905,85.94,463.953,84.593,463.988z"/>
			<path id="XMLID_54_" style="fill:#92E3A9;stroke:#263238;stroke-linecap:round;stroke-linejoin:round;stroke-miterlimit:10;" d="
				M106.569,464.49c0,0,4.383,3.995,9.649,5.548c5.267,1.553,6.72,2.416,6.175,4.141c-0.545,1.725-5.085,2.243-15.982,2.588
				c-10.897,0.345-19.094-1.062-20.547-2.098c-1.453-1.035-0.545-2.933,0-3.451S104.571,463.109,106.569,464.49z"/>
			<path id="XMLID_53_" style="fill:#FFFFFF;stroke:#263238;stroke-linecap:round;stroke-linejoin:round;stroke-miterlimit:10;" d="
				M122.394,474.179c0.191-0.606,0.129-1.105-0.252-1.566c-2.533,1.033-7.068,1.342-17.547,1.221
				c-9.205-0.107-14.831-1.464-19.429-1.278c-0.176,0.718-0.101,1.544,0.699,2.113c1.453,1.035,9.649,2.443,20.547,2.098
				C117.308,476.422,121.849,475.905,122.394,474.179z"/>
		</g>
		<path id="XMLID_52_" style="fill:#263238;stroke:#263238;stroke-linecap:round;stroke-linejoin:round;stroke-miterlimit:10;" d="
			M84.23,363.739c0,0-0.363,20.706-4.359,38.478c-3.996,17.772-6.538,26.055-7.265,37.27c-0.726,11.216,0.182,20.188,0.182,20.188
			s1.998,1.035,6.901,0.69c4.904-0.345,7.628-2.243,7.628-2.243s0.545-19.325,0.545-30.023c0-10.698,4.722-40.031,5.085-50.901
			c0.363-10.871-2.906-16.392-5.267-18.117C85.32,357.354,84.23,363.739,84.23,363.739z"/>
		<path id="XMLID_51_" style="fill:#263238;stroke:#263238;stroke-linecap:round;stroke-linejoin:round;stroke-miterlimit:10;" d="
			M108.204,339.582c0,0-0.182,10.353-0.182,23.466s-2.906,43.827-5.267,58.493c-2.361,14.666-0.726,34.666-0.363,36.219
			c0.363,1.553,1.09,1.035,2.361,2.588c1.271,1.553,2.724,4.314,2.724,4.314s-7.083,4.831-12.532,6.557
			c-5.449,1.725-7.446,2.416-8.718,2.416c-1.271,0-1.271-1.208-2.179-4.141c-0.908-2.933-0.908-15.184-0.908-15.184
			s-2.543-17.411-2.543-28.109c0-10.698,4.904-17.255,4.904-27.607c0-10.353-3.088-38.305-4.904-42.446
			c-1.816-4.141-5.267-9.835-5.63-12.768c-0.363-2.933-0.545-4.831-0.545-4.831L108.204,339.582z"/>
		<path id="XMLID_47_" style="fill:#92E3A9;stroke:#263238;stroke-linecap:round;stroke-linejoin:round;stroke-miterlimit:10;" d="
			M85.32,248.478c0,0-7.265,12.078-9.807,22.431c-2.543,10.353-4.904,30.886-5.63,42.619c-0.727,11.733-2.361,27.952-2.361,27.952
			s9.263,2.761,22.157,2.588c12.895-0.172,24.337-2.761,24.337-2.761s-3.996-33.819-7.81-53.489
			c-3.814-19.67-7.446-32.094-7.446-32.094S88.952,247.788,85.32,248.478z"/>
		<g>
			<path id="XMLID_46_" style="fill:#FFFFFF;stroke:#263238;stroke-linecap:round;stroke-linejoin:round;stroke-miterlimit:10;" d="
				M90.042,225.874c0,0,1.453,4.659,0.182,10.008c-1.271,5.349-1.998,9.145-1.998,9.145s10.534,11.215,10.534,10.698
				c0-0.518,0.363-6.384,1.998-10.008c1.634-3.623,2.724-5.694,2.724-5.694s-3.632-1.898-5.63-6.384
				c-1.998-4.486-2.179-11.561-4.904-11.733C90.224,221.733,90.042,225.874,90.042,225.874z"/>
			<path style="fill:#263238;stroke:#263238;stroke-linecap:round;stroke-linejoin:round;stroke-miterlimit:10;" d="M94.758,239.768
				c0,0-0.303,2.876,0.908,5.449c1.211,2.573,3.027,5.297,3.027,5.297l2.876-8.173L94.758,239.768z"/>
			<g>
				
					<path id="XMLID_45_" style="fill:#FFFFFF;stroke:#263238;stroke-linecap:round;stroke-linejoin:round;stroke-miterlimit:10;" d="
					M114.809,214.125c0,0,0,10.18,0.727,12.423c0.727,2.243,3.269,2.761,2.906,3.969c-0.363,1.208-3.814,1.898-3.814,1.898
					s-0.908,8.627-1.635,11.043c-0.727,2.416-2.543,2.933-6.538,2.588c-3.996-0.345-8.536-1.553-10.352-4.141
					c-1.816-2.588-2.906-7.247-2.906-7.247s-0.908-6.902-0.908-12.423c0-5.522-0.727-8.455,6.901-11.388
					C106.818,207.914,114.446,211.71,114.809,214.125z"/>
				<path id="XMLID_43_" style="fill:#263238;" d="M111.903,227.153c0,1.001-0.285,1.812-0.636,1.812
					c-0.351,0-0.636-0.811-0.636-1.812c0-1.001,0.285-1.812,0.636-1.812C111.618,225.341,111.903,226.152,111.903,227.153z"/>
				<path id="XMLID_42_" style="fill:none;stroke:#263238;stroke-linecap:round;stroke-linejoin:round;stroke-miterlimit:10;" d="
					M108.089,223.443c0,0,0.908-3.278,3.632-3.106"/>
				<path style="fill:none;stroke:#263238;stroke-linecap:round;stroke-linejoin:round;stroke-miterlimit:10;" d="M108.508,233.321
					c0,0,0.43,1.864,4.158,1.72"/>
			</g>
			<g>
				
					<path id="XMLID_41_" style="fill:#263238;stroke:#263238;stroke-linecap:round;stroke-linejoin:round;stroke-miterlimit:10;" d="
					M95.194,231.208l3.814-1.035c0,0-2.179-3.278,0.182-4.831c2.361-1.553,5.812-2.761,4.904-4.314
					c-0.908-1.553-6.901-2.416-3.996-4.314c2.906-1.898,6.902-2.933,7.628-2.243c0.727,0.69,0,1.553,4.722,1.553
					c4.722,0,7.265-1.725,5.812-7.247c-1.453-5.521-9.262-7.592-14.166-5.694c-4.904,1.898-6.357,3.278-6.357,3.278
					s-10.352,0.345-13.44,7.592c-3.087,7.247-1.816,11.733,0.363,14.149c2.179,2.416,5.449,5.004,6.72,5.004
					C92.651,233.105,95.194,231.208,95.194,231.208z"/>
			</g>
			<path id="XMLID_40_" style="fill:#FFFFFF;stroke:#263238;stroke-linecap:round;stroke-linejoin:round;stroke-miterlimit:10;" d="
				M96.829,233.278c0-0.518-1.453-7.764-4.177-7.764c-2.724,0-4.177,1.898-3.087,6.212c1.09,4.314,4.359,5.694,6.901,3.451"/>
		</g>
		
			<polygon id="XMLID_39_" style="fill:#92E3A9;stroke:#263238;stroke-linecap:round;stroke-linejoin:round;stroke-miterlimit:10;" points="
			86.046,240.886 100.394,253.654 101.847,261.764 82.414,248.823 		"/>
		<g>
			<g id="XMLID_37_">
				<path id="XMLID_38_" style="fill:#263238;stroke:#FFFFFF;stroke-miterlimit:10;" d="M67.413,379.948
					c-1.115,0-2.058-0.815-2.147-1.889l-1.394-16.918c-0.226-2.734,1.932-5.143,4.808-5.371l28.732-2.274
					c2.856-0.211,5.405,1.795,5.675,4.508l1.708,17.114c0.112,1.126-0.757,2.126-1.943,2.233c-1.165,0.105-2.239-0.72-2.35-1.846
					l-1.709-17.114c-0.049-0.487-0.496-0.871-1.022-0.811l-28.734,2.274c-0.519,0.04-0.908,0.475-0.868,0.967l1.394,16.918
					c0.094,1.128-0.793,2.114-1.981,2.202C67.527,379.947,67.47,379.948,67.413,379.948z"/>
			</g>
			<path id="XMLID_36_" style="fill:#92E3A9;stroke:#263238;stroke-linecap:round;stroke-linejoin:round;stroke-miterlimit:10;" d="
				M51.978,378.223l3.865,27.855c0.278,2.001,2.057,3.439,4.06,3.28l55.229-4.372c1.976-0.156,3.5-1.815,3.5-3.808v-28.8
				l-33.054,6.758L51.978,378.223z"/>
			<g id="XMLID_27_">
				
					<path id="XMLID_35_" style="fill:#FFFFFF;stroke:#263238;stroke-linecap:round;stroke-linejoin:round;stroke-miterlimit:10;" d="
					M63.572,406.023l-0.751,0.056c-0.443,0.033-0.83-0.281-0.864-0.702l-1.7-20.668c-0.035-0.421,0.296-0.788,0.739-0.821
					l0.751-0.056c0.443-0.033,0.83,0.281,0.864,0.702l1.7,20.668C64.346,405.622,64.015,405.99,63.572,406.023z"/>
				
					<path id="XMLID_34_" style="fill:#FFFFFF;stroke:#263238;stroke-linecap:round;stroke-linejoin:round;stroke-miterlimit:10;" d="
					M70.272,405.525l-0.751,0.056c-0.443,0.033-0.83-0.281-0.864-0.702l-1.7-20.668c-0.035-0.421,0.296-0.788,0.739-0.821
					l0.751-0.056c0.443-0.033,0.829,0.281,0.864,0.702l1.7,20.668C71.045,405.125,70.715,405.493,70.272,405.525z"/>
				
					<path id="XMLID_33_" style="fill:#FFFFFF;stroke:#263238;stroke-linecap:round;stroke-linejoin:round;stroke-miterlimit:10;" d="
					M76.971,405.028l-0.751,0.056c-0.443,0.033-0.83-0.281-0.864-0.702l-1.7-20.668c-0.035-0.421,0.296-0.788,0.739-0.821
					l0.751-0.056c0.443-0.033,0.83,0.282,0.864,0.702l1.7,20.668C77.745,404.628,77.414,404.995,76.971,405.028z"/>
				
					<path id="XMLID_32_" style="fill:#FFFFFF;stroke:#263238;stroke-linecap:round;stroke-linejoin:round;stroke-miterlimit:10;" d="
					M83.671,404.531l-0.751,0.056c-0.443,0.033-0.83-0.281-0.864-0.702l-1.7-20.668c-0.035-0.421,0.296-0.788,0.739-0.821
					l0.751-0.056c0.443-0.033,0.83,0.281,0.864,0.702l1.7,20.668C84.444,404.13,84.113,404.498,83.671,404.531z"/>
				
					<path id="XMLID_31_" style="fill:#FFFFFF;stroke:#263238;stroke-linecap:round;stroke-linejoin:round;stroke-miterlimit:10;" d="
					M90.37,404.033l-0.751,0.056c-0.443,0.033-0.83-0.281-0.864-0.702l-1.7-20.668c-0.035-0.421,0.296-0.788,0.739-0.821
					l0.751-0.056c0.443-0.033,0.83,0.281,0.864,0.702l1.7,20.668C91.144,403.633,90.813,404,90.37,404.033z"/>
				
					<path id="XMLID_30_" style="fill:#FFFFFF;stroke:#263238;stroke-linecap:round;stroke-linejoin:round;stroke-miterlimit:10;" d="
					M97.07,403.536l-0.751,0.056c-0.443,0.033-0.83-0.281-0.864-0.702l-1.7-20.668c-0.035-0.421,0.296-0.788,0.739-0.821
					l0.751-0.056c0.443-0.033,0.83,0.281,0.864,0.702l1.7,20.668C97.843,403.135,97.512,403.503,97.07,403.536z"/>
				
					<path id="XMLID_29_" style="fill:#FFFFFF;stroke:#263238;stroke-linecap:round;stroke-linejoin:round;stroke-miterlimit:10;" d="
					M103.769,403.039l-0.751,0.056c-0.443,0.033-0.83-0.281-0.864-0.702l-1.7-20.668c-0.035-0.421,0.296-0.788,0.739-0.821
					l0.751-0.056c0.443-0.033,0.829,0.281,0.864,0.702l1.7,20.668C104.543,402.638,104.212,403.006,103.769,403.039z"/>
				
					<path id="XMLID_28_" style="fill:#FFFFFF;stroke:#263238;stroke-linecap:round;stroke-linejoin:round;stroke-miterlimit:10;" d="
					M110.468,402.541l-0.751,0.056c-0.443,0.033-0.83-0.281-0.864-0.702l-1.7-20.668c-0.035-0.421,0.296-0.788,0.739-0.821
					l0.751-0.056c0.443-0.033,0.83,0.281,0.864,0.702l1.7,20.668C111.242,402.141,110.911,402.508,110.468,402.541z"/>
			</g>
			
				<polygon id="XMLID_26_" style="fill:#92E3A9;stroke:#263238;stroke-linecap:round;stroke-linejoin:round;stroke-miterlimit:10;" points="
				47.982,374.276 85.032,376.519 122.446,367.547 123.354,373.068 85.214,381.35 48.89,379.28 			"/>
		</g>
		<g>
			<path id="XMLID_25_" style="fill:#FFFFFF;stroke:#263238;stroke-linecap:round;stroke-linejoin:round;stroke-miterlimit:10;" d="
				M76.602,298.344c0,0-2.179,5.522-1.453,16.737c0.727,11.216,7.083,30.541,7.083,31.576c0,1.035-4.359,5.349-4.177,7.247
				s1.816,4.486,1.816,4.486s-1.998,0.69-1.816,1.553s0.727,1.208,2.179,1.208c1.453,0,3.814,1.208,5.267-0.345
				c1.453-1.553,2.179-2.416,2.543-4.831c0.363-2.416-0.363-6.212-0.363-12.423s-2.724-34.509-1.816-37.443
				c0.908-2.933,1.998-5.176,1.998-5.176L76.602,298.344z"/>
			<path id="XMLID_24_" style="fill:#92E3A9;stroke:#263238;stroke-linecap:round;stroke-linejoin:round;stroke-miterlimit:10;" d="
				M85.683,261.936c0,0-4.359,1.725-6.901,4.831c-2.543,3.106-1.635,6.902-1.453,9.318c0.182,2.416-0.182,5.866-0.182,5.866
				l-3.996,15.702c0,0,1.271,2.07,9.807,3.796c8.536,1.725,11.26,1.725,11.26,1.725s-0.727-17.945,0-25.192
				c0.727-7.247,1.635-10.698-0.908-13.286"/>
		</g>
	</g>
</g>
<g id="Speech_Bubbles">
	<g>
		<g>
			<path style="fill:#FFFFFF;stroke:#263238;stroke-linecap:round;stroke-linejoin:round;stroke-miterlimit:10;" d="M44.146,122.705
				h47.191c2.88,0,5.215,2.335,5.215,5.215v29.733c0,2.88-2.335,5.215-5.215,5.215H76.025l3.061,14.121l-13.307-14.121H44.146
				c-2.88,0-5.215-2.335-5.215-5.215V127.92C38.931,125.04,41.266,122.705,44.146,122.705z"/>
			<g>
				<path style="fill:#263238;" d="M57.904,142.381c0,1.397-1.133,2.53-2.53,2.53c-1.397,0-2.53-1.133-2.53-2.53
					c0-1.397,1.133-2.53,2.53-2.53C56.772,139.851,57.904,140.984,57.904,142.381z"/>
				<path style="fill:#263238;" d="M70.271,142.381c0,1.397-1.133,2.53-2.53,2.53c-1.397,0-2.53-1.133-2.53-2.53
					c0-1.397,1.133-2.53,2.53-2.53C69.138,139.851,70.271,140.984,70.271,142.381z"/>
				<path style="fill:#263238;" d="M82.638,142.381c0,1.397-1.133,2.53-2.53,2.53c-1.397,0-2.53-1.133-2.53-2.53
					c0-1.397,1.132-2.53,2.53-2.53C81.505,139.851,82.638,140.984,82.638,142.381z"/>
			</g>
		</g>
		<g>
			<path style="fill:#92E3A9;stroke:#263238;stroke-linecap:round;stroke-linejoin:round;stroke-miterlimit:10;" d="
				M135.936,139.245H93.659c-2.58,0-4.672,2.092-4.672,4.672v26.637c0,2.58,2.092,4.672,4.672,4.672h0.912l-2.742,12.651
				l11.921-12.651h32.186c2.58,0,4.672-2.092,4.672-4.672v-26.637C140.608,141.337,138.516,139.245,135.936,139.245z"/>
			<g>
				<path style="fill:#263238;" d="M106.157,156.153c0,1.397-1.132,2.53-2.53,2.53c-1.397,0-2.53-1.133-2.53-2.53
					c0-1.397,1.132-2.53,2.53-2.53C105.025,153.623,106.157,154.756,106.157,156.153z"/>
				<path style="fill:#263238;" d="M118.524,156.153c0,1.397-1.133,2.53-2.53,2.53s-2.53-1.133-2.53-2.53
					c0-1.397,1.132-2.53,2.53-2.53S118.524,154.756,118.524,156.153z"/>
				<path style="fill:#263238;" d="M130.891,156.153c0,1.397-1.132,2.53-2.529,2.53c-1.397,0-2.53-1.133-2.53-2.53
					c0-1.397,1.132-2.53,2.53-2.53C129.758,153.623,130.891,154.756,130.891,156.153z"/>
			</g>
		</g>
	</g>
</g>
<g id="Chart">
	<g>
		<g>
			<g>
				
					<rect x="41.046" y="73.776" style="fill:#263238;stroke:#263238;stroke-width:0.5;stroke-linecap:round;stroke-linejoin:round;stroke-miterlimit:10;" width="10.302" height="30.733"/>
				
					<rect x="57.235" y="84.832" style="fill:#92E3A9;stroke:#263238;stroke-linecap:round;stroke-linejoin:round;stroke-miterlimit:10;" width="10.302" height="19.677"/>
				
					<rect x="73.424" y="67.046" style="fill:#263238;stroke:#263238;stroke-width:0.5;stroke-linecap:round;stroke-linejoin:round;stroke-miterlimit:10;" width="10.302" height="37.463"/>
				
					<rect x="89.613" y="74.796" style="fill:#92E3A9;stroke:#263238;stroke-linecap:round;stroke-linejoin:round;stroke-miterlimit:10;" width="10.302" height="29.713"/>
				
					<rect x="105.802" y="68.007" style="fill:#263238;stroke:#263238;stroke-width:0.5;stroke-linecap:round;stroke-linejoin:round;stroke-miterlimit:10;" width="10.302" height="36.501"/>
				
					<rect x="121.991" y="46.376" style="fill:#92E3A9;stroke:#263238;stroke-linecap:round;stroke-linejoin:round;stroke-miterlimit:10;" width="10.302" height="58.133"/>
			</g>
			<g>
				
					<line style="fill:none;stroke:#263238;stroke-width:0.5;stroke-linecap:round;stroke-linejoin:round;stroke-miterlimit:10;" x1="143.866" y1="45.763" x2="149.892" y2="45.763"/>
				
					<line style="fill:none;stroke:#263238;stroke-width:0.5;stroke-linecap:round;stroke-linejoin:round;stroke-miterlimit:10;" x1="143.866" y1="57.515" x2="149.892" y2="57.515"/>
				
					<line style="fill:none;stroke:#263238;stroke-width:0.5;stroke-linecap:round;stroke-linejoin:round;stroke-miterlimit:10;" x1="143.866" y1="69.266" x2="149.892" y2="69.266"/>
				
					<line style="fill:none;stroke:#263238;stroke-width:0.5;stroke-linecap:round;stroke-linejoin:round;stroke-miterlimit:10;" x1="143.866" y1="81.018" x2="149.892" y2="81.018"/>
				
					<line style="fill:none;stroke:#263238;stroke-width:0.5;stroke-linecap:round;stroke-linejoin:round;stroke-miterlimit:10;" x1="143.866" y1="92.769" x2="149.892" y2="92.769"/>
				
					<line style="fill:none;stroke:#263238;stroke-width:0.5;stroke-linecap:round;stroke-linejoin:round;stroke-miterlimit:10;" x1="143.866" y1="104.52" x2="149.892" y2="104.52"/>
			</g>
		</g>
		<g>
			<polyline style="fill:none;stroke:#263238;stroke-linecap:round;stroke-linejoin:round;stroke-miterlimit:10;" points="
				46.937,62.446 62.723,71.995 79.133,54.41 95.351,55.777 111.064,49.541 128.841,26.149 			"/>
			<path style="fill:#263238;" d="M48.928,62.446c0-1.099-0.891-1.991-1.991-1.991c-1.099,0-1.991,0.891-1.991,1.991
				c0,1.099,0.891,1.991,1.991,1.991C48.036,64.437,48.928,63.546,48.928,62.446z"/>
			<path style="fill:#263238;" d="M64.714,71.995c0-1.099-0.891-1.991-1.991-1.991c-1.099,0-1.991,0.891-1.991,1.991
				c0,1.099,0.891,1.991,1.991,1.991C63.823,73.986,64.714,73.094,64.714,71.995z"/>
			<path style="fill:#263238;" d="M81.124,54.41c0-1.099-0.891-1.991-1.991-1.991c-1.099,0-1.991,0.891-1.991,1.991
				c0,1.099,0.891,1.991,1.991,1.991C80.233,56.401,81.124,55.51,81.124,54.41z"/>
			<path style="fill:#263238;" d="M97.341,55.777c0-1.099-0.891-1.991-1.991-1.991c-1.099,0-1.991,0.891-1.991,1.991
				c0,1.099,0.891,1.991,1.991,1.991C96.45,57.768,97.341,56.877,97.341,55.777z"/>
			<path style="fill:#263238;" d="M113.055,49.227c0-1.099-0.891-1.991-1.991-1.991c-1.1,0-1.991,0.891-1.991,1.991
				s0.891,1.991,1.991,1.991C112.163,51.217,113.055,50.326,113.055,49.227z"/>
			<path style="fill:#263238;" d="M130.832,26.149c0-1.1-0.891-1.991-1.991-1.991c-1.1,0-1.991,0.891-1.991,1.991
				c0,1.099,0.891,1.991,1.991,1.991C129.94,28.14,130.832,27.249,130.832,26.149z"/>
		</g>
	</g>
</g>
</svg>
