<?xml version="1.0" encoding="utf-8"?>
<!-- Generator: Adobe Illustrator 27.5.0, SVG Export Plug-In . SVG Version: 6.00 Build 0)  -->
<svg version="1.1" xmlns="http://www.w3.org/2000/svg" xmlns:xlink="http://www.w3.org/1999/xlink" x="0px" y="0px"
	 viewBox="0 0 500 500" style="enable-background:new 0 0 500 500;" xml:space="preserve">
<g id="Background_Simple">
	<g>
		<path style="fill:#92E3A9;" d="M447.23,141.672c-2.932-1.872-5.829-3.781-8.707-5.729
			C407.54,114.969,262.561,19.569,201.441,28.319C132.815,38.145-12.783,255.197,24.312,319.509
			c37.095,64.312,222.57,175.964,271.721,158.099c49.151-17.864,180.838-214.372,189.185-262.606
			C492.344,173.818,457.552,148.262,447.23,141.672z"/>
		<path style="opacity:0.7;fill:#FFFFFF;" d="M447.23,141.672c-2.932-1.872-5.829-3.781-8.707-5.729
			C407.54,114.969,262.561,19.569,201.441,28.319C132.815,38.145-12.783,255.197,24.312,319.509
			c37.095,64.312,222.57,175.964,271.721,158.099c49.151-17.864,180.838-214.372,189.185-262.606
			C492.344,173.818,457.552,148.262,447.23,141.672z"/>
	</g>
</g>
<g id="Wifi">
	<g>
		<path style="fill:#263238;" d="M124.61,148.451c-5.53,0.04-10.894,1.368-15.767,4.324c-1.992,1.208-3.803,2.722-5.648,4.16
			c-1.068,0.832-2.169,1.246-3.506,0.846c-1.97-0.59-2.916-2.974-1.814-4.716c0.371-0.586,0.875-1.111,1.399-1.573
			c6.131-5.413,13.242-8.654,21.398-9.475c11.186-1.126,20.91,2.284,29.343,9.6c0.846,0.734,1.598,1.536,1.685,2.757
			c0.1,1.398-0.432,2.473-1.626,3.171c-1.211,0.708-2.439,0.556-3.563-0.212c-0.662-0.453-1.238-1.03-1.86-1.543
			c-5.577-4.602-11.973-7.049-19.204-7.301C125.221,148.48,124.995,148.468,124.61,148.451z"/>
		<path style="fill:#263238;" d="M141.094,166.296c-1.028,0.02-1.848-0.427-2.576-1.102c-2.929-2.72-6.32-4.632-10.269-5.278
			c-6.099-0.998-11.661,0.326-16.48,4.333c-0.562,0.467-1.103,0.964-1.694,1.391c-1.424,1.03-3.313,0.812-4.442-0.478
			c-1.105-1.263-1.095-3.139,0.104-4.4c2.67-2.807,5.883-4.81,9.502-6.141c7.017-2.58,13.938-2.255,20.722,0.857
			c2.772,1.271,5.244,3.002,7.399,5.166c1.012,1.016,1.268,2.449,0.702,3.697C143.487,165.614,142.481,166.253,141.094,166.296z"/>
		<path style="fill:#263238;" d="M124.487,164.009c4.514,0.095,8.382,1.691,11.497,5.016c1.231,1.314,1.294,3.269,0.137,4.519
			c-1.238,1.337-3.15,1.42-4.634,0.293c-1.175-0.893-2.326-1.93-3.662-2.473c-3.48-1.415-6.666-0.625-9.439,1.862
			c-0.986,0.885-1.993,1.586-3.439,1.334c-2.427-0.423-3.555-3.255-2.02-5.182c1.494-1.876,3.404-3.191,5.607-4.104
			C120.439,164.483,122.412,164.025,124.487,164.009z"/>
		<path style="fill:#263238;" d="M124.633,183.513c-2.309-0.011-4.044-1.726-4.037-3.989c0.006-2.137,1.839-3.98,3.944-3.967
			c2.319,0.014,4.054,1.78,4.027,4.099C128.542,181.776,126.76,183.523,124.633,183.513z"/>
	</g>
</g>
<g id="WhatsApp">
	<g>
		<g id="XMLID_105_">
			<path id="XMLID_106_" style="fill:#263238;" d="M121.67,122.284L121.67,122.284c-11.064,0-20.033-8.969-20.033-20.033l0,0
				c0-11.064,8.969-20.033,20.033-20.033l0,0c11.064,0,20.033,8.969,20.033,20.033l0,0
				C141.703,113.315,132.734,122.284,121.67,122.284z"/>
		</g>
		<g id="XMLID_100_">
			<path id="XMLID_102_" style="fill-rule:evenodd;clip-rule:evenodd;fill:#92E3A9;" d="M133.215,101.767
				c-0.146-5.788-4.914-10.435-10.783-10.435c-5.798,0-10.526,4.541-10.778,10.238c-0.005,0.156-0.01,0.313-0.01,0.469
				c0,2.025,0.565,3.915,1.545,5.531l-1.945,5.743l5.975-1.899c1.546,0.849,3.323,1.334,5.213,1.334
				c5.96,0,10.788-4.793,10.788-10.708C133.22,101.949,133.22,101.858,133.215,101.767z M122.431,111.04
				c-1.843,0-3.556-0.546-4.99-1.49l-3.485,1.111l1.131-3.344c-1.086-1.485-1.727-3.308-1.727-5.278
				c0-0.293,0.015-0.586,0.045-0.873c0.445-4.556,4.324-8.127,9.026-8.127c4.763,0,8.677,3.662,9.041,8.298
				c0.02,0.233,0.03,0.465,0.03,0.702C131.502,107.005,127.431,111.04,122.431,111.04z"/>
			<path id="XMLID_101_" style="fill-rule:evenodd;clip-rule:evenodd;fill:#92E3A9;" d="M127.376,104.201
				c-0.268-0.131-1.566-0.768-1.808-0.854c-0.243-0.091-0.419-0.131-0.596,0.131c-0.177,0.263-0.687,0.854-0.838,1.025
				c-0.156,0.177-0.308,0.197-0.576,0.066c-0.263-0.131-1.116-0.404-2.126-1.303c-0.783-0.692-1.318-1.55-1.47-1.813
				c-0.151-0.263-0.015-0.404,0.116-0.535c0.121-0.121,0.263-0.308,0.399-0.459c0.036-0.046,0.066-0.086,0.096-0.126
				c0.061-0.096,0.106-0.187,0.167-0.313c0.091-0.176,0.046-0.328-0.02-0.459c-0.066-0.131-0.596-1.424-0.818-1.95
				c-0.217-0.525-0.439-0.434-0.596-0.434c-0.152,0-0.328-0.025-0.505-0.025s-0.465,0.066-0.707,0.328
				c-0.242,0.263-0.924,0.899-0.924,2.192c0,0.303,0.056,0.606,0.136,0.894c0.268,0.924,0.844,1.687,0.945,1.818
				c0.131,0.172,1.828,2.909,4.515,3.965c2.692,1.046,2.692,0.697,3.177,0.651c0.485-0.041,1.566-0.631,1.783-1.247
				c0.223-0.611,0.223-1.136,0.157-1.248C127.815,104.398,127.638,104.333,127.376,104.201z"/>
		</g>
	</g>
</g>
<g id="Facebook">
	<g>
		<g id="XMLID_92_">
			<path id="XMLID_93_" style="fill:#263238;" d="M415.363,92.561L415.363,92.561c-11.064,0-20.033-8.969-20.033-20.033l0,0
				c0-11.064,8.969-20.033,20.033-20.033l0,0c11.064,0,20.033,8.969,20.033,20.033l0,0
				C435.395,83.592,426.426,92.561,415.363,92.561z"/>
		</g>
		<path id="XMLID_91_" style="fill:#92E3A9;" d="M412.189,84.637h4.876V72.425h3.402l0.363-4.089h-3.765c0,0,0-1.526,0-2.329
			c0-0.964,0.194-1.345,1.126-1.345c0.75,0,2.639,0,2.639,0v-4.244c0,0-2.782,0-3.377,0c-3.629,0-5.265,1.598-5.265,4.657
			c0,2.665,0,3.26,0,3.26h-2.537v4.14h2.537V84.637z"/>
	</g>
</g>
<g id="Twitter">
	<g>
		<g id="XMLID_67_">
			<path id="XMLID_68_" style="fill:#263238;" d="M103.834,418.77L103.834,418.77c-11.064,0-20.033-8.969-20.033-20.033l0,0
				c0-11.064,8.969-20.033,20.033-20.033h0c11.064,0,20.033,8.969,20.033,20.033l0,0C123.867,409.801,114.898,418.77,103.834,418.77
				z"/>
		</g>
		<path id="XMLID_66_" style="fill:#92E3A9;" d="M93.161,405.443c1.938,1.243,4.24,1.968,6.713,1.968
			c8.131,0,12.725-6.868,12.449-13.028c0.855-0.617,1.598-1.388,2.185-2.267c-0.786,0.348-1.63,0.584-2.515,0.689
			c0.904-0.541,1.598-1.399,1.925-2.423c-0.846,0.502-1.784,0.867-2.78,1.063c-0.799-0.851-1.937-1.383-3.198-1.383
			c-2.826,0-4.904,2.638-4.266,5.377c-3.64-0.182-6.867-1.926-9.027-4.576c-1.147,1.969-0.595,4.544,1.355,5.848
			c-0.718-0.023-1.394-0.22-1.985-0.548c-0.047,2.029,1.407,3.927,3.513,4.35c-0.617,0.168-1.292,0.206-1.977,0.075
			c0.556,1.741,2.174,3.006,4.091,3.042C97.804,405.073,95.484,405.718,93.161,405.443z"/>
	</g>
</g>
<g id="Ubication">
	<g>
		<path style="fill:#92E3A9;stroke:#263238;stroke-linecap:round;stroke-linejoin:round;stroke-miterlimit:10;" d="M100.879,212.502
			c-8.068,0-14.608,6.54-14.608,14.609c0,8.068,14.608,20.926,14.608,20.926s14.609-12.858,14.609-20.926
			C115.488,219.042,108.947,212.502,100.879,212.502z M100.879,232.338c-2.887,0-5.228-2.341-5.228-5.228
			c0-2.887,2.341-5.228,5.228-5.228c2.887,0,5.228,2.341,5.228,5.228C106.107,229.997,103.767,232.338,100.879,232.338z"/>
		<path style="fill:#92E3A9;stroke:#263238;stroke-linecap:round;stroke-linejoin:round;stroke-miterlimit:10;" d="M142.573,343.873
			c-8.068,0-14.608,6.54-14.608,14.608c0,8.068,14.608,20.926,14.608,20.926s14.609-12.858,14.609-20.926
			C157.181,350.413,150.641,343.873,142.573,343.873z M142.573,363.709c-2.887,0-5.228-2.341-5.228-5.228
			c0-2.887,2.341-5.228,5.228-5.228c2.887,0,5.228,2.341,5.228,5.228C147.801,361.369,145.46,363.709,142.573,363.709z"/>
		<path style="fill:none;stroke:#263238;stroke-linecap:round;stroke-linejoin:round;stroke-miterlimit:10;" d="M100.879,248.036
			V258.9c0,4.07-3.299,7.369-7.369,7.369H39.103c-4.372,0-7.917,3.544-7.917,7.917v19.485c0,4.372,3.544,7.917,7.917,7.917H73.27
			c4.279,0,7.749,3.469,7.749,7.749v14.015c0,4.279-3.469,7.749-7.749,7.749h-8.701c-3.474,0-6.29,2.816-6.29,6.29l0,0
			c0,3.474,2.816,6.29,6.29,6.29h50.105c3.056,0,5.534,2.477,5.534,5.534v23.373c0,3.541,2.871,6.412,6.412,6.412h15.843"/>
	</g>
</g>
<g id="Audio">
	<g>
		<g>
			<circle style="fill:#263238;" cx="335.379" cy="417.381" r="14.844"/>
			<rect x="329.194" y="410.577" style="fill:#FFFFFF;" width="4.948" height="14.225"/>
			<rect x="336.914" y="410.577" style="fill:#FFFFFF;" width="4.948" height="14.225"/>
		</g>
		<g>
			<circle style="fill:#263238;" cx="372.483" cy="417.381" r="14.844"/>
			<g>
				<rect x="364.057" y="410.577" style="fill:#FFFFFF;" width="4.948" height="14.225"/>
				<polygon style="fill:#FFFFFF;" points="382.877,417.694 372.144,411.092 372.144,424.297 				"/>
			</g>
		</g>
		<g>
			<circle style="fill:#263238;" cx="296.531" cy="417.381" r="14.844"/>
			<g>
				
					<rect x="300.009" y="410.577" transform="matrix(-1 -1.224647e-16 1.224647e-16 -1 604.9659 835.38)" style="fill:#FFFFFF;" width="4.948" height="14.225"/>
				<polygon style="fill:#FFFFFF;" points="286.137,417.694 296.87,411.092 296.87,424.297 				"/>
			</g>
		</g>
	</g>
</g>
<g id="Camera">
	<g>
		<g>
			<path style="fill:#92E3A9;stroke:#263238;stroke-linecap:round;stroke-linejoin:round;stroke-miterlimit:10;" d="
				M428.637,383.042h-36.748c-1.83,0-3.314-1.484-3.314-3.314v-31.939c0-1.83,1.484-3.314,3.314-3.314h36.748
				c1.83,0,3.314,1.484,3.314,3.314v31.939C431.951,381.558,430.467,383.042,428.637,383.042z"/>
		</g>
		<g>
			
				<ellipse transform="matrix(0.8059 -0.592 0.592 0.8059 -135.7283 313.4677)" style="fill:#263238;" cx="410.263" cy="363.758" rx="9.874" ry="9.874"/>
			<path style="fill:#263238;" d="M427.159,350.796c0-2.172-1.761-3.933-3.934-3.933c-2.172,0-3.933,1.761-3.933,3.933
				c0,2.172,1.761,3.933,3.933,3.933C425.398,354.729,427.159,352.969,427.159,350.796z"/>
		</g>
	</g>
</g>
<g id="Video">
	<g>
		<path style="fill:#92E3A9;stroke:#263238;stroke-linecap:round;stroke-linejoin:round;stroke-miterlimit:10;" d="M356.592,358.042
			h-36.748c-1.83,0-3.314-1.484-3.314-3.314v-31.939c0-1.83,1.484-3.314,3.314-3.314h36.748c1.83,0,3.314,1.484,3.314,3.314v31.939
			C359.905,356.558,358.422,358.042,356.592,358.042z"/>
		<polygon style="fill:#FFFFFF;stroke:#263238;stroke-linecap:round;stroke-linejoin:round;stroke-miterlimit:10;" points="
			350.849,339.062 329.841,326.933 329.841,351.19 		"/>
	</g>
</g>
<g id="File">
	<g>
		<g>
			<polygon style="fill:#92E3A9;stroke:#263238;stroke-linecap:round;stroke-linejoin:round;stroke-miterlimit:10;" points="
				432.888,299.441 376.431,299.441 367.825,262.203 424.282,262.203 			"/>
			
				<rect x="378.932" y="253.757" style="fill:#FFFFFF;stroke:#263238;stroke-linecap:round;stroke-linejoin:round;stroke-miterlimit:10;" width="54.035" height="42.405"/>
			
				<rect x="376.509" y="256.422" style="fill:#FFFFFF;stroke:#263238;stroke-linecap:round;stroke-linejoin:round;stroke-miterlimit:10;" width="54.036" height="42.405"/>
			<polygon style="fill:#92E3A9;stroke:#263238;stroke-linecap:round;stroke-linejoin:round;stroke-miterlimit:10;" points="
				432.888,299.441 434.906,257.876 411.644,257.876 408.494,260.057 380.143,260.057 376.431,299.441 			"/>
		</g>
		<polygon style="fill:#263238;stroke:#263238;stroke-linecap:round;stroke-linejoin:round;stroke-miterlimit:10;" points="
			417.22,280.088 407.706,265.622 398.193,280.088 403.466,280.088 403.466,290.83 411.947,290.83 411.947,280.088 		"/>
	</g>
</g>
<g id="Speech_Bubble">
	<g>
		<path style="fill:#FFFFFF;stroke:#263238;stroke-linecap:round;stroke-linejoin:round;stroke-miterlimit:10;" d="M173.958,277.316
			H137.21c-1.83,0-3.314,1.484-3.314,3.314v31.939c0,1.83,1.484,3.314,3.314,3.314h14.316l4.058,7.029l4.058-7.029h14.316
			c1.83,0,3.314-1.484,3.314-3.314V280.63C177.271,278.8,175.788,277.316,173.958,277.316z"/>
		<g>
			<path style="fill:#92E3A9;stroke:#263238;stroke-linecap:round;stroke-linejoin:round;stroke-miterlimit:10;" d="
				M167.186,296.851l-1.567,1.581l-10.034,10.034l-11.615-11.615c-2.76-2.774-2.76-7.26,0-10.034
				c1.394-1.394,3.206-2.084,5.017-2.084c1.826,0,3.637,0.69,5.017,2.084l1.581,1.581l1.567-1.581
				c1.38-1.394,3.206-2.084,5.017-2.084s3.637,0.69,5.017,2.084C169.961,289.592,169.961,294.077,167.186,296.851z"/>
		</g>
	</g>
</g>
<g id="Tab">
	<g>
		<path style="fill:none;stroke:#263238;stroke-linecap:round;stroke-linejoin:round;stroke-miterlimit:10;" d="M325.17,160.429
			H176.217c-2.627,0-4.757-2.13-4.757-4.757V65.785c0-3.859,3.128-6.986,6.986-6.986H322.94c3.858,0,6.986,3.128,6.986,6.986v89.887
			C329.926,158.3,327.797,160.429,325.17,160.429z"/>
		<path style="fill:#92E3A9;stroke:#263238;stroke-linecap:round;stroke-linejoin:round;stroke-miterlimit:10;" d="M329.926,70.84
			v-5.055c0-3.858-3.128-6.986-6.986-6.986H178.447c-3.859,0-6.986,3.128-6.986,6.986v5.055H329.926z"/>
		<path style="fill:#263238;stroke:#263238;stroke-linecap:round;stroke-linejoin:round;stroke-miterlimit:10;" d="M182.84,65.548
			c0-1.615-1.309-2.924-2.924-2.924c-1.615,0-2.924,1.309-2.924,2.924c0,1.615,1.309,2.924,2.924,2.924
			C181.53,68.473,182.84,67.163,182.84,65.548z"/>
		<path style="fill:#FFFFFF;stroke:#263238;stroke-linecap:round;stroke-linejoin:round;stroke-miterlimit:10;" d="M191.878,65.548
			c0-1.615-1.309-2.924-2.924-2.924c-1.615,0-2.924,1.309-2.924,2.924c0,1.615,1.309,2.924,2.924,2.924
			C190.569,68.473,191.878,67.163,191.878,65.548z"/>
		
			<circle style="fill:#FFFFFF;stroke:#263238;stroke-linecap:round;stroke-linejoin:round;stroke-miterlimit:10;" cx="197.993" cy="65.548" r="2.924"/>
	</g>
</g>
<g id="Cloud">
	<g>
		<g>
			<path style="fill:#FFFFFF;stroke:#263238;stroke-linecap:round;stroke-linejoin:round;stroke-miterlimit:10;" d="M388.28,115.91
				c-0.573,0-1.134,0.049-1.688,0.12c-1.158-9.756-9.445-17.326-19.513-17.326c-8.975,0-16.53,6.019-18.888,14.236
				c-7.352,0.836-13.066,7.07-13.066,14.646c0,8.145,6.603,14.748,14.748,14.748h38.407c7.297,0,13.212-5.915,13.212-13.212
				C401.492,121.825,395.577,115.91,388.28,115.91z"/>
			<polygon style="fill:#263238;" points="363.42,153.191 357.948,143.713 352.476,153.191 355.259,153.191 355.259,160.787 
				360.636,160.787 360.636,153.191 			"/>
			<polygon style="fill:#263238;" points="369.803,151.309 375.275,160.787 380.747,151.309 377.964,151.309 377.964,143.713 
				372.586,143.713 372.586,151.309 			"/>
		</g>
		
			<line style="fill:none;stroke:#263238;stroke-linecap:round;stroke-linejoin:round;stroke-miterlimit:10;stroke-dasharray:5,5;" x1="366.501" y1="169.711" x2="366.501" y2="214.544"/>
	</g>
</g>
<g id="Character">
	<g>
		<path style="fill:#263238;stroke:#263238;stroke-linecap:round;stroke-linejoin:round;stroke-miterlimit:10;" d="M287.41,134.964
			c0,0,6.656,0.38,8.748-2.853c2.092-3.233-3.043-7.417-2.472-9.509c0.571-2.092,10.27-1.712,7.607-12.742
			c-2.662-11.031-11.981-14.454-16.926-14.073c-4.945,0.38-9.699,2.472-14.074,1.712c-4.374-0.761-19.399-8.558-34.043,0.761
			s-8.558,27.006-7.607,30.619c0.951,3.613-15.405,2.853-17.687,16.736s7.798,24.533,31,23.202s23.583-10.46,22.441-18.257
			c-1.141-7.798,4.184-25.104,9.889-26.435c5.706-1.331,7.607,4.564,8.558,7.037C283.797,133.633,286.079,135.725,287.41,134.964z"
			/>
		<path style="fill:#92E3A9;stroke:#263238;stroke-linecap:round;stroke-linejoin:round;stroke-miterlimit:10;" d="M281.383,184.108
			c0,0,8.028,1.216,10.461,6.568c2.433,5.352,7.785,46.708,7.785,46.708l-18.732,7.298c0,0-0.243-7.785-2.919-26.273
			C275.301,199.921,277.247,183.135,281.383,184.108z"/>
		<path style="fill:#FFFFFF;stroke:#263238;stroke-linecap:round;stroke-linejoin:round;stroke-miterlimit:10;" d="M187.309,274.865
			c0,0,8.508,3.528,18.469,3.528s6.848-9.961,6.641-10.791C212.211,266.771,193.535,271.337,187.309,274.865z"/>
		<g>
			<path style="fill:#263238;stroke:#263238;stroke-linecap:round;stroke-linejoin:round;stroke-miterlimit:10;" d="
				M209.186,262.259c0,0,17.258,30.921,27.326,41.708c10.067,10.786,13.663,21.213,13.663,21.213l5.393,8.629
				c0,0-11.506,20.854-11.506,21.933c0,1.079-29.124,49.258-30.562,50.337c-1.438,1.079-12.225,2.517-13.303,6.112
				c-1.079,3.596,2.157,11.506,2.876,12.944s1.079,12.584,4.315,16.539c3.236,3.955,5.034,4.315,6.112,2.157
				c1.079-2.157,1.438-21.573,5.393-28.045c3.955-6.472,49.618-44.225,57.528-55.011c7.91-10.787,12.477-53.642,10.787-67.596
				c-1.69-13.953-5.034-21.933-5.034-21.933S247.658,249.315,209.186,262.259z"/>
			<path style="fill:#FFFFFF;stroke:#263238;stroke-linecap:round;stroke-linejoin:round;stroke-miterlimit:10;" d="
				M223.077,391.144c-5.002,8.132-9.062,14.55-9.576,14.936c-1.438,1.079-12.225,2.517-13.303,6.112
				c-1.079,3.595,2.157,11.506,2.876,12.944c0.719,1.438,1.079,12.584,4.315,16.539c3.236,3.955,5.034,4.315,6.112,2.157
				c1.079-2.157,1.438-21.573,5.393-28.045c1.406-2.301,8.087-8.558,16.467-16.15C228.899,397.723,225.045,393.797,223.077,391.144z
				"/>
			<path style="fill:#FFFFFF;stroke:#263238;stroke-linecap:round;stroke-linejoin:round;stroke-miterlimit:10;" d="
				M213.861,415.428c0,0-1.783-3.38-1.668-8.802c-3.298,1.042-11.086,2.539-11.995,5.567c-1.079,3.595,2.157,11.506,2.876,12.944
				c0.719,1.438,1.079,12.584,4.315,16.539c3.236,3.955,5.034,4.315,6.112,2.157c1.079-2.157,1.438-21.573,5.393-28.045
				L213.861,415.428z"/>
		</g>
		<g>
			<path style="fill:#263238;stroke:#263238;stroke-linecap:round;stroke-linejoin:round;stroke-miterlimit:10;" d="
				M241.906,269.091c14.742,10.786,39.91,61.483,39.191,65.438c-0.719,3.955-17.618,20.135-29.483,26.607
				c-11.865,6.472-55.371,36.315-57.888,38.112c-2.517,1.798-11.506,16.899-12.944,20.135c-1.438,3.236-1.438,6.831-3.236,10.786
				c-1.798,3.955-7.191-1.798-9.348-8.989c-2.157-7.191-0.719-25.528,0.36-28.404c1.079-2.876,17.978-2.517,17.978-2.517
				s29.483-32.359,35.236-38.112c5.753-5.753,26.247-12.584,26.247-12.584s-19.775-20.854-30.562-34.517
				s-16.539-38.832-16.539-38.832s26.966-3.955,37.393-3.595"/>
			<path style="fill:none;stroke:#D1D1D1;stroke-linecap:round;stroke-linejoin:round;stroke-miterlimit:10;" d="M263.765,292.266
				c7.48,12.423,20.929,36.508,18.57,45.473c-3.239,12.307-40.161,31.74-40.161,31.74"/>
			<path style="fill:none;stroke:#D1D1D1;stroke-linecap:round;stroke-linejoin:round;stroke-miterlimit:10;" d="M259.016,284.622
				c0,0,1.046,1.607,2.697,4.279"/>
			<path style="fill:#FFFFFF;stroke:#263238;stroke-linecap:round;stroke-linejoin:round;stroke-miterlimit:10;" d="M201.94,373.421
				c-8.068,8.785-15.405,16.838-15.405,16.838s-16.899-0.359-17.978,2.517c-1.079,2.876-2.517,21.213-0.36,28.404
				c2.157,7.191,7.551,12.944,9.348,8.989c1.798-3.955,1.798-7.551,3.236-10.787c1.438-3.236,10.427-18.337,12.944-20.135
				c1.019-0.728,8.755-6.051,18.389-12.56C206.706,382.563,203.612,377.266,201.94,373.421z"/>
			<path style="fill:#FFFFFF;stroke:#263238;stroke-linecap:round;stroke-linejoin:round;stroke-miterlimit:10;" d="
				M187.973,401.046c-1.079-1.079-3.596-0.719-3.596-0.719s0.211-4.227,0.472-10.082c-4.3-0.003-15.423,0.215-16.292,2.531
				c-1.079,2.876-2.517,21.213-0.36,28.404c2.157,7.191,7.551,12.944,9.348,8.989c1.798-3.955,1.798-7.551,3.236-10.787
				c1.017-2.287,5.803-10.497,9.412-15.752C189.426,402.682,188.517,401.59,187.973,401.046z"/>
		</g>
		<path style="fill:#FFFFFF;stroke:#263238;stroke-linecap:round;stroke-linejoin:round;stroke-miterlimit:10;" d="M355.597,251.129
			c0,0-1.606,6.246-12.314,4.462c-3.08-0.513-13.028,4.818-29.09,6.603c-7.029,0.781-15.23,0.338-18.067,0.338
			c-2.836,0-4.255-0.827-5.2-1.655s-6.5-16.664-6.5-16.664l12.882-4.491l3.546,6.264c0,0,0.151,1.193,12.983,3.537
			c13.008,2.377,33.583-3.419,36.301-4.483C352.856,243.976,355.715,249.829,355.597,251.129z"/>
		<path style="fill:#FFFFFF;stroke:#263238;stroke-linecap:round;stroke-linejoin:round;stroke-miterlimit:10;" d="M280.167,240.79
			c0,0,21.894-8.028,22.624-6.812c0.73,1.216,0.973,12.164,0.973,12.164s-2.676,2.433-9.731,4.136
			c-7.055,1.703-12.65,2.189-12.65,2.189L280.167,240.79z"/>
		<g>
			<polygon style="fill:#263238;stroke:#263238;stroke-linecap:round;stroke-linejoin:round;stroke-miterlimit:10;" points="
				362.573,219.891 344.623,248.013 353.299,255.791 371.847,227.969 			"/>
			<path style="fill:#FFFFFF;stroke:#263238;stroke-linecap:round;stroke-linejoin:round;stroke-miterlimit:10;" d="
				M344.623,248.013l7.18-8.676c0,0,0,0,2.094-0.598c2.094-0.598,5.983-0.598,7.18-1.496c1.197-0.897,0-2.693-1.496-2.393
				c-1.496,0.299-7.479,0.299-8.676,0.299c-1.197,0-8.975,6.881-8.975,6.881l-1.496,8.676"/>
			<path style="fill:#FFFFFF;stroke:#263238;stroke-linecap:round;stroke-linejoin:round;stroke-miterlimit:10;" d="
				M367.958,234.251c0,0,2.992,1.795,0.299,3.291c-2.692,1.496-2.519-0.185-2.519-0.185L367.958,234.251z"/>
			<path style="fill:#FFFFFF;stroke:#263238;stroke-linecap:round;stroke-linejoin:round;stroke-miterlimit:10;" d="
				M364.202,240.076c0,0,1.182,0.945,0.473,2.127s-2.836,0.946-2.836,0.946L364.202,240.076z"/>
			<path style="fill:#FFFFFF;stroke:#263238;stroke-linecap:round;stroke-linejoin:round;stroke-miterlimit:10;" d="M361.602,244.33
				c0,0,1.182,0.945,0.473,2.127c-0.709,1.182-2.837,0.946-2.837,0.946L361.602,244.33z"/>
			<path style="fill:#FFFFFF;stroke:#263238;stroke-linecap:round;stroke-linejoin:round;stroke-miterlimit:10;" d="
				M359.001,247.994c0,0,1.182,0.945,0.473,2.127c-0.709,1.182-2.837,0.945-2.837,0.945L359.001,247.994z"/>
		</g>
		<path style="fill:#FFFFFF;stroke:#263238;stroke-linecap:round;stroke-linejoin:round;stroke-miterlimit:10;" d="M281.383,234.222
			c0,0,2.022,11.247,6.645,19.275c4.622,8.028,5.932,20.036,5.932,20.036l0.588,11.175l-15.292-8.234c0,0,0.425-28.629-1.035-33.737
			c-1.46-5.109-2.676-17.272-0.487-16.056C279.923,227.897,281.383,234.222,281.383,234.222z"/>
		<g>
			<path style="fill:#D1D1D1;stroke:#263238;stroke-linecap:round;stroke-linejoin:round;stroke-miterlimit:10;" d="M272.139,179
				c0,0,2.676,0.73,4.379,5.352c1.703,4.622,3.892,34.301,3.649,38.923c-0.243,4.622,0.487,16.299,0.73,21.408
				s4.622,34.545,4.622,34.545s-13.866-8.514-34.301-10.947c-20.435-2.433-34.058-0.73-35.761-0.243
				c-1.703,0.487,11.191-25.544,11.92-45.248s-2.189-45.005,8.514-45.978c10.704-0.973,18.732-1.703,21.651-1.946
				C260.462,174.621,272.139,179,272.139,179z"/>
			<g>
				
					<line style="fill:none;stroke:#263238;stroke-linecap:round;stroke-linejoin:round;stroke-miterlimit:10;" x1="271.166" y1="221.815" x2="249.758" y2="231.789"/>
				
					<line style="fill:none;stroke:#263238;stroke-linecap:round;stroke-linejoin:round;stroke-miterlimit:10;" x1="265.327" y1="227.411" x2="252.434" y2="233.736"/>
			</g>
		</g>
		<path style="fill:#FFFFFF;stroke:#263238;stroke-linecap:round;stroke-linejoin:round;stroke-miterlimit:10;" d="M255.956,147.129
			c0,0-1.692,12.328-4.835,19.58c-3.142,7.252-11.845,8.702-10.878,9.911c0.967,1.209,14.262,20.306,18.855,20.789
			c4.593,0.483,14.746-13.053,14.987-15.471c0.242-2.417-1.45-0.483-2.417-6.043c-0.967-5.56,3.626-13.295,3.626-13.295
			S256.198,150.997,255.956,147.129z"/>
		<g>
			<path style="fill:#FFFFFF;stroke:#263238;stroke-linecap:round;stroke-linejoin:round;stroke-miterlimit:10;" d="M282.465,120.7
				c0,0-4.564-3.804-10.46-0.951c-5.896,2.853-6.086,13.123-9.889,18.257c-3.804,5.135-7.798,3.043-7.798,3.043
				s-6.086-7.607-6.846,2.662c-0.761,10.27,6.086,9.129,7.607,9.129c1.521,0,0.761-1.141,0.761-1.141s2.663,6.466,4.564,7.988
				c1.902,1.521,17.105,6.801,21.11,7.037c6.466,0.38,6.086-5.896,6.086-5.896l3.233-13.313c0,0,5.706-4.184,4.564-5.896
				c-1.141-1.712-6.466-3.043-7.988-6.656C285.889,131.35,287.981,124.314,282.465,120.7z"/>
			<path style="fill:none;stroke:#263238;stroke-linecap:round;stroke-linejoin:round;stroke-miterlimit:10;" d="M274.668,146.375
				c0,0,3.804,4.184,7.988,4.374"/>
			<path style="fill:#263238;" d="M282.465,135.63c0,1.418-0.468,2.567-1.046,2.567s-1.046-1.15-1.046-2.567
				c0-1.418,0.468-2.567,1.046-2.567S282.465,134.212,282.465,135.63z"/>
			<path style="fill:none;stroke:#263238;stroke-linecap:round;stroke-linejoin:round;stroke-miterlimit:10;" d="M277.711,129.639
				c0,0,3.423-3.613,6.276-1.141"/>
		</g>
		<path style="fill:#92E3A9;stroke:#263238;stroke-linecap:round;stroke-linejoin:round;stroke-miterlimit:10;" d="M241.887,191.441
			c0,0-0.415,28.638-1.038,37.146c-0.623,8.508-7.056,27.6-10.169,31.751c-3.113,4.15-4.565,7.263-12.866,9.753
			c-8.301,2.49-30.506,4.773-30.506,4.773s20.13-26.563,23.242-34.241c3.113-7.678,4.565-25.94,4.565-25.94l-33.618-2.49
			c0,0,18.884-17.432,23.242-24.072c4.358-6.641,9.961-11.414,20.13-12.659c10.168-1.245,15.373,1.158,15.373,1.158L241.887,191.441
			z"/>
		<path style="fill:#FFFFFF;stroke:#263238;stroke-linecap:round;stroke-linejoin:round;stroke-miterlimit:10;" d="M244.233,173.3
			c0,0-2.134,8.004-2.134,13.072s-0.533,7.47-0.533,7.47s-4.269-0.534-5.869,0c-1.601,0.534-7.47,1.601-7.47,1.601
			s2.134-19.742,6.936-22.943C239.964,169.298,244.233,173.3,244.233,173.3z"/>
		<path style="fill:#92E3A9;stroke:#263238;stroke-linecap:round;stroke-linejoin:round;stroke-miterlimit:10;" d="M276.247,196.777
			c0,0,2.946,30.147,5.136,37.445c0,0,2.676-7.785,3.892-14.11c1.216-6.325-1.946-21.408-2.676-25.544
			C281.87,190.433,276.95,189.741,276.247,196.777z"/>
		<path style="fill:#FFFFFF;stroke:#263238;stroke-linecap:round;stroke-linejoin:round;stroke-miterlimit:10;" d="M271.669,175.895
			l2.978,12.078l1.601,8.804l8.27,2.401c0,0,0.741-12.154-2.994-17.49C277.788,176.352,273.015,174.01,271.669,175.895z"/>
		<path style="fill:#FFFFFF;stroke:#263238;stroke-linecap:round;stroke-linejoin:round;stroke-miterlimit:10;" d="M239.604,235.228
			c0,0-6.018,8.508-10.169,10.999c-4.15,2.49-15.564,12.866-15.564,12.866s7.471,1.245,9.753,3.735
			c2.283,2.49,1.868,3.735,1.868,3.735s4.98-2.905,8.923-11.621C238.359,246.227,239.604,235.228,239.604,235.228z"/>
		<path style="fill:#FFFFFF;stroke:#263238;stroke-linecap:round;stroke-linejoin:round;stroke-miterlimit:10;" d="M183.574,206.59
			c0,0-6.226,8.301-6.641,9.131c-0.415,0.83,1.453,1.245,2.698,1.038c1.245-0.208,12.244,1.453,12.244,1.453l11.829-5.188
			c0,0-0.415-2.698-8.093-5.188C187.931,205.345,185.026,205.138,183.574,206.59z"/>
		<g>
			<path style="fill:#FFFFFF;stroke:#263238;stroke-linecap:round;stroke-linejoin:round;stroke-miterlimit:10;" d="M228.19,208.043
				c0,0-41.297,7.263-48.56,8.716c-7.263,1.453-8.301,9.546-8.716,12.244c-0.415,2.698,9.338,7.886,22.827,4.565
				c13.489-3.32,34.033-16.394,36.109-17.432c2.075-1.038,7.678-2.075,10.999-2.905c3.32-0.83,6.433-4.15,7.678-4.773
				c1.245-0.622,7.678-3.32,10.999-5.603c3.32-2.283,3.113-3.943,0.415-3.735c-2.698,0.207-7.471,2.49-8.923,2.698
				c-1.453,0.207-1.453,0.207-1.453,0.207l9.753-8.093c0,0,3.943-4.566,1.453-4.566c-2.49,0-15.149,2.905-17.847,4.773
				C240.227,196.007,228.19,208.043,228.19,208.043z"/>
			<path style="fill:#FFFFFF;stroke:#263238;stroke-linecap:round;stroke-linejoin:round;stroke-miterlimit:10;" d="
				M259.057,189.765c0,0,1.82,0.485,0.485,2.305c-1.335,1.82-10.919,9.342-10.919,9.342"/>
			<path style="fill:#FFFFFF;stroke:#263238;stroke-linecap:round;stroke-linejoin:round;stroke-miterlimit:10;" d="M239.888,198.5
				c0,0,5.945-3.518,8.25-4.731c2.305-1.213,10.797-3.518,10.069-1.941s-4.853,4.61-4.853,4.61"/>
			<path style="fill:#FFFFFF;stroke:#263238;stroke-linecap:round;stroke-linejoin:round;stroke-miterlimit:10;" d="M236.491,204.93
				c0,0,7.886-7.056,10.584-8.093c2.698-1.038,8.923-5.188,8.093-2.905c-0.83,2.283-9.753,8.508-9.753,8.508
				s-1.453,3.113-3.32,5.188c-1.868,2.075-6.226,4.15-7.056,4.358"/>
		</g>
	</g>
</g>
</svg>
